G04 #@! TF.FileFunction,Copper,L1,Top,Signal*
%FSLAX46Y46*%
G04 Gerber Fmt 4.6, Leading zero omitted, Abs format (unit mm)*
G04 Created by KiCad (PCBNEW 0.201505222246+5678~23~ubuntu14.04.1-product) date dom 24 may 2015 19:31:24 CEST*
%MOMM*%
G01*
G04 APERTURE LIST*
%ADD10C,0.101600*%
%ADD11R,1.600200X2.999740*%
%ADD12R,2.600960X1.600200*%
%ADD13R,1.200000X0.750000*%
%ADD14R,0.750000X1.200000*%
%ADD15R,1.778000X1.778000*%
%ADD16C,1.778000*%
%ADD17R,3.048000X2.540000*%
%ADD18R,3.606800X0.812800*%
%ADD19R,2.540000X3.048000*%
%ADD20R,0.812800X3.606800*%
%ADD21R,8.001000X8.001000*%
%ADD22R,1.800860X0.800100*%
%ADD23R,0.900000X1.200000*%
%ADD24R,1.200000X0.900000*%
%ADD25R,1.300000X1.500000*%
%ADD26R,2.501900X1.000760*%
%ADD27R,4.000500X1.998980*%
%ADD28R,0.550000X1.600000*%
%ADD29R,1.600000X0.550000*%
%ADD30R,0.558800X1.600200*%
%ADD31R,5.499100X1.998980*%
%ADD32C,0.599440*%
%ADD33C,0.508000*%
%ADD34C,0.254000*%
G04 APERTURE END LIST*
D10*
D11*
X139065000Y-103210360D03*
X139065000Y-107609640D03*
D12*
X147850860Y-102235000D03*
X144249140Y-102235000D03*
D13*
X147635000Y-99060000D03*
X145735000Y-99060000D03*
X156530000Y-113030000D03*
X158430000Y-113030000D03*
X150180000Y-114300000D03*
X152080000Y-114300000D03*
X155255000Y-96520000D03*
X153355000Y-96520000D03*
X156530000Y-110490000D03*
X158430000Y-110490000D03*
X148910000Y-96520000D03*
X150810000Y-96520000D03*
D14*
X161290000Y-93660000D03*
X161290000Y-91760000D03*
D15*
X146685000Y-112395000D03*
D16*
X144145000Y-112395000D03*
X146685000Y-109855000D03*
X144145000Y-109855000D03*
X146685000Y-107315000D03*
X144145000Y-107315000D03*
D17*
X130020000Y-98840000D03*
D18*
X133350000Y-101740000D03*
X133350000Y-102990000D03*
X133350000Y-104240000D03*
X133350000Y-105490000D03*
X133350000Y-106740000D03*
X133350000Y-107990000D03*
X133350000Y-109240000D03*
X133350000Y-110490000D03*
D17*
X130020000Y-113390000D03*
D19*
X137500000Y-92555000D03*
D20*
X134600000Y-95885000D03*
X133350000Y-95885000D03*
D19*
X130450000Y-92555000D03*
D17*
X169065000Y-101240000D03*
D18*
X165735000Y-110390000D03*
X165735000Y-109140000D03*
X165735000Y-107890000D03*
X165735000Y-106640000D03*
X165735000Y-105390000D03*
X165735000Y-104140000D03*
D17*
X169065000Y-113290000D03*
D21*
X167005000Y-94615000D03*
D22*
X137391140Y-113980000D03*
X137391140Y-112080000D03*
X134388860Y-113030000D03*
D23*
X152400000Y-110025000D03*
X152400000Y-112225000D03*
D24*
X163660000Y-113030000D03*
X161460000Y-113030000D03*
D25*
X149860000Y-110570000D03*
X149860000Y-107870000D03*
X159385000Y-93900000D03*
X159385000Y-96600000D03*
X140335000Y-111045000D03*
X140335000Y-113745000D03*
D26*
X137982960Y-96923860D03*
X137982960Y-98425000D03*
X137982960Y-99926140D03*
D27*
X141935200Y-98425000D03*
D10*
G36*
X139960350Y-99425760D02*
X139211050Y-98925380D01*
X139211050Y-97924620D01*
X139960350Y-97424240D01*
X139960350Y-99425760D01*
X139960350Y-99425760D01*
G37*
D28*
X160280000Y-99255000D03*
X159480000Y-99255000D03*
X158680000Y-99255000D03*
X157880000Y-99255000D03*
X157080000Y-99255000D03*
X156280000Y-99255000D03*
X155480000Y-99255000D03*
X154680000Y-99255000D03*
D29*
X153230000Y-100705000D03*
X153230000Y-101505000D03*
X153230000Y-102305000D03*
X153230000Y-103105000D03*
X153230000Y-103905000D03*
X153230000Y-104705000D03*
X153230000Y-105505000D03*
X153230000Y-106305000D03*
D28*
X154680000Y-107755000D03*
X155480000Y-107755000D03*
X156280000Y-107755000D03*
X157080000Y-107755000D03*
X157880000Y-107755000D03*
X158680000Y-107755000D03*
X159480000Y-107755000D03*
D30*
X160280000Y-107755000D03*
D29*
X161730000Y-106305000D03*
X161730000Y-105505000D03*
X161730000Y-104705000D03*
X161730000Y-103905000D03*
X161730000Y-103105000D03*
X161730000Y-102305000D03*
X161730000Y-101505000D03*
X161730000Y-100705000D03*
D31*
X145796000Y-92710000D03*
X155194000Y-92710000D03*
D32*
X162560000Y-111125000D03*
X153670000Y-114300000D03*
X136652000Y-102108000D03*
X156845000Y-100965000D03*
X158115000Y-100965000D03*
X150495000Y-102235000D03*
X162052000Y-98552000D03*
X146685000Y-97790000D03*
X156845000Y-96520000D03*
X154940000Y-106045000D03*
X154940000Y-104775000D03*
X165100000Y-101600000D03*
X168910000Y-109220000D03*
X133350000Y-92075000D03*
X130810000Y-109220000D03*
X169545000Y-107950000D03*
X164465000Y-100965000D03*
X170180000Y-106680000D03*
X163830000Y-100330000D03*
X141224000Y-109220000D03*
X161925000Y-99695000D03*
X170815000Y-105410000D03*
D33*
X133350000Y-106740000D02*
X131124000Y-106740000D01*
X130964000Y-104240000D02*
X133350000Y-104240000D01*
X130556000Y-104648000D02*
X130964000Y-104240000D01*
X130556000Y-106172000D02*
X130556000Y-104648000D01*
X131124000Y-106740000D02*
X130556000Y-106172000D01*
X133350000Y-104240000D02*
X133450000Y-104140000D01*
X133450000Y-104140000D02*
X136144000Y-104140000D01*
X136144000Y-104140000D02*
X137073640Y-103210360D01*
X137073640Y-103210360D02*
X139065000Y-103210360D01*
X137982960Y-99926140D02*
X138026140Y-99926140D01*
X138026140Y-99926140D02*
X139065000Y-100965000D01*
X139065000Y-100965000D02*
X139065000Y-103210360D01*
X165735000Y-110390000D02*
X163295000Y-110390000D01*
X163295000Y-110390000D02*
X162560000Y-111125000D01*
X152080000Y-114300000D02*
X153670000Y-114300000D01*
X133350000Y-102990000D02*
X135770000Y-102990000D01*
X135770000Y-102990000D02*
X136652000Y-102108000D01*
X157080000Y-99255000D02*
X157080000Y-100730000D01*
X157080000Y-100730000D02*
X156845000Y-100965000D01*
X158680000Y-99255000D02*
X158680000Y-100400000D01*
X158680000Y-100400000D02*
X158115000Y-100965000D01*
X150495000Y-102235000D02*
X147850860Y-102235000D01*
X165735000Y-104140000D02*
X165735000Y-103505000D01*
X163068000Y-99568000D02*
X162052000Y-98552000D01*
X164338000Y-99568000D02*
X163068000Y-99568000D01*
X166370000Y-101600000D02*
X164338000Y-99568000D01*
X166370000Y-102870000D02*
X166370000Y-101600000D01*
X165735000Y-103505000D02*
X166370000Y-102870000D01*
X157880000Y-99255000D02*
X157880000Y-97555000D01*
X157480000Y-97155000D02*
X156845000Y-97155000D01*
X157880000Y-97555000D02*
X157480000Y-97155000D01*
X156845000Y-97155000D02*
X156845000Y-96520000D01*
X156280000Y-99255000D02*
X156280000Y-97720000D01*
X156845000Y-97155000D02*
X156845000Y-96520000D01*
X156280000Y-97720000D02*
X156845000Y-97155000D01*
X146685000Y-97790000D02*
X147320000Y-97790000D01*
X147320000Y-97790000D02*
X147635000Y-98105000D01*
X147635000Y-98105000D02*
X147635000Y-99060000D01*
X137982960Y-96923860D02*
X139296140Y-96923860D01*
X147635000Y-98105000D02*
X147635000Y-99060000D01*
X147320000Y-97790000D02*
X147635000Y-98105000D01*
X146685000Y-97790000D02*
X147320000Y-97790000D01*
X145415000Y-96520000D02*
X146685000Y-97790000D01*
X139700000Y-96520000D02*
X145415000Y-96520000D01*
X139296140Y-96923860D02*
X139700000Y-96520000D01*
X147635000Y-99060000D02*
X147635000Y-100010000D01*
X147635000Y-100010000D02*
X147850860Y-100225860D01*
X147850860Y-100225860D02*
X147850860Y-102235000D01*
X144145000Y-112395000D02*
X144145000Y-113665000D01*
X144780000Y-114300000D02*
X150180000Y-114300000D01*
X144145000Y-113665000D02*
X144780000Y-114300000D01*
X152400000Y-110025000D02*
X151595000Y-110025000D01*
X151050000Y-110570000D02*
X149860000Y-110570000D01*
X151595000Y-110025000D02*
X151050000Y-110570000D01*
X149860000Y-110570000D02*
X149860000Y-112395000D01*
X150180000Y-112715000D02*
X150180000Y-114300000D01*
X149860000Y-112395000D02*
X150180000Y-112715000D01*
X155480000Y-107755000D02*
X155480000Y-109315000D01*
X154940000Y-113030000D02*
X156530000Y-113030000D01*
X154940000Y-109855000D02*
X154940000Y-113030000D01*
X155480000Y-109315000D02*
X154940000Y-109855000D01*
X156530000Y-113030000D02*
X154305000Y-113030000D01*
X153500000Y-112225000D02*
X152400000Y-112225000D01*
X154305000Y-113030000D02*
X153500000Y-112225000D01*
X157880000Y-107755000D02*
X157880000Y-109112000D01*
X158430000Y-109662000D02*
X158430000Y-110490000D01*
X157880000Y-109112000D02*
X158430000Y-109662000D01*
X158430000Y-110490000D02*
X158430000Y-113030000D01*
X158430000Y-113030000D02*
X161460000Y-113030000D01*
D34*
X155480000Y-99255000D02*
X155480000Y-98076000D01*
X155255000Y-97851000D02*
X155255000Y-96520000D01*
X155480000Y-98076000D02*
X155255000Y-97851000D01*
X155255000Y-96520000D02*
X155194000Y-96459000D01*
X155194000Y-96459000D02*
X155194000Y-92710000D01*
X157080000Y-107755000D02*
X157080000Y-108985000D01*
X156530000Y-109535000D02*
X156530000Y-110490000D01*
X157080000Y-108985000D02*
X156530000Y-109535000D01*
X154680000Y-99255000D02*
X151645000Y-99255000D01*
X151645000Y-99255000D02*
X148910000Y-96520000D01*
X148910000Y-96520000D02*
X146685000Y-96520000D01*
X146685000Y-96520000D02*
X145796000Y-95631000D01*
X145796000Y-95631000D02*
X145796000Y-92710000D01*
X161290000Y-93660000D02*
X161290000Y-97790000D01*
X161290000Y-97790000D02*
X160280000Y-98800000D01*
X160280000Y-98800000D02*
X160280000Y-99255000D01*
X159385000Y-93900000D02*
X160575000Y-93900000D01*
X160815000Y-93660000D02*
X161290000Y-93660000D01*
X160575000Y-93900000D02*
X160815000Y-93660000D01*
X161290000Y-93660000D02*
X166050000Y-93660000D01*
X166050000Y-93660000D02*
X167005000Y-94615000D01*
X154680000Y-106305000D02*
X153230000Y-106305000D01*
X154940000Y-106045000D02*
X154680000Y-106305000D01*
X146685000Y-109855000D02*
X145415000Y-108585000D01*
X152205000Y-107755000D02*
X154680000Y-107755000D01*
X151765000Y-107315000D02*
X152205000Y-107755000D01*
X151765000Y-106680000D02*
X151765000Y-107315000D01*
X150495000Y-105410000D02*
X151765000Y-106680000D01*
X146050000Y-105410000D02*
X150495000Y-105410000D01*
X145415000Y-106045000D02*
X146050000Y-105410000D01*
X145415000Y-108585000D02*
X145415000Y-106045000D01*
X154210000Y-105505000D02*
X153230000Y-105505000D01*
X154940000Y-104775000D02*
X154210000Y-105505000D01*
X144145000Y-109855000D02*
X143637000Y-109855000D01*
X144145000Y-109855000D02*
X143510000Y-109855000D01*
X161730000Y-103105000D02*
X164230000Y-103105000D01*
X164230000Y-103105000D02*
X165100000Y-102235000D01*
X165100000Y-102235000D02*
X165100000Y-101600000D01*
X168830000Y-109140000D02*
X165735000Y-109140000D01*
X168910000Y-109220000D02*
X168830000Y-109140000D01*
X146685000Y-107315000D02*
X147955000Y-107315000D01*
X148510000Y-107870000D02*
X149860000Y-107870000D01*
X147955000Y-107315000D02*
X148510000Y-107870000D01*
X146765000Y-107870000D02*
X146685000Y-107950000D01*
X134388860Y-113030000D02*
X134388860Y-112163860D01*
X130035000Y-101740000D02*
X133350000Y-101740000D01*
X129540000Y-102235000D02*
X130035000Y-101740000D01*
X129540000Y-111125000D02*
X129540000Y-102235000D01*
X129921000Y-111506000D02*
X129540000Y-111125000D01*
X133731000Y-111506000D02*
X129921000Y-111506000D01*
X134388860Y-112163860D02*
X133731000Y-111506000D01*
X133350000Y-109240000D02*
X130830000Y-109240000D01*
X134600000Y-93325000D02*
X134600000Y-95885000D01*
X133350000Y-92075000D02*
X134600000Y-93325000D01*
X130830000Y-109240000D02*
X130810000Y-109220000D01*
X161730000Y-102305000D02*
X163760000Y-102305000D01*
X169485000Y-107890000D02*
X165735000Y-107890000D01*
X169545000Y-107950000D02*
X169485000Y-107890000D01*
X164465000Y-101600000D02*
X164465000Y-100965000D01*
X163760000Y-102305000D02*
X164465000Y-101600000D01*
X161660000Y-102235000D02*
X161730000Y-102305000D01*
X161730000Y-101505000D02*
X163100000Y-101505000D01*
X170140000Y-106640000D02*
X165735000Y-106640000D01*
X170180000Y-106680000D02*
X170140000Y-106640000D01*
X163830000Y-100775000D02*
X163830000Y-100330000D01*
X163100000Y-101505000D02*
X163830000Y-100775000D01*
X140335000Y-111045000D02*
X140335000Y-110109000D01*
X140335000Y-110109000D02*
X141224000Y-109220000D01*
X165735000Y-105390000D02*
X170795000Y-105390000D01*
X161730000Y-99890000D02*
X161730000Y-100705000D01*
X161925000Y-99695000D02*
X161730000Y-99890000D01*
X170795000Y-105390000D02*
X170815000Y-105410000D01*
X137391140Y-113980000D02*
X138750000Y-113980000D01*
X138985000Y-113745000D02*
X140335000Y-113745000D01*
X138750000Y-113980000D02*
X138985000Y-113745000D01*
X159480000Y-99255000D02*
X159480000Y-97885000D01*
X159385000Y-97790000D02*
X159385000Y-96600000D01*
X159480000Y-97885000D02*
X159385000Y-97790000D01*
X157082369Y-100410000D02*
X157082369Y-100410000D01*
X158682369Y-100410000D02*
X158682369Y-100410000D01*
X156871050Y-100613200D02*
X157288950Y-100613200D01*
X158471050Y-100613200D02*
X158888950Y-100613200D01*
X154668072Y-100816400D02*
X160291928Y-100816400D01*
X154662457Y-101019600D02*
X160295147Y-101019600D01*
X154667486Y-101222800D02*
X160292948Y-101222800D01*
X154668072Y-101426000D02*
X160291928Y-101426000D01*
X154668072Y-101629200D02*
X160291928Y-101629200D01*
X154660642Y-101832400D02*
X160296187Y-101832400D01*
X154668072Y-102035600D02*
X160291928Y-102035600D01*
X154668072Y-102238800D02*
X160291928Y-102238800D01*
X154668072Y-102442000D02*
X160291928Y-102442000D01*
X154658827Y-102645200D02*
X160297228Y-102645200D01*
X154668072Y-102848400D02*
X160291928Y-102848400D01*
X154668072Y-103051600D02*
X160291928Y-103051600D01*
X154668072Y-103254800D02*
X160291928Y-103254800D01*
X154657012Y-103458000D02*
X160298268Y-103458000D01*
X154668072Y-103661200D02*
X160291928Y-103661200D01*
X154668072Y-103864400D02*
X154724986Y-103864400D01*
X155152651Y-103864400D02*
X160291928Y-103864400D01*
X155554881Y-104067600D02*
X160291928Y-104067600D01*
X155727277Y-104270800D02*
X160299308Y-104270800D01*
X155826984Y-104474000D02*
X160291928Y-104474000D01*
X155873543Y-104677200D02*
X160291928Y-104677200D01*
X155872009Y-104880400D02*
X160291928Y-104880400D01*
X155825825Y-105083600D02*
X160300478Y-105083600D01*
X155722900Y-105286800D02*
X160291928Y-105286800D01*
X155693526Y-105490000D02*
X160291928Y-105490000D01*
X155806046Y-105693200D02*
X160291928Y-105693200D01*
X155863484Y-105896400D02*
X160304480Y-105896400D01*
X155872719Y-106099600D02*
X160291928Y-106099600D01*
X155840011Y-106302800D02*
X160291928Y-106302800D01*
X127685000Y-90220000D02*
X162510691Y-90220000D01*
X127685000Y-90423200D02*
X129006930Y-90423200D01*
X131908772Y-90423200D02*
X136056930Y-90423200D01*
X138958772Y-90423200D02*
X162397836Y-90423200D01*
X127685000Y-90626400D02*
X128694773Y-90626400D01*
X132209794Y-90626400D02*
X135744773Y-90626400D01*
X139259794Y-90626400D02*
X160570618Y-90626400D01*
X161105650Y-90626400D02*
X161474350Y-90626400D01*
X162009381Y-90626400D02*
X162366428Y-90626400D01*
X127685000Y-90829600D02*
X128577877Y-90829600D01*
X132318941Y-90829600D02*
X135627877Y-90829600D01*
X139368941Y-90829600D02*
X160372058Y-90829600D01*
X161163000Y-90829600D02*
X161417000Y-90829600D01*
X162207941Y-90829600D02*
X162366428Y-90829600D01*
X127685000Y-91032800D02*
X128541928Y-91032800D01*
X132358072Y-91032800D02*
X135591928Y-91032800D01*
X139408072Y-91032800D02*
X160292861Y-91032800D01*
X161163000Y-91032800D02*
X161417000Y-91032800D01*
X162287138Y-91032800D02*
X162366428Y-91032800D01*
X127685000Y-91236000D02*
X128541928Y-91236000D01*
X132358072Y-91236000D02*
X132931284Y-91236000D01*
X133766286Y-91236000D02*
X135591928Y-91236000D01*
X139408072Y-91236000D02*
X142620623Y-91236000D01*
X148962762Y-91236000D02*
X152018623Y-91236000D01*
X158360762Y-91236000D02*
X160280000Y-91236000D01*
X161163000Y-91236000D02*
X161417000Y-91236000D01*
X162300000Y-91236000D02*
X162366428Y-91236000D01*
X127685000Y-91439200D02*
X128541928Y-91439200D01*
X132358072Y-91439200D02*
X132663242Y-91439200D01*
X134035983Y-91439200D02*
X135591928Y-91439200D01*
X139408072Y-91439200D02*
X142475764Y-91439200D01*
X149122630Y-91439200D02*
X151873764Y-91439200D01*
X158520630Y-91439200D02*
X160280000Y-91439200D01*
X161163000Y-91439200D02*
X161417000Y-91439200D01*
X162300000Y-91439200D02*
X162366428Y-91439200D01*
X127685000Y-91642400D02*
X128541928Y-91642400D01*
X132358072Y-91642400D02*
X132518412Y-91642400D01*
X134182742Y-91642400D02*
X135591928Y-91642400D01*
X139408072Y-91642400D02*
X142418035Y-91642400D01*
X149178086Y-91642400D02*
X151816035Y-91642400D01*
X158576086Y-91642400D02*
X161163000Y-91642400D01*
X161163000Y-91642400D02*
X162300000Y-91642400D01*
X162300000Y-91642400D02*
X162366428Y-91642400D01*
X127685000Y-91845600D02*
X128541928Y-91845600D01*
X132358072Y-91845600D02*
X132443116Y-91845600D01*
X134257485Y-91845600D02*
X135591928Y-91845600D01*
X139408072Y-91845600D02*
X142408378Y-91845600D01*
X149183622Y-91845600D02*
X151806378Y-91845600D01*
X158581622Y-91845600D02*
X161163000Y-91845600D01*
X161163000Y-91845600D02*
X162300000Y-91845600D01*
X162300000Y-91845600D02*
X162366428Y-91845600D01*
X127685000Y-92048800D02*
X128541928Y-92048800D01*
X132358072Y-92048800D02*
X132415514Y-92048800D01*
X134401430Y-92048800D02*
X135591928Y-92048800D01*
X139408072Y-92048800D02*
X142408378Y-92048800D01*
X149183622Y-92048800D02*
X151806378Y-92048800D01*
X158581622Y-92048800D02*
X160280000Y-92048800D01*
X162300000Y-92048800D02*
X162366428Y-92048800D01*
X127685000Y-92252000D02*
X128541928Y-92252000D01*
X132358072Y-92252000D02*
X132432113Y-92252000D01*
X134604630Y-92252000D02*
X135591928Y-92252000D01*
X139408072Y-92252000D02*
X142408378Y-92252000D01*
X149183622Y-92252000D02*
X151806378Y-92252000D01*
X158581622Y-92252000D02*
X160280000Y-92252000D01*
X162300000Y-92252000D02*
X162366428Y-92252000D01*
X127685000Y-92455200D02*
X128541928Y-92455200D01*
X132358072Y-92455200D02*
X132495172Y-92455200D01*
X134807830Y-92455200D02*
X135591928Y-92455200D01*
X139408072Y-92455200D02*
X142408378Y-92455200D01*
X149183622Y-92455200D02*
X151806378Y-92455200D01*
X158581622Y-92455200D02*
X160286497Y-92455200D01*
X162293504Y-92455200D02*
X162366428Y-92455200D01*
X127685000Y-92658400D02*
X128541928Y-92658400D01*
X132358072Y-92658400D02*
X132613916Y-92658400D01*
X135011030Y-92658400D02*
X135591928Y-92658400D01*
X139408072Y-92658400D02*
X142408378Y-92658400D01*
X149183622Y-92658400D02*
X151806378Y-92658400D01*
X162228718Y-92658400D02*
X162366428Y-92658400D01*
X127685000Y-92861600D02*
X128541928Y-92861600D01*
X132358072Y-92861600D02*
X132843889Y-92861600D01*
X135200663Y-92861600D02*
X135591928Y-92861600D01*
X139408072Y-92861600D02*
X142408378Y-92861600D01*
X149183622Y-92861600D02*
X151806378Y-92861600D01*
X162264879Y-92861600D02*
X162366428Y-92861600D01*
X127685000Y-93064800D02*
X128541928Y-93064800D01*
X132358072Y-93064800D02*
X133262170Y-93064800D01*
X135314124Y-93064800D02*
X135591928Y-93064800D01*
X139408072Y-93064800D02*
X142408378Y-93064800D01*
X149183622Y-93064800D02*
X151806378Y-93064800D01*
X127685000Y-93268000D02*
X128541928Y-93268000D01*
X132358072Y-93268000D02*
X133465370Y-93268000D01*
X135356410Y-93268000D02*
X135591928Y-93268000D01*
X139408072Y-93268000D02*
X142408378Y-93268000D01*
X149183622Y-93268000D02*
X151806378Y-93268000D01*
X127685000Y-93471200D02*
X128541928Y-93471200D01*
X132358072Y-93471200D02*
X132757901Y-93471200D01*
X133088850Y-93471200D02*
X133611150Y-93471200D01*
X135362000Y-93471200D02*
X135591928Y-93471200D01*
X139408072Y-93471200D02*
X142408378Y-93471200D01*
X149183622Y-93471200D02*
X151806378Y-93471200D01*
X127685000Y-93674400D02*
X128541928Y-93674400D01*
X132358072Y-93674400D02*
X132452774Y-93674400D01*
X133223000Y-93674400D02*
X133477000Y-93674400D01*
X135494473Y-93674400D02*
X135591928Y-93674400D01*
X139408072Y-93674400D02*
X142408378Y-93674400D01*
X149183622Y-93674400D02*
X151806378Y-93674400D01*
X127685000Y-93877600D02*
X128541928Y-93877600D01*
X133223000Y-93877600D02*
X133477000Y-93877600D01*
X139408072Y-93877600D02*
X142437100Y-93877600D01*
X149159785Y-93877600D02*
X151835100Y-93877600D01*
X127685000Y-94080800D02*
X128542075Y-94080800D01*
X133223000Y-94080800D02*
X133477000Y-94080800D01*
X139407817Y-94080800D02*
X139408072Y-94080800D01*
X139408072Y-94080800D02*
X142534617Y-94080800D01*
X149059062Y-94080800D02*
X151932617Y-94080800D01*
X127685000Y-94284000D02*
X128582185Y-94284000D01*
X133223000Y-94284000D02*
X133477000Y-94284000D01*
X139370504Y-94284000D02*
X139408072Y-94284000D01*
X139408072Y-94284000D02*
X142783645Y-94284000D01*
X148822185Y-94284000D02*
X152181645Y-94284000D01*
X127685000Y-94487200D02*
X128692589Y-94487200D01*
X132202168Y-94487200D02*
X132308600Y-94487200D01*
X133223000Y-94487200D02*
X133477000Y-94487200D01*
X135644472Y-94487200D02*
X135742589Y-94487200D01*
X139252168Y-94487200D02*
X139408072Y-94487200D01*
X139408072Y-94487200D02*
X145034000Y-94487200D01*
X146558000Y-94487200D02*
X154432000Y-94487200D01*
X127685000Y-94690400D02*
X128999233Y-94690400D01*
X131881558Y-94690400D02*
X132308600Y-94690400D01*
X133223000Y-94690400D02*
X133477000Y-94690400D01*
X135644472Y-94690400D02*
X136049233Y-94690400D01*
X138931558Y-94690400D02*
X139408072Y-94690400D01*
X139408072Y-94690400D02*
X145034000Y-94690400D01*
X146558000Y-94690400D02*
X154432000Y-94690400D01*
X127685000Y-94893600D02*
X132308600Y-94893600D01*
X133223000Y-94893600D02*
X133477000Y-94893600D01*
X135644472Y-94893600D02*
X139408072Y-94893600D01*
X139408072Y-94893600D02*
X145034000Y-94893600D01*
X146558000Y-94893600D02*
X154432000Y-94893600D01*
X127685000Y-95096800D02*
X132308600Y-95096800D01*
X133223000Y-95096800D02*
X133477000Y-95096800D01*
X135644472Y-95096800D02*
X139408072Y-95096800D01*
X139408072Y-95096800D02*
X145034000Y-95096800D01*
X146558000Y-95096800D02*
X154432000Y-95096800D01*
X127685000Y-95300000D02*
X132308600Y-95300000D01*
X133223000Y-95300000D02*
X133477000Y-95300000D01*
X135644472Y-95300000D02*
X139408072Y-95300000D01*
X139408072Y-95300000D02*
X145034000Y-95300000D01*
X146558000Y-95300000D02*
X154432000Y-95300000D01*
X127685000Y-95503200D02*
X132308600Y-95503200D01*
X133223000Y-95503200D02*
X133477000Y-95503200D01*
X135644472Y-95503200D02*
X139408072Y-95503200D01*
X139408072Y-95503200D02*
X145034000Y-95503200D01*
X146745830Y-95503200D02*
X154432000Y-95503200D01*
X127685000Y-95706400D02*
X132415750Y-95706400D01*
X133223000Y-95706400D02*
X133477000Y-95706400D01*
X135644472Y-95706400D02*
X139345578Y-95706400D01*
X146949030Y-95706400D02*
X147853661Y-95706400D01*
X150683000Y-95706400D02*
X150937000Y-95706400D01*
X151869426Y-95706400D02*
X152295574Y-95706400D01*
X153228000Y-95706400D02*
X153482000Y-95706400D01*
X127685000Y-95909600D02*
X133223000Y-95909600D01*
X133223000Y-95909600D02*
X133497000Y-95909600D01*
X135644472Y-95909600D02*
X136363791Y-95909600D01*
X150683000Y-95909600D02*
X150937000Y-95909600D01*
X151999813Y-95909600D02*
X152165186Y-95909600D01*
X153228000Y-95909600D02*
X153482000Y-95909600D01*
X127685000Y-96112800D02*
X132366550Y-96112800D01*
X133223000Y-96112800D02*
X133477000Y-96112800D01*
X135644472Y-96112800D02*
X136179027Y-96112800D01*
X150683000Y-96112800D02*
X150937000Y-96112800D01*
X152045000Y-96112800D02*
X152120000Y-96112800D01*
X153228000Y-96112800D02*
X153482000Y-96112800D01*
X127685000Y-96316000D02*
X132308600Y-96316000D01*
X133223000Y-96316000D02*
X133477000Y-96316000D01*
X135644472Y-96316000D02*
X136109178Y-96316000D01*
X150683000Y-96316000D02*
X150937000Y-96316000D01*
X151963250Y-96316000D02*
X152045000Y-96316000D01*
X152045000Y-96316000D02*
X152201750Y-96316000D01*
X153228000Y-96316000D02*
X153482000Y-96316000D01*
X127685000Y-96519200D02*
X132308600Y-96519200D01*
X133223000Y-96519200D02*
X133477000Y-96519200D01*
X135644472Y-96519200D02*
X136093938Y-96519200D01*
X150663000Y-96519200D02*
X152045000Y-96519200D01*
X152045000Y-96519200D02*
X153228000Y-96519200D01*
X153228000Y-96519200D02*
X153502000Y-96519200D01*
X127685000Y-96722400D02*
X132308600Y-96722400D01*
X133223000Y-96722400D02*
X133477000Y-96722400D01*
X135644472Y-96722400D02*
X136093938Y-96722400D01*
X151961650Y-96722400D02*
X152045000Y-96722400D01*
X152045000Y-96722400D02*
X152203350Y-96722400D01*
X153228000Y-96722400D02*
X153482000Y-96722400D01*
X127685000Y-96925600D02*
X132308600Y-96925600D01*
X133223000Y-96925600D02*
X133477000Y-96925600D01*
X135644472Y-96925600D02*
X136093938Y-96925600D01*
X152045000Y-96925600D02*
X152120000Y-96925600D01*
X153228000Y-96925600D02*
X153482000Y-96925600D01*
X127685000Y-97128800D02*
X128041871Y-97128800D01*
X132000416Y-97128800D02*
X132308600Y-97128800D01*
X133223000Y-97128800D02*
X133477000Y-97128800D01*
X135644472Y-97128800D02*
X136093938Y-97128800D01*
X152000476Y-97128800D02*
X152164525Y-97128800D01*
X153228000Y-97128800D02*
X153482000Y-97128800D01*
X127685000Y-97332000D02*
X127910335Y-97332000D01*
X132131496Y-97332000D02*
X132308600Y-97332000D01*
X133223000Y-97332000D02*
X133477000Y-97332000D01*
X135644472Y-97332000D02*
X136093938Y-97332000D01*
X151871026Y-97332000D02*
X152293974Y-97332000D01*
X153228000Y-97332000D02*
X153482000Y-97332000D01*
X127685000Y-97535200D02*
X127862862Y-97535200D01*
X132179243Y-97535200D02*
X132308600Y-97535200D01*
X133223000Y-97535200D02*
X133477000Y-97535200D01*
X135644472Y-97535200D02*
X136104789Y-97535200D01*
X148312230Y-97535200D02*
X148847570Y-97535200D01*
X151002830Y-97535200D02*
X153228000Y-97535200D01*
X153228000Y-97535200D02*
X154493000Y-97535200D01*
X127685000Y-97738400D02*
X127857928Y-97738400D01*
X132182072Y-97738400D02*
X132308600Y-97738400D01*
X133223000Y-97738400D02*
X133477000Y-97738400D01*
X135637383Y-97738400D02*
X136121825Y-97738400D01*
X148442124Y-97738400D02*
X149050770Y-97738400D01*
X151206030Y-97738400D02*
X153228000Y-97738400D01*
X153228000Y-97738400D02*
X154493000Y-97738400D01*
X127685000Y-97941600D02*
X127857928Y-97941600D01*
X132182072Y-97941600D02*
X132361160Y-97941600D01*
X133223000Y-97941600D02*
X133477000Y-97941600D01*
X135585230Y-97941600D02*
X136097010Y-97941600D01*
X148508841Y-97941600D02*
X149253970Y-97941600D01*
X151409230Y-97941600D02*
X153228000Y-97941600D01*
X153228000Y-97941600D02*
X154036056Y-97941600D01*
X127685000Y-98144800D02*
X127857928Y-98144800D01*
X132182072Y-98144800D02*
X132501974Y-98144800D01*
X133223000Y-98144800D02*
X133477000Y-98144800D01*
X135447615Y-98144800D02*
X136102560Y-98144800D01*
X148574106Y-98144800D02*
X149457170Y-98144800D01*
X151612430Y-98144800D02*
X153228000Y-98144800D01*
X153228000Y-98144800D02*
X153851801Y-98144800D01*
X127685000Y-98348000D02*
X127857928Y-98348000D01*
X132182072Y-98348000D02*
X133223000Y-98348000D01*
X133223000Y-98348000D02*
X142082200Y-98348000D01*
X148769546Y-98348000D02*
X149660370Y-98348000D01*
X151815630Y-98348000D02*
X153228000Y-98348000D01*
X153228000Y-98348000D02*
X153782100Y-98348000D01*
X127685000Y-98551200D02*
X127857928Y-98551200D01*
X132182072Y-98551200D02*
X133223000Y-98551200D01*
X133223000Y-98551200D02*
X142082200Y-98551200D01*
X148855079Y-98551200D02*
X149863570Y-98551200D01*
X127685000Y-98754400D02*
X127857928Y-98754400D01*
X132182072Y-98754400D02*
X133223000Y-98754400D01*
X133223000Y-98754400D02*
X136097010Y-98754400D01*
X141808200Y-98754400D02*
X142062200Y-98754400D01*
X148873072Y-98754400D02*
X150066770Y-98754400D01*
X127685000Y-98957600D02*
X127857928Y-98957600D01*
X132182072Y-98957600D02*
X133223000Y-98957600D01*
X133223000Y-98957600D02*
X136097010Y-98957600D01*
X141808200Y-98957600D02*
X142062200Y-98957600D01*
X145588000Y-98957600D02*
X145882000Y-98957600D01*
X148873072Y-98957600D02*
X150269970Y-98957600D01*
X127685000Y-99160800D02*
X127857928Y-99160800D01*
X132182072Y-99160800D02*
X133223000Y-99160800D01*
X133223000Y-99160800D02*
X136142206Y-99160800D01*
X141808200Y-99160800D02*
X142062200Y-99160800D01*
X145588000Y-99160800D02*
X145882000Y-99160800D01*
X148873072Y-99160800D02*
X150473170Y-99160800D01*
X127685000Y-99364000D02*
X127857928Y-99364000D01*
X132182072Y-99364000D02*
X133223000Y-99364000D01*
X133223000Y-99364000D02*
X136102695Y-99364000D01*
X141808200Y-99364000D02*
X142062200Y-99364000D01*
X145608000Y-99364000D02*
X145862000Y-99364000D01*
X148873072Y-99364000D02*
X150676370Y-99364000D01*
X127685000Y-99567200D02*
X127857928Y-99567200D01*
X132182072Y-99567200D02*
X133223000Y-99567200D01*
X133223000Y-99567200D02*
X136093938Y-99567200D01*
X141808200Y-99567200D02*
X142062200Y-99567200D01*
X145608000Y-99567200D02*
X145862000Y-99567200D01*
X148854327Y-99567200D02*
X150879570Y-99567200D01*
X127685000Y-99770400D02*
X127857928Y-99770400D01*
X132182072Y-99770400D02*
X133223000Y-99770400D01*
X133223000Y-99770400D02*
X136093938Y-99770400D01*
X141808200Y-99770400D02*
X142062200Y-99770400D01*
X144468029Y-99770400D02*
X144595399Y-99770400D01*
X145608000Y-99770400D02*
X145862000Y-99770400D01*
X148776867Y-99770400D02*
X151082770Y-99770400D01*
X127685000Y-99973600D02*
X127857928Y-99973600D01*
X132182072Y-99973600D02*
X133223000Y-99973600D01*
X133223000Y-99973600D02*
X136093938Y-99973600D01*
X141735340Y-99973600D02*
X142135060Y-99973600D01*
X144256619Y-99973600D02*
X144798102Y-99973600D01*
X145545650Y-99973600D02*
X145924350Y-99973600D01*
X146671899Y-99973600D02*
X146693218Y-99973600D01*
X148698911Y-99973600D02*
X151401605Y-99973600D01*
X127685000Y-100176800D02*
X127863358Y-100176800D01*
X132172601Y-100176800D02*
X133223000Y-100176800D01*
X133223000Y-100176800D02*
X136093938Y-100176800D01*
X139871982Y-100176800D02*
X146762120Y-100176800D01*
X148735049Y-100176800D02*
X151851170Y-100176800D01*
X127685000Y-100380000D02*
X127918510Y-100380000D01*
X132115275Y-100380000D02*
X133223000Y-100380000D01*
X133223000Y-100380000D02*
X136093938Y-100380000D01*
X139871982Y-100380000D02*
X146829684Y-100380000D01*
X148739860Y-100380000D02*
X151799017Y-100380000D01*
X127685000Y-100583200D02*
X128077246Y-100583200D01*
X131970940Y-100583200D02*
X133223000Y-100583200D01*
X133223000Y-100583200D02*
X136119085Y-100583200D01*
X139864042Y-100583200D02*
X146960483Y-100583200D01*
X148739860Y-100583200D02*
X151791928Y-100583200D01*
X127685000Y-100786400D02*
X131228712Y-100786400D01*
X135476939Y-100786400D02*
X136212611Y-100786400D01*
X139935279Y-100786400D02*
X146961860Y-100786400D01*
X148739860Y-100786400D02*
X151791928Y-100786400D01*
X127685000Y-100989600D02*
X129910865Y-100989600D01*
X135683312Y-100989600D02*
X136443786Y-100989600D01*
X139954000Y-100989600D02*
X142495934Y-100989600D01*
X144122140Y-100989600D02*
X144376140Y-100989600D01*
X146002346Y-100989600D02*
X146099734Y-100989600D01*
X149602931Y-100989600D02*
X151792709Y-100989600D01*
X127685000Y-101192800D02*
X129504904Y-101192800D01*
X135771290Y-101192800D02*
X137902436Y-101192800D01*
X140231492Y-101192800D02*
X142361622Y-101192800D01*
X144122140Y-101192800D02*
X144376140Y-101192800D01*
X149737554Y-101192800D02*
X151797202Y-101192800D01*
X127685000Y-101396000D02*
X129301369Y-101396000D01*
X135791472Y-101396000D02*
X137713630Y-101396000D01*
X140414548Y-101396000D02*
X142313660Y-101396000D01*
X144122140Y-101396000D02*
X144376140Y-101396000D01*
X150911286Y-101396000D02*
X151791928Y-101396000D01*
X127685000Y-101599200D02*
X129098169Y-101599200D01*
X135791472Y-101599200D02*
X137642608Y-101599200D01*
X140492218Y-101599200D02*
X142313660Y-101599200D01*
X144122140Y-101599200D02*
X144376140Y-101599200D01*
X151180983Y-101599200D02*
X151791928Y-101599200D01*
X127685000Y-101802400D02*
X128913021Y-101802400D01*
X135791472Y-101802400D02*
X137626828Y-101802400D01*
X140503172Y-101802400D02*
X142313660Y-101802400D01*
X144122140Y-101802400D02*
X144376140Y-101802400D01*
X151327742Y-101802400D02*
X151793749Y-101802400D01*
X127685000Y-102005600D02*
X128817120Y-102005600D01*
X135791472Y-102005600D02*
X137626828Y-102005600D01*
X140503172Y-102005600D02*
X142370010Y-102005600D01*
X144122140Y-102005600D02*
X144376140Y-102005600D01*
X151402486Y-102005600D02*
X151795387Y-102005600D01*
X127685000Y-102208800D02*
X128779819Y-102208800D01*
X135782624Y-102208800D02*
X137626828Y-102208800D01*
X140503172Y-102208800D02*
X144122140Y-102208800D01*
X144122140Y-102208800D02*
X144396140Y-102208800D01*
X151428847Y-102208800D02*
X151791928Y-102208800D01*
X127685000Y-102412000D02*
X128778000Y-102412000D01*
X135766706Y-102412000D02*
X136690555Y-102412000D01*
X140503172Y-102412000D02*
X142422410Y-102412000D01*
X144122140Y-102412000D02*
X144376140Y-102412000D01*
X151413369Y-102412000D02*
X151791928Y-102412000D01*
X127685000Y-102615200D02*
X128778000Y-102615200D01*
X130302000Y-102615200D02*
X130911600Y-102615200D01*
X135788400Y-102615200D02*
X136411564Y-102615200D01*
X140503172Y-102615200D02*
X142313660Y-102615200D01*
X144122140Y-102615200D02*
X144376140Y-102615200D01*
X151348947Y-102615200D02*
X151794789Y-102615200D01*
X127685000Y-102818400D02*
X128778000Y-102818400D01*
X130302000Y-102818400D02*
X131025750Y-102818400D01*
X135674250Y-102818400D02*
X136208364Y-102818400D01*
X140503172Y-102818400D02*
X142313660Y-102818400D01*
X144122140Y-102818400D02*
X144376140Y-102818400D01*
X151227392Y-102818400D02*
X151793572Y-102818400D01*
X127685000Y-103021600D02*
X128778000Y-103021600D01*
X130302000Y-103021600D02*
X136005164Y-103021600D01*
X140503172Y-103021600D02*
X142313660Y-103021600D01*
X144122140Y-103021600D02*
X144376140Y-103021600D01*
X151000038Y-103021600D02*
X151791928Y-103021600D01*
X127685000Y-103224800D02*
X128778000Y-103224800D01*
X130302000Y-103224800D02*
X130962550Y-103224800D01*
X135737450Y-103224800D02*
X135801964Y-103224800D01*
X140503172Y-103224800D02*
X142339918Y-103224800D01*
X144122140Y-103224800D02*
X144376140Y-103224800D01*
X149758724Y-103224800D02*
X151791928Y-103224800D01*
X127685000Y-103428000D02*
X128778000Y-103428000D01*
X130302000Y-103428000D02*
X130606569Y-103428000D01*
X140503172Y-103428000D02*
X142447480Y-103428000D01*
X144122140Y-103428000D02*
X144376140Y-103428000D01*
X146050801Y-103428000D02*
X146052840Y-103428000D01*
X149646508Y-103428000D02*
X151795830Y-103428000D01*
X127685000Y-103631200D02*
X128778000Y-103631200D01*
X130302000Y-103631200D02*
X130315564Y-103631200D01*
X140503172Y-103631200D02*
X142728438Y-103631200D01*
X144002290Y-103631200D02*
X144122140Y-103631200D01*
X144122140Y-103631200D02*
X144495990Y-103631200D01*
X145769843Y-103631200D02*
X146335588Y-103631200D01*
X149361827Y-103631200D02*
X151791928Y-103631200D01*
X127685000Y-103834400D02*
X128778000Y-103834400D01*
X140503172Y-103834400D02*
X144122140Y-103834400D01*
X144122140Y-103834400D02*
X151791928Y-103834400D01*
X127685000Y-104037600D02*
X128778000Y-104037600D01*
X140503172Y-104037600D02*
X144122140Y-104037600D01*
X144122140Y-104037600D02*
X151791928Y-104037600D01*
X127685000Y-104240800D02*
X128778000Y-104240800D01*
X137300436Y-104240800D02*
X137626828Y-104240800D01*
X140503172Y-104240800D02*
X144122140Y-104240800D01*
X144122140Y-104240800D02*
X151796870Y-104240800D01*
X127685000Y-104444000D02*
X128778000Y-104444000D01*
X137097236Y-104444000D02*
X137626828Y-104444000D01*
X140503172Y-104444000D02*
X144122140Y-104444000D01*
X144122140Y-104444000D02*
X151791928Y-104444000D01*
X127685000Y-104647200D02*
X128778000Y-104647200D01*
X136894036Y-104647200D02*
X137626828Y-104647200D01*
X140503172Y-104647200D02*
X144122140Y-104647200D01*
X144122140Y-104647200D02*
X151791928Y-104647200D01*
X127685000Y-104850400D02*
X128778000Y-104850400D01*
X136672831Y-104850400D02*
X137646813Y-104850400D01*
X140483297Y-104850400D02*
X144122140Y-104850400D01*
X144122140Y-104850400D02*
X145535437Y-104850400D01*
X151008511Y-104850400D02*
X151791928Y-104850400D01*
X127685000Y-105053600D02*
X128778000Y-105053600D01*
X135788400Y-105053600D02*
X137734571Y-105053600D01*
X140402352Y-105053600D02*
X144122140Y-105053600D01*
X144122140Y-105053600D02*
X145328769Y-105053600D01*
X151216230Y-105053600D02*
X151797910Y-105053600D01*
X127685000Y-105256800D02*
X128778000Y-105256800D01*
X135735850Y-105256800D02*
X137939960Y-105256800D01*
X140183939Y-105256800D02*
X144122140Y-105256800D01*
X144122140Y-105256800D02*
X145125569Y-105256800D01*
X151419430Y-105256800D02*
X151791928Y-105256800D01*
X127685000Y-105460000D02*
X128778000Y-105460000D01*
X133203000Y-105460000D02*
X144122140Y-105460000D01*
X144122140Y-105460000D02*
X144922369Y-105460000D01*
X151622630Y-105460000D02*
X151791928Y-105460000D01*
X127685000Y-105663200D02*
X128778000Y-105663200D01*
X135675850Y-105663200D02*
X137813444Y-105663200D01*
X138938000Y-105663200D02*
X139192000Y-105663200D01*
X140316556Y-105663200D02*
X144122140Y-105663200D01*
X144122140Y-105663200D02*
X144759216Y-105663200D01*
X127685000Y-105866400D02*
X128778000Y-105866400D01*
X135788400Y-105866400D02*
X137678388Y-105866400D01*
X138938000Y-105866400D02*
X139192000Y-105866400D01*
X140451611Y-105866400D02*
X143670418Y-105866400D01*
X144631440Y-105866400D02*
X144676049Y-105866400D01*
X127685000Y-106069600D02*
X128778000Y-106069600D01*
X135766389Y-106069600D02*
X137629900Y-106069600D01*
X138938000Y-106069600D02*
X139192000Y-106069600D01*
X140500100Y-106069600D02*
X143329935Y-106069600D01*
X127685000Y-106272800D02*
X128778000Y-106272800D01*
X135786530Y-106272800D02*
X137629900Y-106272800D01*
X138938000Y-106272800D02*
X139192000Y-106272800D01*
X140500100Y-106272800D02*
X143282405Y-106272800D01*
X127685000Y-106476000D02*
X128778000Y-106476000D01*
X135791472Y-106476000D02*
X137629900Y-106476000D01*
X138938000Y-106476000D02*
X139192000Y-106476000D01*
X140500100Y-106476000D02*
X142973150Y-106476000D01*
X143126395Y-106476000D02*
X143485605Y-106476000D01*
X127685000Y-106679200D02*
X128778000Y-106679200D01*
X135791472Y-106679200D02*
X137629900Y-106679200D01*
X138938000Y-106679200D02*
X139192000Y-106679200D01*
X140500100Y-106679200D02*
X142759722Y-106679200D01*
X143329595Y-106679200D02*
X143688805Y-106679200D01*
X127685000Y-106882400D02*
X128778000Y-106882400D01*
X135791472Y-106882400D02*
X137629900Y-106882400D01*
X138938000Y-106882400D02*
X139192000Y-106882400D01*
X140500100Y-106882400D02*
X142682608Y-106882400D01*
X143532795Y-106882400D02*
X143892005Y-106882400D01*
X127685000Y-107085600D02*
X128778000Y-107085600D01*
X135791472Y-107085600D02*
X137629900Y-107085600D01*
X138938000Y-107085600D02*
X139192000Y-107085600D01*
X140500100Y-107085600D02*
X142631236Y-107085600D01*
X143735995Y-107085600D02*
X144095205Y-107085600D01*
X127685000Y-107288800D02*
X128778000Y-107288800D01*
X130302000Y-107288800D02*
X130415564Y-107288800D01*
X135771281Y-107288800D02*
X137629900Y-107288800D01*
X138938000Y-107288800D02*
X139192000Y-107288800D01*
X140500100Y-107288800D02*
X142620168Y-107288800D01*
X143939195Y-107288800D02*
X144326690Y-107288800D01*
X127685000Y-107492000D02*
X128778000Y-107492000D01*
X130302000Y-107492000D02*
X130654174Y-107492000D01*
X135782619Y-107492000D02*
X138938000Y-107492000D01*
X138938000Y-107492000D02*
X140500100Y-107492000D01*
X140500100Y-107492000D02*
X142630812Y-107492000D01*
X143788395Y-107492000D02*
X143965395Y-107492000D01*
X143965395Y-107492000D02*
X144175889Y-107492000D01*
X127685000Y-107695200D02*
X128778000Y-107695200D01*
X130302000Y-107695200D02*
X130911600Y-107695200D01*
X135788400Y-107695200D02*
X138938000Y-107695200D01*
X138938000Y-107695200D02*
X140500100Y-107695200D01*
X140500100Y-107695200D02*
X142663197Y-107695200D01*
X143585195Y-107695200D02*
X143944405Y-107695200D01*
X127685000Y-107898400D02*
X128778000Y-107898400D01*
X130302000Y-107898400D02*
X137629900Y-107898400D01*
X138938000Y-107898400D02*
X139192000Y-107898400D01*
X140500100Y-107898400D02*
X142734683Y-107898400D01*
X143381995Y-107898400D02*
X143741205Y-107898400D01*
X127685000Y-108101600D02*
X128778000Y-108101600D01*
X130302000Y-108101600D02*
X137629900Y-108101600D01*
X138938000Y-108101600D02*
X139192000Y-108101600D01*
X140500100Y-108101600D02*
X142831610Y-108101600D01*
X143178795Y-108101600D02*
X143538005Y-108101600D01*
X127685000Y-108304800D02*
X128778000Y-108304800D01*
X130302000Y-108304800D02*
X130619101Y-108304800D01*
X135788400Y-108304800D02*
X137629900Y-108304800D01*
X138938000Y-108304800D02*
X139192000Y-108304800D01*
X140500100Y-108304800D02*
X141033101Y-108304800D01*
X141414242Y-108304800D02*
X143334805Y-108304800D01*
X127685000Y-108508000D02*
X128778000Y-108508000D01*
X135778642Y-108508000D02*
X137629900Y-108508000D01*
X138938000Y-108508000D02*
X139192000Y-108508000D01*
X140500100Y-108508000D02*
X140615055Y-108508000D01*
X141834313Y-108508000D02*
X143312883Y-108508000D01*
X127685000Y-108711200D02*
X128778000Y-108711200D01*
X135777044Y-108711200D02*
X137629900Y-108711200D01*
X138938000Y-108711200D02*
X139192000Y-108711200D01*
X142008221Y-108711200D02*
X143134725Y-108711200D01*
X127685000Y-108914400D02*
X128778000Y-108914400D01*
X135791472Y-108914400D02*
X137629900Y-108914400D01*
X138938000Y-108914400D02*
X139192000Y-108914400D01*
X142109088Y-108914400D02*
X142941944Y-108914400D01*
X127685000Y-109117600D02*
X128778000Y-109117600D01*
X135791472Y-109117600D02*
X137629900Y-109117600D01*
X138938000Y-109117600D02*
X139192000Y-109117600D01*
X142156632Y-109117600D02*
X142802899Y-109117600D01*
X127685000Y-109320800D02*
X128778000Y-109320800D01*
X135791472Y-109320800D02*
X137665101Y-109320800D01*
X138938000Y-109320800D02*
X139192000Y-109320800D01*
X142156074Y-109320800D02*
X142715807Y-109320800D01*
X127685000Y-109524000D02*
X128778000Y-109524000D01*
X135791472Y-109524000D02*
X137781364Y-109524000D01*
X138938000Y-109524000D02*
X139192000Y-109524000D01*
X142111873Y-109524000D02*
X142657242Y-109524000D01*
X127685000Y-109727200D02*
X128778000Y-109727200D01*
X135780015Y-109727200D02*
X138115336Y-109727200D01*
X138796560Y-109727200D02*
X138938000Y-109727200D01*
X138938000Y-109727200D02*
X139333440Y-109727200D01*
X142010145Y-109727200D02*
X142622570Y-109727200D01*
X127685000Y-109930400D02*
X128778000Y-109930400D01*
X135770366Y-109930400D02*
X138938000Y-109930400D01*
X138938000Y-109930400D02*
X139165786Y-109930400D01*
X141833480Y-109930400D02*
X142619733Y-109930400D01*
X127685000Y-110133600D02*
X128778000Y-110133600D01*
X130302000Y-110133600D02*
X130612210Y-110133600D01*
X135788400Y-110133600D02*
X138938000Y-110133600D01*
X138938000Y-110133600D02*
X139069813Y-110133600D01*
X141596448Y-110133600D02*
X142646612Y-110133600D01*
X127685000Y-110336800D02*
X128778000Y-110336800D01*
X130302000Y-110336800D02*
X131044150Y-110336800D01*
X135655850Y-110336800D02*
X138938000Y-110336800D01*
X138938000Y-110336800D02*
X139046928Y-110336800D01*
X141623072Y-110336800D02*
X142696585Y-110336800D01*
X127685000Y-110540000D02*
X128778000Y-110540000D01*
X130302000Y-110540000D02*
X138938000Y-110540000D01*
X138938000Y-110540000D02*
X139046928Y-110540000D01*
X141623072Y-110540000D02*
X142777037Y-110540000D01*
X127685000Y-110743200D02*
X128778000Y-110743200D01*
X130302000Y-110743200D02*
X130944150Y-110743200D01*
X135755850Y-110743200D02*
X138938000Y-110743200D01*
X138938000Y-110743200D02*
X139046928Y-110743200D01*
X141623072Y-110743200D02*
X142904265Y-110743200D01*
X127685000Y-110946400D02*
X128778000Y-110946400D01*
X135788400Y-110946400D02*
X138938000Y-110946400D01*
X138938000Y-110946400D02*
X139046928Y-110946400D01*
X141623072Y-110946400D02*
X143080253Y-110946400D01*
X127685000Y-111149600D02*
X128780412Y-111149600D01*
X135735841Y-111149600D02*
X136141464Y-111149600D01*
X137210040Y-111149600D02*
X137572240Y-111149600D01*
X138640815Y-111149600D02*
X138938000Y-111149600D01*
X138938000Y-111149600D02*
X139046928Y-111149600D01*
X141623072Y-111149600D02*
X143264809Y-111149600D01*
X127685000Y-111352800D02*
X128816463Y-111352800D01*
X135595026Y-111352800D02*
X135945596Y-111352800D01*
X137264140Y-111352800D02*
X137518140Y-111352800D01*
X138836683Y-111352800D02*
X138938000Y-111352800D01*
X138938000Y-111352800D02*
X139046928Y-111352800D01*
X141623072Y-111352800D02*
X143030975Y-111352800D01*
X127685000Y-111556000D02*
X128203489Y-111556000D01*
X134858630Y-111556000D02*
X135867924Y-111556000D01*
X137264140Y-111556000D02*
X137518140Y-111556000D01*
X138914355Y-111556000D02*
X138938000Y-111556000D01*
X138938000Y-111556000D02*
X139046928Y-111556000D01*
X141623072Y-111556000D02*
X142872377Y-111556000D01*
X127685000Y-111759200D02*
X127973558Y-111759200D01*
X135033294Y-111759200D02*
X135855710Y-111759200D01*
X137264140Y-111759200D02*
X137518140Y-111759200D01*
X138926570Y-111759200D02*
X138938000Y-111759200D01*
X138938000Y-111759200D02*
X139046928Y-111759200D01*
X141623072Y-111759200D02*
X142759353Y-111759200D01*
X127685000Y-111962400D02*
X127880275Y-111962400D01*
X135120209Y-111962400D02*
X137264140Y-111962400D01*
X137264140Y-111962400D02*
X138926570Y-111962400D01*
X138926570Y-111962400D02*
X138938000Y-111962400D01*
X138938000Y-111962400D02*
X139075428Y-111962400D01*
X141599336Y-111962400D02*
X142678838Y-111962400D01*
X127685000Y-112165600D02*
X127857928Y-112165600D01*
X135718460Y-112165600D02*
X137264140Y-112165600D01*
X137264140Y-112165600D02*
X138926570Y-112165600D01*
X138926570Y-112165600D02*
X138938000Y-112165600D01*
X138938000Y-112165600D02*
X139172697Y-112165600D01*
X141499116Y-112165600D02*
X142635646Y-112165600D01*
X127685000Y-112368800D02*
X127857928Y-112368800D01*
X138926570Y-112368800D02*
X138938000Y-112368800D01*
X138938000Y-112368800D02*
X139420617Y-112368800D01*
X141262708Y-112368800D02*
X142621152Y-112368800D01*
X127685000Y-112572000D02*
X127857928Y-112572000D01*
X138920721Y-112572000D02*
X138938000Y-112572000D01*
X138938000Y-112572000D02*
X139215407Y-112572000D01*
X141462613Y-112572000D02*
X142627965Y-112572000D01*
X127685000Y-112775200D02*
X127857928Y-112775200D01*
X138856635Y-112775200D02*
X138938000Y-112775200D01*
X138938000Y-112775200D02*
X139091151Y-112775200D01*
X141578187Y-112775200D02*
X142665259Y-112775200D01*
X127685000Y-112978400D02*
X127857928Y-112978400D01*
X138688707Y-112978400D02*
X138938000Y-112978400D01*
X138938000Y-112978400D02*
X139049281Y-112978400D01*
X141621722Y-112978400D02*
X142736811Y-112978400D01*
X127685000Y-113181600D02*
X127857928Y-113181600D01*
X141623072Y-113181600D02*
X142838789Y-113181600D01*
X127685000Y-113384800D02*
X127857928Y-113384800D01*
X141623072Y-113384800D02*
X142982139Y-113384800D01*
X127685000Y-113588000D02*
X127857928Y-113588000D01*
X141623072Y-113588000D02*
X143191047Y-113588000D01*
X127685000Y-113791200D02*
X127857928Y-113791200D01*
X141623072Y-113791200D02*
X143267904Y-113791200D01*
X127685000Y-113994400D02*
X127857928Y-113994400D01*
X141623072Y-113994400D02*
X143319361Y-113994400D01*
X127685000Y-114197600D02*
X127857928Y-114197600D01*
X141623072Y-114197600D02*
X143437674Y-114197600D01*
X127685000Y-114400800D02*
X127857928Y-114400800D01*
X141623072Y-114400800D02*
X143623564Y-114400800D01*
X127685000Y-114604000D02*
X127857928Y-114604000D01*
X141607617Y-114604000D02*
X143826764Y-114604000D01*
X127685000Y-114807200D02*
X127880111Y-114807200D01*
X141537299Y-114807200D02*
X144029964Y-114807200D01*
X163168072Y-103867000D02*
X163293528Y-103867000D01*
X163168072Y-104070200D02*
X163293528Y-104070200D01*
X163154828Y-104273400D02*
X163293528Y-104273400D01*
X163168072Y-104476600D02*
X163293528Y-104476600D01*
X163168072Y-104679800D02*
X163311396Y-104679800D01*
X163168072Y-104883000D02*
X163307792Y-104883000D01*
X163153013Y-105086200D02*
X163293528Y-105086200D01*
X163168072Y-105289400D02*
X163293528Y-105289400D01*
X163168072Y-105492600D02*
X163293528Y-105492600D01*
X163168072Y-105695800D02*
X163293528Y-105695800D01*
X163151198Y-105899000D02*
X163301867Y-105899000D01*
X163168072Y-106102200D02*
X163312159Y-106102200D01*
X163168072Y-106305400D02*
X163293528Y-106305400D01*
X171091414Y-106305400D02*
X171400000Y-106305400D01*
X163168072Y-106508600D02*
X163293528Y-106508600D01*
X171098970Y-106508600D02*
X171400000Y-106508600D01*
X163149384Y-106711800D02*
X163293528Y-106711800D01*
X171113037Y-106711800D02*
X171400000Y-106711800D01*
X163072047Y-106915000D02*
X163293528Y-106915000D01*
X171085191Y-106915000D02*
X171400000Y-106915000D01*
X162861482Y-107118200D02*
X163299364Y-107118200D01*
X171008124Y-107118200D02*
X171400000Y-107118200D01*
X161197472Y-107321400D02*
X163316527Y-107321400D01*
X170861937Y-107321400D02*
X171400000Y-107321400D01*
X161197472Y-107524600D02*
X163293528Y-107524600D01*
X170587384Y-107524600D02*
X171400000Y-107524600D01*
X161197472Y-107727800D02*
X163293528Y-107727800D01*
X170453911Y-107727800D02*
X171400000Y-107727800D01*
X161197472Y-107931000D02*
X163293528Y-107931000D01*
X170478746Y-107931000D02*
X171400000Y-107931000D01*
X161197472Y-108134200D02*
X163293528Y-108134200D01*
X170461733Y-108134200D02*
X171400000Y-108134200D01*
X161197472Y-108337400D02*
X163296861Y-108337400D01*
X170395741Y-108337400D02*
X171400000Y-108337400D01*
X161197472Y-108540600D02*
X163325700Y-108540600D01*
X170272313Y-108540600D02*
X171400000Y-108540600D01*
X161167233Y-108743800D02*
X163293528Y-108743800D01*
X170038692Y-108743800D02*
X171400000Y-108743800D01*
X161055418Y-108947000D02*
X163293528Y-108947000D01*
X169808525Y-108947000D02*
X171400000Y-108947000D01*
X160773085Y-109150200D02*
X163293528Y-109150200D01*
X169844455Y-109150200D02*
X171400000Y-109150200D01*
X159261682Y-109353400D02*
X163293528Y-109353400D01*
X169838275Y-109353400D02*
X171400000Y-109353400D01*
X159328632Y-109556600D02*
X163294358Y-109556600D01*
X169783359Y-109556600D02*
X171400000Y-109556600D01*
X159552498Y-109759800D02*
X163336411Y-109759800D01*
X169673148Y-109759800D02*
X171400000Y-109759800D01*
X159644388Y-109963000D02*
X163296600Y-109963000D01*
X168173400Y-109963000D02*
X168341157Y-109963000D01*
X169483740Y-109963000D02*
X171400000Y-109963000D01*
X159668072Y-110166200D02*
X163358550Y-110166200D01*
X168111450Y-110166200D02*
X171400000Y-110166200D01*
X159668072Y-110369400D02*
X171400000Y-110369400D01*
X159668072Y-110572600D02*
X163399750Y-110572600D01*
X165608000Y-110572600D02*
X165862000Y-110572600D01*
X168070250Y-110572600D02*
X171400000Y-110572600D01*
X159668072Y-110775800D02*
X163296600Y-110775800D01*
X165608000Y-110775800D02*
X165862000Y-110775800D01*
X168173400Y-110775800D02*
X171400000Y-110775800D01*
X159651908Y-110979000D02*
X163320482Y-110979000D01*
X165608000Y-110979000D02*
X165862000Y-110979000D01*
X168149519Y-110979000D02*
X171400000Y-110979000D01*
X159580051Y-111182200D02*
X163425676Y-111182200D01*
X165608000Y-111182200D02*
X165862000Y-111182200D01*
X168044325Y-111182200D02*
X171400000Y-111182200D01*
X159388369Y-111385400D02*
X163694237Y-111385400D01*
X165495250Y-111385400D02*
X165608000Y-111385400D01*
X165608000Y-111385400D02*
X165974750Y-111385400D01*
X170613485Y-111385400D02*
X171400000Y-111385400D01*
X159319000Y-111588600D02*
X165608000Y-111588600D01*
X165608000Y-111588600D02*
X167078544Y-111588600D01*
X171056950Y-111588600D02*
X171400000Y-111588600D01*
X159319000Y-111791800D02*
X165608000Y-111791800D01*
X165608000Y-111791800D02*
X166950929Y-111791800D01*
X171179561Y-111791800D02*
X171400000Y-111791800D01*
X159319000Y-111995000D02*
X160614015Y-111995000D01*
X162299477Y-111995000D02*
X162812979Y-111995000D01*
X163424250Y-111995000D02*
X163895750Y-111995000D01*
X164507020Y-111995000D02*
X165608000Y-111995000D01*
X165608000Y-111995000D02*
X166906472Y-111995000D01*
X171225040Y-111995000D02*
X171400000Y-111995000D01*
X163533000Y-112198200D02*
X163787000Y-112198200D01*
X164768597Y-112198200D02*
X165608000Y-112198200D01*
X165608000Y-112198200D02*
X166902928Y-112198200D01*
X171227072Y-112198200D02*
X171400000Y-112198200D01*
X163533000Y-112401400D02*
X163787000Y-112401400D01*
X164871914Y-112401400D02*
X165608000Y-112401400D01*
X165608000Y-112401400D02*
X166902928Y-112401400D01*
X171227072Y-112401400D02*
X171400000Y-112401400D01*
X163533000Y-112604600D02*
X163787000Y-112604600D01*
X164895000Y-112604600D02*
X165608000Y-112604600D01*
X165608000Y-112604600D02*
X166902928Y-112604600D01*
X171227072Y-112604600D02*
X171400000Y-112604600D01*
X163533000Y-112807800D02*
X163787000Y-112807800D01*
X164831450Y-112807800D02*
X164895000Y-112807800D01*
X164895000Y-112807800D02*
X165608000Y-112807800D01*
X165608000Y-112807800D02*
X166902928Y-112807800D01*
X171227072Y-112807800D02*
X171400000Y-112807800D01*
X163513000Y-113011000D02*
X164895000Y-113011000D01*
X164895000Y-113011000D02*
X165608000Y-113011000D01*
X165608000Y-113011000D02*
X166902928Y-113011000D01*
X171227072Y-113011000D02*
X171400000Y-113011000D01*
X163533000Y-113214200D02*
X163787000Y-113214200D01*
X164793450Y-113214200D02*
X164895000Y-113214200D01*
X164895000Y-113214200D02*
X165608000Y-113214200D01*
X165608000Y-113214200D02*
X166902928Y-113214200D01*
X171227072Y-113214200D02*
X171400000Y-113214200D01*
X153072317Y-113417400D02*
X153435164Y-113417400D01*
X163533000Y-113417400D02*
X163787000Y-113417400D01*
X164895000Y-113417400D02*
X165608000Y-113417400D01*
X165608000Y-113417400D02*
X166902928Y-113417400D01*
X171227072Y-113417400D02*
X171400000Y-113417400D01*
X153240314Y-113620600D02*
X153638364Y-113620600D01*
X163533000Y-113620600D02*
X163787000Y-113620600D01*
X164879474Y-113620600D02*
X164895000Y-113620600D01*
X164895000Y-113620600D02*
X165608000Y-113620600D01*
X165608000Y-113620600D02*
X166902928Y-113620600D01*
X171227072Y-113620600D02*
X171400000Y-113620600D01*
X153307310Y-113823800D02*
X153912384Y-113823800D01*
X163533000Y-113823800D02*
X163787000Y-113823800D01*
X164793989Y-113823800D02*
X164895000Y-113823800D01*
X164895000Y-113823800D02*
X165608000Y-113823800D01*
X165608000Y-113823800D02*
X166902928Y-113823800D01*
X171227072Y-113823800D02*
X171400000Y-113823800D01*
X153302250Y-114027000D02*
X155816654Y-114027000D01*
X157257659Y-114027000D02*
X157716654Y-114027000D01*
X159157659Y-114027000D02*
X160536016Y-114027000D01*
X162378190Y-114027000D02*
X162735674Y-114027000D01*
X163462250Y-114027000D02*
X163857750Y-114027000D01*
X164584327Y-114027000D02*
X164895000Y-114027000D01*
X164895000Y-114027000D02*
X165608000Y-114027000D01*
X165608000Y-114027000D02*
X166902928Y-114027000D01*
X171227072Y-114027000D02*
X171400000Y-114027000D01*
X151933000Y-114230200D02*
X164895000Y-114230200D01*
X164895000Y-114230200D02*
X165608000Y-114230200D01*
X165608000Y-114230200D02*
X166902928Y-114230200D01*
X171227072Y-114230200D02*
X171400000Y-114230200D01*
X151953000Y-114433400D02*
X152207000Y-114433400D01*
X153162650Y-114433400D02*
X164895000Y-114433400D01*
X164895000Y-114433400D02*
X165608000Y-114433400D01*
X165608000Y-114433400D02*
X166902928Y-114433400D01*
X171227072Y-114433400D02*
X171400000Y-114433400D01*
X153315000Y-114636600D02*
X164895000Y-114636600D01*
X164895000Y-114636600D02*
X165608000Y-114636600D01*
X165608000Y-114636600D02*
X166909154Y-114636600D01*
X171216211Y-114636600D02*
X171400000Y-114636600D01*
X153294660Y-114839800D02*
X164895000Y-114839800D01*
X164895000Y-114839800D02*
X165608000Y-114839800D01*
X165608000Y-114839800D02*
X166968586Y-114839800D01*
X171155869Y-114839800D02*
X171400000Y-114839800D01*
X160308877Y-105910464D02*
X160291928Y-106030000D01*
X160291928Y-106316828D01*
X160000600Y-106316828D01*
X159897557Y-106325203D01*
X159871288Y-106333417D01*
X159755000Y-106316928D01*
X159205000Y-106316928D01*
X159101957Y-106325303D01*
X159074535Y-106333877D01*
X158955000Y-106316928D01*
X158405000Y-106316928D01*
X158301957Y-106325303D01*
X158274535Y-106333877D01*
X158155000Y-106316928D01*
X157605000Y-106316928D01*
X157501957Y-106325303D01*
X157474535Y-106333877D01*
X157355000Y-106316928D01*
X156805000Y-106316928D01*
X156701957Y-106325303D01*
X156674535Y-106333877D01*
X156555000Y-106316928D01*
X156005000Y-106316928D01*
X155901957Y-106325303D01*
X155874535Y-106333877D01*
X155834248Y-106328165D01*
X155871837Y-106162718D01*
X155874760Y-105953346D01*
X155839156Y-105773529D01*
X155769302Y-105604052D01*
X155667861Y-105451371D01*
X155627691Y-105410919D01*
X155651002Y-105388721D01*
X155756667Y-105238931D01*
X155831225Y-105071471D01*
X155871837Y-104892718D01*
X155874760Y-104683346D01*
X155839156Y-104503529D01*
X155769302Y-104334052D01*
X155667861Y-104181371D01*
X155538696Y-104051301D01*
X155386727Y-103948796D01*
X155217742Y-103877761D01*
X155038178Y-103840902D01*
X154854874Y-103839623D01*
X154674813Y-103873971D01*
X154668072Y-103876694D01*
X154668072Y-103630000D01*
X154659697Y-103526957D01*
X154651122Y-103499535D01*
X154668072Y-103380000D01*
X154668072Y-102830000D01*
X154659697Y-102726957D01*
X154651122Y-102699535D01*
X154668072Y-102580000D01*
X154668072Y-102030000D01*
X154659697Y-101926957D01*
X154651122Y-101899535D01*
X154668072Y-101780000D01*
X154668072Y-101230000D01*
X154659697Y-101126957D01*
X154651122Y-101099535D01*
X154668072Y-100980000D01*
X154668072Y-100693072D01*
X154955000Y-100693072D01*
X155058043Y-100684697D01*
X155085464Y-100676122D01*
X155205000Y-100693072D01*
X155755000Y-100693072D01*
X155858043Y-100684697D01*
X155885464Y-100676122D01*
X156005000Y-100693072D01*
X156555000Y-100693072D01*
X156658043Y-100684697D01*
X156680498Y-100677675D01*
X156742458Y-100690000D01*
X156794250Y-100690000D01*
X156899997Y-100584252D01*
X156978434Y-100532326D01*
X157082369Y-100410000D01*
X157127674Y-100478434D01*
X157264208Y-100594442D01*
X157275081Y-100599331D01*
X157365750Y-100690000D01*
X157417542Y-100690000D01*
X157486541Y-100676275D01*
X157605000Y-100693072D01*
X158155000Y-100693072D01*
X158258043Y-100684697D01*
X158280498Y-100677675D01*
X158342458Y-100690000D01*
X158394250Y-100690000D01*
X158499997Y-100584252D01*
X158578434Y-100532326D01*
X158682369Y-100410000D01*
X158727674Y-100478434D01*
X158864208Y-100594442D01*
X158875081Y-100599331D01*
X158965750Y-100690000D01*
X159017542Y-100690000D01*
X159086541Y-100676275D01*
X159205000Y-100693072D01*
X159755000Y-100693072D01*
X159858043Y-100684697D01*
X159885464Y-100676122D01*
X160005000Y-100693072D01*
X160291928Y-100693072D01*
X160291928Y-100980000D01*
X160300303Y-101083043D01*
X160308877Y-101110464D01*
X160291928Y-101230000D01*
X160291928Y-101780000D01*
X160300303Y-101883043D01*
X160308877Y-101910464D01*
X160291928Y-102030000D01*
X160291928Y-102580000D01*
X160300303Y-102683043D01*
X160308877Y-102710464D01*
X160291928Y-102830000D01*
X160291928Y-103380000D01*
X160300303Y-103483043D01*
X160308877Y-103510464D01*
X160291928Y-103630000D01*
X160291928Y-104180000D01*
X160300303Y-104283043D01*
X160308877Y-104310464D01*
X160291928Y-104430000D01*
X160291928Y-104980000D01*
X160300303Y-105083043D01*
X160308877Y-105110464D01*
X160291928Y-105230000D01*
X160291928Y-105780000D01*
X160300303Y-105883043D01*
X160308877Y-105910464D01*
X157082369Y-100410000D02*
X157082369Y-100410000D01*
X158682369Y-100410000D02*
X158682369Y-100410000D01*
X156871050Y-100613200D02*
X157288950Y-100613200D01*
X158471050Y-100613200D02*
X158888950Y-100613200D01*
X154668072Y-100816400D02*
X160291928Y-100816400D01*
X154662457Y-101019600D02*
X160295147Y-101019600D01*
X154667486Y-101222800D02*
X160292948Y-101222800D01*
X154668072Y-101426000D02*
X160291928Y-101426000D01*
X154668072Y-101629200D02*
X160291928Y-101629200D01*
X154660642Y-101832400D02*
X160296187Y-101832400D01*
X154668072Y-102035600D02*
X160291928Y-102035600D01*
X154668072Y-102238800D02*
X160291928Y-102238800D01*
X154668072Y-102442000D02*
X160291928Y-102442000D01*
X154658827Y-102645200D02*
X160297228Y-102645200D01*
X154668072Y-102848400D02*
X160291928Y-102848400D01*
X154668072Y-103051600D02*
X160291928Y-103051600D01*
X154668072Y-103254800D02*
X160291928Y-103254800D01*
X154657012Y-103458000D02*
X160298268Y-103458000D01*
X154668072Y-103661200D02*
X160291928Y-103661200D01*
X154668072Y-103864400D02*
X154724986Y-103864400D01*
X155152651Y-103864400D02*
X160291928Y-103864400D01*
X155554881Y-104067600D02*
X160291928Y-104067600D01*
X155727277Y-104270800D02*
X160299308Y-104270800D01*
X155826984Y-104474000D02*
X160291928Y-104474000D01*
X155873543Y-104677200D02*
X160291928Y-104677200D01*
X155872009Y-104880400D02*
X160291928Y-104880400D01*
X155825825Y-105083600D02*
X160300478Y-105083600D01*
X155722900Y-105286800D02*
X160291928Y-105286800D01*
X155693526Y-105490000D02*
X160291928Y-105490000D01*
X155806046Y-105693200D02*
X160291928Y-105693200D01*
X155863484Y-105896400D02*
X160304480Y-105896400D01*
X155872719Y-106099600D02*
X160291928Y-106099600D01*
X155840011Y-106302800D02*
X160291928Y-106302800D01*
X127685000Y-90220000D02*
X162510691Y-90220000D01*
X127685000Y-90423200D02*
X129006930Y-90423200D01*
X131908772Y-90423200D02*
X136056930Y-90423200D01*
X138958772Y-90423200D02*
X162397836Y-90423200D01*
X127685000Y-90626400D02*
X128694773Y-90626400D01*
X132209794Y-90626400D02*
X135744773Y-90626400D01*
X139259794Y-90626400D02*
X160570618Y-90626400D01*
X161105650Y-90626400D02*
X161474350Y-90626400D01*
X162009381Y-90626400D02*
X162366428Y-90626400D01*
X127685000Y-90829600D02*
X128577877Y-90829600D01*
X132318941Y-90829600D02*
X135627877Y-90829600D01*
X139368941Y-90829600D02*
X160372058Y-90829600D01*
X161163000Y-90829600D02*
X161417000Y-90829600D01*
X162207941Y-90829600D02*
X162366428Y-90829600D01*
X127685000Y-91032800D02*
X128541928Y-91032800D01*
X132358072Y-91032800D02*
X135591928Y-91032800D01*
X139408072Y-91032800D02*
X160292861Y-91032800D01*
X161163000Y-91032800D02*
X161417000Y-91032800D01*
X162287138Y-91032800D02*
X162366428Y-91032800D01*
X127685000Y-91236000D02*
X128541928Y-91236000D01*
X132358072Y-91236000D02*
X132931284Y-91236000D01*
X133766286Y-91236000D02*
X135591928Y-91236000D01*
X139408072Y-91236000D02*
X142620623Y-91236000D01*
X148962762Y-91236000D02*
X152018623Y-91236000D01*
X158360762Y-91236000D02*
X160280000Y-91236000D01*
X161163000Y-91236000D02*
X161417000Y-91236000D01*
X162300000Y-91236000D02*
X162366428Y-91236000D01*
X127685000Y-91439200D02*
X128541928Y-91439200D01*
X132358072Y-91439200D02*
X132663242Y-91439200D01*
X134035983Y-91439200D02*
X135591928Y-91439200D01*
X139408072Y-91439200D02*
X142475764Y-91439200D01*
X149122630Y-91439200D02*
X151873764Y-91439200D01*
X158520630Y-91439200D02*
X160280000Y-91439200D01*
X161163000Y-91439200D02*
X161417000Y-91439200D01*
X162300000Y-91439200D02*
X162366428Y-91439200D01*
X127685000Y-91642400D02*
X128541928Y-91642400D01*
X132358072Y-91642400D02*
X132518412Y-91642400D01*
X134182742Y-91642400D02*
X135591928Y-91642400D01*
X139408072Y-91642400D02*
X142418035Y-91642400D01*
X149178086Y-91642400D02*
X151816035Y-91642400D01*
X158576086Y-91642400D02*
X161163000Y-91642400D01*
X161163000Y-91642400D02*
X162300000Y-91642400D01*
X162300000Y-91642400D02*
X162366428Y-91642400D01*
X127685000Y-91845600D02*
X128541928Y-91845600D01*
X132358072Y-91845600D02*
X132443116Y-91845600D01*
X134257485Y-91845600D02*
X135591928Y-91845600D01*
X139408072Y-91845600D02*
X142408378Y-91845600D01*
X149183622Y-91845600D02*
X151806378Y-91845600D01*
X158581622Y-91845600D02*
X161163000Y-91845600D01*
X161163000Y-91845600D02*
X162300000Y-91845600D01*
X162300000Y-91845600D02*
X162366428Y-91845600D01*
X127685000Y-92048800D02*
X128541928Y-92048800D01*
X132358072Y-92048800D02*
X132415514Y-92048800D01*
X134401430Y-92048800D02*
X135591928Y-92048800D01*
X139408072Y-92048800D02*
X142408378Y-92048800D01*
X149183622Y-92048800D02*
X151806378Y-92048800D01*
X158581622Y-92048800D02*
X160280000Y-92048800D01*
X162300000Y-92048800D02*
X162366428Y-92048800D01*
X127685000Y-92252000D02*
X128541928Y-92252000D01*
X132358072Y-92252000D02*
X132432113Y-92252000D01*
X134604630Y-92252000D02*
X135591928Y-92252000D01*
X139408072Y-92252000D02*
X142408378Y-92252000D01*
X149183622Y-92252000D02*
X151806378Y-92252000D01*
X158581622Y-92252000D02*
X160280000Y-92252000D01*
X162300000Y-92252000D02*
X162366428Y-92252000D01*
X127685000Y-92455200D02*
X128541928Y-92455200D01*
X132358072Y-92455200D02*
X132495172Y-92455200D01*
X134807830Y-92455200D02*
X135591928Y-92455200D01*
X139408072Y-92455200D02*
X142408378Y-92455200D01*
X149183622Y-92455200D02*
X151806378Y-92455200D01*
X158581622Y-92455200D02*
X160286497Y-92455200D01*
X162293504Y-92455200D02*
X162366428Y-92455200D01*
X127685000Y-92658400D02*
X128541928Y-92658400D01*
X132358072Y-92658400D02*
X132613916Y-92658400D01*
X135011030Y-92658400D02*
X135591928Y-92658400D01*
X139408072Y-92658400D02*
X142408378Y-92658400D01*
X149183622Y-92658400D02*
X151806378Y-92658400D01*
X162228718Y-92658400D02*
X162366428Y-92658400D01*
X127685000Y-92861600D02*
X128541928Y-92861600D01*
X132358072Y-92861600D02*
X132843889Y-92861600D01*
X135200663Y-92861600D02*
X135591928Y-92861600D01*
X139408072Y-92861600D02*
X142408378Y-92861600D01*
X149183622Y-92861600D02*
X151806378Y-92861600D01*
X162264879Y-92861600D02*
X162366428Y-92861600D01*
X127685000Y-93064800D02*
X128541928Y-93064800D01*
X132358072Y-93064800D02*
X133262170Y-93064800D01*
X135314124Y-93064800D02*
X135591928Y-93064800D01*
X139408072Y-93064800D02*
X142408378Y-93064800D01*
X149183622Y-93064800D02*
X151806378Y-93064800D01*
X127685000Y-93268000D02*
X128541928Y-93268000D01*
X132358072Y-93268000D02*
X133465370Y-93268000D01*
X135356410Y-93268000D02*
X135591928Y-93268000D01*
X139408072Y-93268000D02*
X142408378Y-93268000D01*
X149183622Y-93268000D02*
X151806378Y-93268000D01*
X127685000Y-93471200D02*
X128541928Y-93471200D01*
X132358072Y-93471200D02*
X132757901Y-93471200D01*
X133088850Y-93471200D02*
X133611150Y-93471200D01*
X135362000Y-93471200D02*
X135591928Y-93471200D01*
X139408072Y-93471200D02*
X142408378Y-93471200D01*
X149183622Y-93471200D02*
X151806378Y-93471200D01*
X127685000Y-93674400D02*
X128541928Y-93674400D01*
X132358072Y-93674400D02*
X132452774Y-93674400D01*
X133223000Y-93674400D02*
X133477000Y-93674400D01*
X135494473Y-93674400D02*
X135591928Y-93674400D01*
X139408072Y-93674400D02*
X142408378Y-93674400D01*
X149183622Y-93674400D02*
X151806378Y-93674400D01*
X127685000Y-93877600D02*
X128541928Y-93877600D01*
X133223000Y-93877600D02*
X133477000Y-93877600D01*
X139408072Y-93877600D02*
X142437100Y-93877600D01*
X149159785Y-93877600D02*
X151835100Y-93877600D01*
X127685000Y-94080800D02*
X128542075Y-94080800D01*
X133223000Y-94080800D02*
X133477000Y-94080800D01*
X139407817Y-94080800D02*
X139408072Y-94080800D01*
X139408072Y-94080800D02*
X142534617Y-94080800D01*
X149059062Y-94080800D02*
X151932617Y-94080800D01*
X127685000Y-94284000D02*
X128582185Y-94284000D01*
X133223000Y-94284000D02*
X133477000Y-94284000D01*
X139370504Y-94284000D02*
X139408072Y-94284000D01*
X139408072Y-94284000D02*
X142783645Y-94284000D01*
X148822185Y-94284000D02*
X152181645Y-94284000D01*
X127685000Y-94487200D02*
X128692589Y-94487200D01*
X132202168Y-94487200D02*
X132308600Y-94487200D01*
X133223000Y-94487200D02*
X133477000Y-94487200D01*
X135644472Y-94487200D02*
X135742589Y-94487200D01*
X139252168Y-94487200D02*
X139408072Y-94487200D01*
X139408072Y-94487200D02*
X145034000Y-94487200D01*
X146558000Y-94487200D02*
X154432000Y-94487200D01*
X127685000Y-94690400D02*
X128999233Y-94690400D01*
X131881558Y-94690400D02*
X132308600Y-94690400D01*
X133223000Y-94690400D02*
X133477000Y-94690400D01*
X135644472Y-94690400D02*
X136049233Y-94690400D01*
X138931558Y-94690400D02*
X139408072Y-94690400D01*
X139408072Y-94690400D02*
X145034000Y-94690400D01*
X146558000Y-94690400D02*
X154432000Y-94690400D01*
X127685000Y-94893600D02*
X132308600Y-94893600D01*
X133223000Y-94893600D02*
X133477000Y-94893600D01*
X135644472Y-94893600D02*
X139408072Y-94893600D01*
X139408072Y-94893600D02*
X145034000Y-94893600D01*
X146558000Y-94893600D02*
X154432000Y-94893600D01*
X127685000Y-95096800D02*
X132308600Y-95096800D01*
X133223000Y-95096800D02*
X133477000Y-95096800D01*
X135644472Y-95096800D02*
X139408072Y-95096800D01*
X139408072Y-95096800D02*
X145034000Y-95096800D01*
X146558000Y-95096800D02*
X154432000Y-95096800D01*
X127685000Y-95300000D02*
X132308600Y-95300000D01*
X133223000Y-95300000D02*
X133477000Y-95300000D01*
X135644472Y-95300000D02*
X139408072Y-95300000D01*
X139408072Y-95300000D02*
X145034000Y-95300000D01*
X146558000Y-95300000D02*
X154432000Y-95300000D01*
X127685000Y-95503200D02*
X132308600Y-95503200D01*
X133223000Y-95503200D02*
X133477000Y-95503200D01*
X135644472Y-95503200D02*
X139408072Y-95503200D01*
X139408072Y-95503200D02*
X145034000Y-95503200D01*
X146745830Y-95503200D02*
X154432000Y-95503200D01*
X127685000Y-95706400D02*
X132415750Y-95706400D01*
X133223000Y-95706400D02*
X133477000Y-95706400D01*
X135644472Y-95706400D02*
X139345578Y-95706400D01*
X146949030Y-95706400D02*
X147853661Y-95706400D01*
X150683000Y-95706400D02*
X150937000Y-95706400D01*
X151869426Y-95706400D02*
X152295574Y-95706400D01*
X153228000Y-95706400D02*
X153482000Y-95706400D01*
X127685000Y-95909600D02*
X133223000Y-95909600D01*
X133223000Y-95909600D02*
X133497000Y-95909600D01*
X135644472Y-95909600D02*
X136363791Y-95909600D01*
X150683000Y-95909600D02*
X150937000Y-95909600D01*
X151999813Y-95909600D02*
X152165186Y-95909600D01*
X153228000Y-95909600D02*
X153482000Y-95909600D01*
X127685000Y-96112800D02*
X132366550Y-96112800D01*
X133223000Y-96112800D02*
X133477000Y-96112800D01*
X135644472Y-96112800D02*
X136179027Y-96112800D01*
X150683000Y-96112800D02*
X150937000Y-96112800D01*
X152045000Y-96112800D02*
X152120000Y-96112800D01*
X153228000Y-96112800D02*
X153482000Y-96112800D01*
X127685000Y-96316000D02*
X132308600Y-96316000D01*
X133223000Y-96316000D02*
X133477000Y-96316000D01*
X135644472Y-96316000D02*
X136109178Y-96316000D01*
X150683000Y-96316000D02*
X150937000Y-96316000D01*
X151963250Y-96316000D02*
X152045000Y-96316000D01*
X152045000Y-96316000D02*
X152201750Y-96316000D01*
X153228000Y-96316000D02*
X153482000Y-96316000D01*
X127685000Y-96519200D02*
X132308600Y-96519200D01*
X133223000Y-96519200D02*
X133477000Y-96519200D01*
X135644472Y-96519200D02*
X136093938Y-96519200D01*
X150663000Y-96519200D02*
X152045000Y-96519200D01*
X152045000Y-96519200D02*
X153228000Y-96519200D01*
X153228000Y-96519200D02*
X153502000Y-96519200D01*
X127685000Y-96722400D02*
X132308600Y-96722400D01*
X133223000Y-96722400D02*
X133477000Y-96722400D01*
X135644472Y-96722400D02*
X136093938Y-96722400D01*
X151961650Y-96722400D02*
X152045000Y-96722400D01*
X152045000Y-96722400D02*
X152203350Y-96722400D01*
X153228000Y-96722400D02*
X153482000Y-96722400D01*
X127685000Y-96925600D02*
X132308600Y-96925600D01*
X133223000Y-96925600D02*
X133477000Y-96925600D01*
X135644472Y-96925600D02*
X136093938Y-96925600D01*
X152045000Y-96925600D02*
X152120000Y-96925600D01*
X153228000Y-96925600D02*
X153482000Y-96925600D01*
X127685000Y-97128800D02*
X128041871Y-97128800D01*
X132000416Y-97128800D02*
X132308600Y-97128800D01*
X133223000Y-97128800D02*
X133477000Y-97128800D01*
X135644472Y-97128800D02*
X136093938Y-97128800D01*
X152000476Y-97128800D02*
X152164525Y-97128800D01*
X153228000Y-97128800D02*
X153482000Y-97128800D01*
X127685000Y-97332000D02*
X127910335Y-97332000D01*
X132131496Y-97332000D02*
X132308600Y-97332000D01*
X133223000Y-97332000D02*
X133477000Y-97332000D01*
X135644472Y-97332000D02*
X136093938Y-97332000D01*
X151871026Y-97332000D02*
X152293974Y-97332000D01*
X153228000Y-97332000D02*
X153482000Y-97332000D01*
X127685000Y-97535200D02*
X127862862Y-97535200D01*
X132179243Y-97535200D02*
X132308600Y-97535200D01*
X133223000Y-97535200D02*
X133477000Y-97535200D01*
X135644472Y-97535200D02*
X136104789Y-97535200D01*
X148312230Y-97535200D02*
X148847570Y-97535200D01*
X151002830Y-97535200D02*
X153228000Y-97535200D01*
X153228000Y-97535200D02*
X154493000Y-97535200D01*
X127685000Y-97738400D02*
X127857928Y-97738400D01*
X132182072Y-97738400D02*
X132308600Y-97738400D01*
X133223000Y-97738400D02*
X133477000Y-97738400D01*
X135637383Y-97738400D02*
X136121825Y-97738400D01*
X148442124Y-97738400D02*
X149050770Y-97738400D01*
X151206030Y-97738400D02*
X153228000Y-97738400D01*
X153228000Y-97738400D02*
X154493000Y-97738400D01*
X127685000Y-97941600D02*
X127857928Y-97941600D01*
X132182072Y-97941600D02*
X132361160Y-97941600D01*
X133223000Y-97941600D02*
X133477000Y-97941600D01*
X135585230Y-97941600D02*
X136097010Y-97941600D01*
X148508841Y-97941600D02*
X149253970Y-97941600D01*
X151409230Y-97941600D02*
X153228000Y-97941600D01*
X153228000Y-97941600D02*
X154036056Y-97941600D01*
X127685000Y-98144800D02*
X127857928Y-98144800D01*
X132182072Y-98144800D02*
X132501974Y-98144800D01*
X133223000Y-98144800D02*
X133477000Y-98144800D01*
X135447615Y-98144800D02*
X136102560Y-98144800D01*
X148574106Y-98144800D02*
X149457170Y-98144800D01*
X151612430Y-98144800D02*
X153228000Y-98144800D01*
X153228000Y-98144800D02*
X153851801Y-98144800D01*
X127685000Y-98348000D02*
X127857928Y-98348000D01*
X132182072Y-98348000D02*
X133223000Y-98348000D01*
X133223000Y-98348000D02*
X142082200Y-98348000D01*
X148769546Y-98348000D02*
X149660370Y-98348000D01*
X151815630Y-98348000D02*
X153228000Y-98348000D01*
X153228000Y-98348000D02*
X153782100Y-98348000D01*
X127685000Y-98551200D02*
X127857928Y-98551200D01*
X132182072Y-98551200D02*
X133223000Y-98551200D01*
X133223000Y-98551200D02*
X142082200Y-98551200D01*
X148855079Y-98551200D02*
X149863570Y-98551200D01*
X127685000Y-98754400D02*
X127857928Y-98754400D01*
X132182072Y-98754400D02*
X133223000Y-98754400D01*
X133223000Y-98754400D02*
X136097010Y-98754400D01*
X141808200Y-98754400D02*
X142062200Y-98754400D01*
X148873072Y-98754400D02*
X150066770Y-98754400D01*
X127685000Y-98957600D02*
X127857928Y-98957600D01*
X132182072Y-98957600D02*
X133223000Y-98957600D01*
X133223000Y-98957600D02*
X136097010Y-98957600D01*
X141808200Y-98957600D02*
X142062200Y-98957600D01*
X145588000Y-98957600D02*
X145882000Y-98957600D01*
X148873072Y-98957600D02*
X150269970Y-98957600D01*
X127685000Y-99160800D02*
X127857928Y-99160800D01*
X132182072Y-99160800D02*
X133223000Y-99160800D01*
X133223000Y-99160800D02*
X136142206Y-99160800D01*
X141808200Y-99160800D02*
X142062200Y-99160800D01*
X145588000Y-99160800D02*
X145882000Y-99160800D01*
X148873072Y-99160800D02*
X150473170Y-99160800D01*
X127685000Y-99364000D02*
X127857928Y-99364000D01*
X132182072Y-99364000D02*
X133223000Y-99364000D01*
X133223000Y-99364000D02*
X136102695Y-99364000D01*
X141808200Y-99364000D02*
X142062200Y-99364000D01*
X145608000Y-99364000D02*
X145862000Y-99364000D01*
X148873072Y-99364000D02*
X150676370Y-99364000D01*
X127685000Y-99567200D02*
X127857928Y-99567200D01*
X132182072Y-99567200D02*
X133223000Y-99567200D01*
X133223000Y-99567200D02*
X136093938Y-99567200D01*
X141808200Y-99567200D02*
X142062200Y-99567200D01*
X145608000Y-99567200D02*
X145862000Y-99567200D01*
X148854327Y-99567200D02*
X150879570Y-99567200D01*
X127685000Y-99770400D02*
X127857928Y-99770400D01*
X132182072Y-99770400D02*
X133223000Y-99770400D01*
X133223000Y-99770400D02*
X136093938Y-99770400D01*
X141808200Y-99770400D02*
X142062200Y-99770400D01*
X144468029Y-99770400D02*
X144595399Y-99770400D01*
X145608000Y-99770400D02*
X145862000Y-99770400D01*
X148776867Y-99770400D02*
X151082770Y-99770400D01*
X127685000Y-99973600D02*
X127857928Y-99973600D01*
X132182072Y-99973600D02*
X133223000Y-99973600D01*
X133223000Y-99973600D02*
X136093938Y-99973600D01*
X141735340Y-99973600D02*
X142135060Y-99973600D01*
X144256619Y-99973600D02*
X144798102Y-99973600D01*
X145545650Y-99973600D02*
X145924350Y-99973600D01*
X146671899Y-99973600D02*
X146693218Y-99973600D01*
X148698911Y-99973600D02*
X151401605Y-99973600D01*
X127685000Y-100176800D02*
X127863358Y-100176800D01*
X132172601Y-100176800D02*
X133223000Y-100176800D01*
X133223000Y-100176800D02*
X136093938Y-100176800D01*
X139871982Y-100176800D02*
X146762120Y-100176800D01*
X148735049Y-100176800D02*
X151851170Y-100176800D01*
X127685000Y-100380000D02*
X127918510Y-100380000D01*
X132115275Y-100380000D02*
X133223000Y-100380000D01*
X133223000Y-100380000D02*
X136093938Y-100380000D01*
X139871982Y-100380000D02*
X146829684Y-100380000D01*
X148739860Y-100380000D02*
X151799017Y-100380000D01*
X127685000Y-100583200D02*
X128077246Y-100583200D01*
X131970940Y-100583200D02*
X133223000Y-100583200D01*
X133223000Y-100583200D02*
X136119085Y-100583200D01*
X139864042Y-100583200D02*
X146960483Y-100583200D01*
X148739860Y-100583200D02*
X151791928Y-100583200D01*
X127685000Y-100786400D02*
X131228712Y-100786400D01*
X135476939Y-100786400D02*
X136212611Y-100786400D01*
X139935279Y-100786400D02*
X146961860Y-100786400D01*
X148739860Y-100786400D02*
X151791928Y-100786400D01*
X127685000Y-100989600D02*
X129910865Y-100989600D01*
X135683312Y-100989600D02*
X136443786Y-100989600D01*
X139954000Y-100989600D02*
X142495934Y-100989600D01*
X144122140Y-100989600D02*
X144376140Y-100989600D01*
X146002346Y-100989600D02*
X146099734Y-100989600D01*
X149602931Y-100989600D02*
X151792709Y-100989600D01*
X127685000Y-101192800D02*
X129504904Y-101192800D01*
X135771290Y-101192800D02*
X137902436Y-101192800D01*
X140231492Y-101192800D02*
X142361622Y-101192800D01*
X144122140Y-101192800D02*
X144376140Y-101192800D01*
X149737554Y-101192800D02*
X151797202Y-101192800D01*
X127685000Y-101396000D02*
X129301369Y-101396000D01*
X135791472Y-101396000D02*
X137713630Y-101396000D01*
X140414548Y-101396000D02*
X142313660Y-101396000D01*
X144122140Y-101396000D02*
X144376140Y-101396000D01*
X150911286Y-101396000D02*
X151791928Y-101396000D01*
X127685000Y-101599200D02*
X129098169Y-101599200D01*
X135791472Y-101599200D02*
X137642608Y-101599200D01*
X140492218Y-101599200D02*
X142313660Y-101599200D01*
X144122140Y-101599200D02*
X144376140Y-101599200D01*
X151180983Y-101599200D02*
X151791928Y-101599200D01*
X127685000Y-101802400D02*
X128913021Y-101802400D01*
X135791472Y-101802400D02*
X137626828Y-101802400D01*
X140503172Y-101802400D02*
X142313660Y-101802400D01*
X144122140Y-101802400D02*
X144376140Y-101802400D01*
X151327742Y-101802400D02*
X151793749Y-101802400D01*
X127685000Y-102005600D02*
X128817120Y-102005600D01*
X135791472Y-102005600D02*
X137626828Y-102005600D01*
X140503172Y-102005600D02*
X142370010Y-102005600D01*
X144122140Y-102005600D02*
X144376140Y-102005600D01*
X151402486Y-102005600D02*
X151795387Y-102005600D01*
X127685000Y-102208800D02*
X128779819Y-102208800D01*
X135782624Y-102208800D02*
X137626828Y-102208800D01*
X140503172Y-102208800D02*
X144122140Y-102208800D01*
X144122140Y-102208800D02*
X144396140Y-102208800D01*
X151428847Y-102208800D02*
X151791928Y-102208800D01*
X127685000Y-102412000D02*
X128778000Y-102412000D01*
X135766706Y-102412000D02*
X136690555Y-102412000D01*
X140503172Y-102412000D02*
X142422410Y-102412000D01*
X144122140Y-102412000D02*
X144376140Y-102412000D01*
X151413369Y-102412000D02*
X151791928Y-102412000D01*
X127685000Y-102615200D02*
X128778000Y-102615200D01*
X130302000Y-102615200D02*
X130911600Y-102615200D01*
X135788400Y-102615200D02*
X136411564Y-102615200D01*
X140503172Y-102615200D02*
X142313660Y-102615200D01*
X144122140Y-102615200D02*
X144376140Y-102615200D01*
X151348947Y-102615200D02*
X151794789Y-102615200D01*
X127685000Y-102818400D02*
X128778000Y-102818400D01*
X130302000Y-102818400D02*
X131025750Y-102818400D01*
X135674250Y-102818400D02*
X136208364Y-102818400D01*
X140503172Y-102818400D02*
X142313660Y-102818400D01*
X144122140Y-102818400D02*
X144376140Y-102818400D01*
X151227392Y-102818400D02*
X151793572Y-102818400D01*
X127685000Y-103021600D02*
X128778000Y-103021600D01*
X130302000Y-103021600D02*
X136005164Y-103021600D01*
X140503172Y-103021600D02*
X142313660Y-103021600D01*
X144122140Y-103021600D02*
X144376140Y-103021600D01*
X151000038Y-103021600D02*
X151791928Y-103021600D01*
X127685000Y-103224800D02*
X128778000Y-103224800D01*
X130302000Y-103224800D02*
X130962550Y-103224800D01*
X135737450Y-103224800D02*
X135801964Y-103224800D01*
X140503172Y-103224800D02*
X142339918Y-103224800D01*
X144122140Y-103224800D02*
X144376140Y-103224800D01*
X149758724Y-103224800D02*
X151791928Y-103224800D01*
X127685000Y-103428000D02*
X128778000Y-103428000D01*
X130302000Y-103428000D02*
X130606569Y-103428000D01*
X140503172Y-103428000D02*
X142447480Y-103428000D01*
X144122140Y-103428000D02*
X144376140Y-103428000D01*
X146050801Y-103428000D02*
X146052840Y-103428000D01*
X149646508Y-103428000D02*
X151795830Y-103428000D01*
X127685000Y-103631200D02*
X128778000Y-103631200D01*
X130302000Y-103631200D02*
X130315564Y-103631200D01*
X140503172Y-103631200D02*
X142728438Y-103631200D01*
X144002290Y-103631200D02*
X144122140Y-103631200D01*
X144122140Y-103631200D02*
X144495990Y-103631200D01*
X145769843Y-103631200D02*
X146335588Y-103631200D01*
X149361827Y-103631200D02*
X151791928Y-103631200D01*
X127685000Y-103834400D02*
X128778000Y-103834400D01*
X140503172Y-103834400D02*
X144122140Y-103834400D01*
X144122140Y-103834400D02*
X151791928Y-103834400D01*
X127685000Y-104037600D02*
X128778000Y-104037600D01*
X140503172Y-104037600D02*
X144122140Y-104037600D01*
X144122140Y-104037600D02*
X151791928Y-104037600D01*
X127685000Y-104240800D02*
X128778000Y-104240800D01*
X137300436Y-104240800D02*
X137626828Y-104240800D01*
X140503172Y-104240800D02*
X144122140Y-104240800D01*
X144122140Y-104240800D02*
X151796870Y-104240800D01*
X127685000Y-104444000D02*
X128778000Y-104444000D01*
X137097236Y-104444000D02*
X137626828Y-104444000D01*
X140503172Y-104444000D02*
X144122140Y-104444000D01*
X144122140Y-104444000D02*
X151791928Y-104444000D01*
X127685000Y-104647200D02*
X128778000Y-104647200D01*
X136894036Y-104647200D02*
X137626828Y-104647200D01*
X140503172Y-104647200D02*
X144122140Y-104647200D01*
X144122140Y-104647200D02*
X151791928Y-104647200D01*
X127685000Y-104850400D02*
X128778000Y-104850400D01*
X136672831Y-104850400D02*
X137646813Y-104850400D01*
X140483297Y-104850400D02*
X144122140Y-104850400D01*
X144122140Y-104850400D02*
X145535437Y-104850400D01*
X151008511Y-104850400D02*
X151791928Y-104850400D01*
X127685000Y-105053600D02*
X128778000Y-105053600D01*
X135788400Y-105053600D02*
X137734571Y-105053600D01*
X140402352Y-105053600D02*
X144122140Y-105053600D01*
X144122140Y-105053600D02*
X145328769Y-105053600D01*
X151216230Y-105053600D02*
X151797910Y-105053600D01*
X127685000Y-105256800D02*
X128778000Y-105256800D01*
X135735850Y-105256800D02*
X137939960Y-105256800D01*
X140183939Y-105256800D02*
X144122140Y-105256800D01*
X144122140Y-105256800D02*
X145125569Y-105256800D01*
X151419430Y-105256800D02*
X151791928Y-105256800D01*
X127685000Y-105460000D02*
X128778000Y-105460000D01*
X133203000Y-105460000D02*
X144122140Y-105460000D01*
X144122140Y-105460000D02*
X144922369Y-105460000D01*
X151622630Y-105460000D02*
X151791928Y-105460000D01*
X127685000Y-105663200D02*
X128778000Y-105663200D01*
X135675850Y-105663200D02*
X137813444Y-105663200D01*
X138938000Y-105663200D02*
X139192000Y-105663200D01*
X140316556Y-105663200D02*
X144122140Y-105663200D01*
X144122140Y-105663200D02*
X144759216Y-105663200D01*
X127685000Y-105866400D02*
X128778000Y-105866400D01*
X135788400Y-105866400D02*
X137678388Y-105866400D01*
X138938000Y-105866400D02*
X139192000Y-105866400D01*
X140451611Y-105866400D02*
X143670418Y-105866400D01*
X144631440Y-105866400D02*
X144676049Y-105866400D01*
X127685000Y-106069600D02*
X128778000Y-106069600D01*
X135766389Y-106069600D02*
X137629900Y-106069600D01*
X138938000Y-106069600D02*
X139192000Y-106069600D01*
X140500100Y-106069600D02*
X143329935Y-106069600D01*
X127685000Y-106272800D02*
X128778000Y-106272800D01*
X135786530Y-106272800D02*
X137629900Y-106272800D01*
X138938000Y-106272800D02*
X139192000Y-106272800D01*
X140500100Y-106272800D02*
X143282405Y-106272800D01*
X127685000Y-106476000D02*
X128778000Y-106476000D01*
X135791472Y-106476000D02*
X137629900Y-106476000D01*
X138938000Y-106476000D02*
X139192000Y-106476000D01*
X140500100Y-106476000D02*
X142973150Y-106476000D01*
X143126395Y-106476000D02*
X143485605Y-106476000D01*
X127685000Y-106679200D02*
X128778000Y-106679200D01*
X135791472Y-106679200D02*
X137629900Y-106679200D01*
X138938000Y-106679200D02*
X139192000Y-106679200D01*
X140500100Y-106679200D02*
X142759722Y-106679200D01*
X143329595Y-106679200D02*
X143688805Y-106679200D01*
X127685000Y-106882400D02*
X128778000Y-106882400D01*
X135791472Y-106882400D02*
X137629900Y-106882400D01*
X138938000Y-106882400D02*
X139192000Y-106882400D01*
X140500100Y-106882400D02*
X142682608Y-106882400D01*
X143532795Y-106882400D02*
X143892005Y-106882400D01*
X127685000Y-107085600D02*
X128778000Y-107085600D01*
X135791472Y-107085600D02*
X137629900Y-107085600D01*
X138938000Y-107085600D02*
X139192000Y-107085600D01*
X140500100Y-107085600D02*
X142631236Y-107085600D01*
X143735995Y-107085600D02*
X144095205Y-107085600D01*
X127685000Y-107288800D02*
X128778000Y-107288800D01*
X130302000Y-107288800D02*
X130415564Y-107288800D01*
X135771281Y-107288800D02*
X137629900Y-107288800D01*
X138938000Y-107288800D02*
X139192000Y-107288800D01*
X140500100Y-107288800D02*
X142620168Y-107288800D01*
X143939195Y-107288800D02*
X144326690Y-107288800D01*
X127685000Y-107492000D02*
X128778000Y-107492000D01*
X130302000Y-107492000D02*
X130654174Y-107492000D01*
X135782619Y-107492000D02*
X138938000Y-107492000D01*
X138938000Y-107492000D02*
X140500100Y-107492000D01*
X140500100Y-107492000D02*
X142630812Y-107492000D01*
X143788395Y-107492000D02*
X143965395Y-107492000D01*
X143965395Y-107492000D02*
X144175889Y-107492000D01*
X127685000Y-107695200D02*
X128778000Y-107695200D01*
X130302000Y-107695200D02*
X130911600Y-107695200D01*
X135788400Y-107695200D02*
X138938000Y-107695200D01*
X138938000Y-107695200D02*
X140500100Y-107695200D01*
X140500100Y-107695200D02*
X142663197Y-107695200D01*
X143585195Y-107695200D02*
X143944405Y-107695200D01*
X127685000Y-107898400D02*
X128778000Y-107898400D01*
X130302000Y-107898400D02*
X137629900Y-107898400D01*
X138938000Y-107898400D02*
X139192000Y-107898400D01*
X140500100Y-107898400D02*
X142734683Y-107898400D01*
X143381995Y-107898400D02*
X143741205Y-107898400D01*
X127685000Y-108101600D02*
X128778000Y-108101600D01*
X130302000Y-108101600D02*
X137629900Y-108101600D01*
X138938000Y-108101600D02*
X139192000Y-108101600D01*
X140500100Y-108101600D02*
X142831610Y-108101600D01*
X143178795Y-108101600D02*
X143538005Y-108101600D01*
X127685000Y-108304800D02*
X128778000Y-108304800D01*
X130302000Y-108304800D02*
X130619101Y-108304800D01*
X135788400Y-108304800D02*
X137629900Y-108304800D01*
X138938000Y-108304800D02*
X139192000Y-108304800D01*
X140500100Y-108304800D02*
X141033101Y-108304800D01*
X141414242Y-108304800D02*
X143334805Y-108304800D01*
X127685000Y-108508000D02*
X128778000Y-108508000D01*
X135778642Y-108508000D02*
X137629900Y-108508000D01*
X138938000Y-108508000D02*
X139192000Y-108508000D01*
X140500100Y-108508000D02*
X140615055Y-108508000D01*
X141834313Y-108508000D02*
X143312883Y-108508000D01*
X127685000Y-108711200D02*
X128778000Y-108711200D01*
X135777044Y-108711200D02*
X137629900Y-108711200D01*
X138938000Y-108711200D02*
X139192000Y-108711200D01*
X142008221Y-108711200D02*
X143134725Y-108711200D01*
X127685000Y-108914400D02*
X128778000Y-108914400D01*
X135791472Y-108914400D02*
X137629900Y-108914400D01*
X138938000Y-108914400D02*
X139192000Y-108914400D01*
X142109088Y-108914400D02*
X142941944Y-108914400D01*
X127685000Y-109117600D02*
X128778000Y-109117600D01*
X135791472Y-109117600D02*
X137629900Y-109117600D01*
X138938000Y-109117600D02*
X139192000Y-109117600D01*
X142156632Y-109117600D02*
X142802899Y-109117600D01*
X127685000Y-109320800D02*
X128778000Y-109320800D01*
X135791472Y-109320800D02*
X137665101Y-109320800D01*
X138938000Y-109320800D02*
X139192000Y-109320800D01*
X142156074Y-109320800D02*
X142715807Y-109320800D01*
X127685000Y-109524000D02*
X128778000Y-109524000D01*
X135791472Y-109524000D02*
X137781364Y-109524000D01*
X138938000Y-109524000D02*
X139192000Y-109524000D01*
X142111873Y-109524000D02*
X142657242Y-109524000D01*
X127685000Y-109727200D02*
X128778000Y-109727200D01*
X135780015Y-109727200D02*
X138115336Y-109727200D01*
X138796560Y-109727200D02*
X138938000Y-109727200D01*
X138938000Y-109727200D02*
X139333440Y-109727200D01*
X142010145Y-109727200D02*
X142622570Y-109727200D01*
X127685000Y-109930400D02*
X128778000Y-109930400D01*
X135770366Y-109930400D02*
X138938000Y-109930400D01*
X138938000Y-109930400D02*
X139165786Y-109930400D01*
X141833480Y-109930400D02*
X142619733Y-109930400D01*
X127685000Y-110133600D02*
X128778000Y-110133600D01*
X130302000Y-110133600D02*
X130612210Y-110133600D01*
X135788400Y-110133600D02*
X138938000Y-110133600D01*
X138938000Y-110133600D02*
X139069813Y-110133600D01*
X141596448Y-110133600D02*
X142646612Y-110133600D01*
X127685000Y-110336800D02*
X128778000Y-110336800D01*
X130302000Y-110336800D02*
X131044150Y-110336800D01*
X135655850Y-110336800D02*
X138938000Y-110336800D01*
X138938000Y-110336800D02*
X139046928Y-110336800D01*
X141623072Y-110336800D02*
X142696585Y-110336800D01*
X127685000Y-110540000D02*
X128778000Y-110540000D01*
X130302000Y-110540000D02*
X138938000Y-110540000D01*
X138938000Y-110540000D02*
X139046928Y-110540000D01*
X141623072Y-110540000D02*
X142777037Y-110540000D01*
X127685000Y-110743200D02*
X128778000Y-110743200D01*
X130302000Y-110743200D02*
X130944150Y-110743200D01*
X135755850Y-110743200D02*
X138938000Y-110743200D01*
X138938000Y-110743200D02*
X139046928Y-110743200D01*
X141623072Y-110743200D02*
X142904265Y-110743200D01*
X127685000Y-110946400D02*
X128778000Y-110946400D01*
X135788400Y-110946400D02*
X138938000Y-110946400D01*
X138938000Y-110946400D02*
X139046928Y-110946400D01*
X141623072Y-110946400D02*
X143080253Y-110946400D01*
X127685000Y-111149600D02*
X128780412Y-111149600D01*
X135735841Y-111149600D02*
X136141464Y-111149600D01*
X137210040Y-111149600D02*
X137572240Y-111149600D01*
X138640815Y-111149600D02*
X138938000Y-111149600D01*
X138938000Y-111149600D02*
X139046928Y-111149600D01*
X141623072Y-111149600D02*
X143264809Y-111149600D01*
X127685000Y-111352800D02*
X128816463Y-111352800D01*
X135595026Y-111352800D02*
X135945596Y-111352800D01*
X137264140Y-111352800D02*
X137518140Y-111352800D01*
X138836683Y-111352800D02*
X138938000Y-111352800D01*
X138938000Y-111352800D02*
X139046928Y-111352800D01*
X141623072Y-111352800D02*
X143030975Y-111352800D01*
X127685000Y-111556000D02*
X128203489Y-111556000D01*
X134858630Y-111556000D02*
X135867924Y-111556000D01*
X137264140Y-111556000D02*
X137518140Y-111556000D01*
X138914355Y-111556000D02*
X138938000Y-111556000D01*
X138938000Y-111556000D02*
X139046928Y-111556000D01*
X141623072Y-111556000D02*
X142872377Y-111556000D01*
X127685000Y-111759200D02*
X127973558Y-111759200D01*
X135033294Y-111759200D02*
X135855710Y-111759200D01*
X137264140Y-111759200D02*
X137518140Y-111759200D01*
X138926570Y-111759200D02*
X138938000Y-111759200D01*
X138938000Y-111759200D02*
X139046928Y-111759200D01*
X141623072Y-111759200D02*
X142759353Y-111759200D01*
X127685000Y-111962400D02*
X127880275Y-111962400D01*
X135120209Y-111962400D02*
X137264140Y-111962400D01*
X137264140Y-111962400D02*
X138926570Y-111962400D01*
X138926570Y-111962400D02*
X138938000Y-111962400D01*
X138938000Y-111962400D02*
X139075428Y-111962400D01*
X141599336Y-111962400D02*
X142678838Y-111962400D01*
X127685000Y-112165600D02*
X127857928Y-112165600D01*
X135718460Y-112165600D02*
X137264140Y-112165600D01*
X137264140Y-112165600D02*
X138926570Y-112165600D01*
X138926570Y-112165600D02*
X138938000Y-112165600D01*
X138938000Y-112165600D02*
X139172697Y-112165600D01*
X141499116Y-112165600D02*
X142635646Y-112165600D01*
X127685000Y-112368800D02*
X127857928Y-112368800D01*
X138926570Y-112368800D02*
X138938000Y-112368800D01*
X138938000Y-112368800D02*
X139420617Y-112368800D01*
X141262708Y-112368800D02*
X142621152Y-112368800D01*
X127685000Y-112572000D02*
X127857928Y-112572000D01*
X138920721Y-112572000D02*
X138938000Y-112572000D01*
X138938000Y-112572000D02*
X139215407Y-112572000D01*
X141462613Y-112572000D02*
X142627965Y-112572000D01*
X127685000Y-112775200D02*
X127857928Y-112775200D01*
X138856635Y-112775200D02*
X138938000Y-112775200D01*
X138938000Y-112775200D02*
X139091151Y-112775200D01*
X141578187Y-112775200D02*
X142665259Y-112775200D01*
X127685000Y-112978400D02*
X127857928Y-112978400D01*
X138688707Y-112978400D02*
X138938000Y-112978400D01*
X138938000Y-112978400D02*
X139049281Y-112978400D01*
X141621722Y-112978400D02*
X142736811Y-112978400D01*
X127685000Y-113181600D02*
X127857928Y-113181600D01*
X141623072Y-113181600D02*
X142838789Y-113181600D01*
X127685000Y-113384800D02*
X127857928Y-113384800D01*
X141623072Y-113384800D02*
X142982139Y-113384800D01*
X127685000Y-113588000D02*
X127857928Y-113588000D01*
X141623072Y-113588000D02*
X143191047Y-113588000D01*
X127685000Y-113791200D02*
X127857928Y-113791200D01*
X141623072Y-113791200D02*
X143267904Y-113791200D01*
X127685000Y-113994400D02*
X127857928Y-113994400D01*
X141623072Y-113994400D02*
X143319361Y-113994400D01*
X127685000Y-114197600D02*
X127857928Y-114197600D01*
X141623072Y-114197600D02*
X143437674Y-114197600D01*
X127685000Y-114400800D02*
X127857928Y-114400800D01*
X141623072Y-114400800D02*
X143623564Y-114400800D01*
X127685000Y-114604000D02*
X127857928Y-114604000D01*
X141607617Y-114604000D02*
X143826764Y-114604000D01*
X127685000Y-114807200D02*
X127880111Y-114807200D01*
X141537299Y-114807200D02*
X144029964Y-114807200D01*
X163168072Y-103867000D02*
X163293528Y-103867000D01*
X163168072Y-104070200D02*
X163293528Y-104070200D01*
X163154828Y-104273400D02*
X163293528Y-104273400D01*
X163168072Y-104476600D02*
X163293528Y-104476600D01*
X163168072Y-104679800D02*
X163311396Y-104679800D01*
X163168072Y-104883000D02*
X163307792Y-104883000D01*
X163153013Y-105086200D02*
X163293528Y-105086200D01*
X163168072Y-105289400D02*
X163293528Y-105289400D01*
X163168072Y-105492600D02*
X163293528Y-105492600D01*
X163168072Y-105695800D02*
X163293528Y-105695800D01*
X163151198Y-105899000D02*
X163301867Y-105899000D01*
X163168072Y-106102200D02*
X163312159Y-106102200D01*
X163168072Y-106305400D02*
X163293528Y-106305400D01*
X171091414Y-106305400D02*
X171400000Y-106305400D01*
X163168072Y-106508600D02*
X163293528Y-106508600D01*
X171098970Y-106508600D02*
X171400000Y-106508600D01*
X163149384Y-106711800D02*
X163293528Y-106711800D01*
X171113037Y-106711800D02*
X171400000Y-106711800D01*
X163072047Y-106915000D02*
X163293528Y-106915000D01*
X171085191Y-106915000D02*
X171400000Y-106915000D01*
X162861482Y-107118200D02*
X163299364Y-107118200D01*
X171008124Y-107118200D02*
X171400000Y-107118200D01*
X161197472Y-107321400D02*
X163316527Y-107321400D01*
X170861937Y-107321400D02*
X171400000Y-107321400D01*
X161197472Y-107524600D02*
X163293528Y-107524600D01*
X170587384Y-107524600D02*
X171400000Y-107524600D01*
X161197472Y-107727800D02*
X163293528Y-107727800D01*
X170453911Y-107727800D02*
X171400000Y-107727800D01*
X161197472Y-107931000D02*
X163293528Y-107931000D01*
X170478746Y-107931000D02*
X171400000Y-107931000D01*
X161197472Y-108134200D02*
X163293528Y-108134200D01*
X170461733Y-108134200D02*
X171400000Y-108134200D01*
X161197472Y-108337400D02*
X163296861Y-108337400D01*
X170395741Y-108337400D02*
X171400000Y-108337400D01*
X161197472Y-108540600D02*
X163325700Y-108540600D01*
X170272313Y-108540600D02*
X171400000Y-108540600D01*
X161167233Y-108743800D02*
X163293528Y-108743800D01*
X170038692Y-108743800D02*
X171400000Y-108743800D01*
X161055418Y-108947000D02*
X163293528Y-108947000D01*
X169808525Y-108947000D02*
X171400000Y-108947000D01*
X160773085Y-109150200D02*
X163293528Y-109150200D01*
X169844455Y-109150200D02*
X171400000Y-109150200D01*
X159261682Y-109353400D02*
X163293528Y-109353400D01*
X169838275Y-109353400D02*
X171400000Y-109353400D01*
X159328632Y-109556600D02*
X163294358Y-109556600D01*
X169783359Y-109556600D02*
X171400000Y-109556600D01*
X159552498Y-109759800D02*
X163336411Y-109759800D01*
X169673148Y-109759800D02*
X171400000Y-109759800D01*
X159644388Y-109963000D02*
X163296600Y-109963000D01*
X168173400Y-109963000D02*
X168341157Y-109963000D01*
X169483740Y-109963000D02*
X171400000Y-109963000D01*
X159668072Y-110166200D02*
X163358550Y-110166200D01*
X168111450Y-110166200D02*
X171400000Y-110166200D01*
X159668072Y-110369400D02*
X171400000Y-110369400D01*
X159668072Y-110572600D02*
X163399750Y-110572600D01*
X165608000Y-110572600D02*
X165862000Y-110572600D01*
X168070250Y-110572600D02*
X171400000Y-110572600D01*
X159668072Y-110775800D02*
X163296600Y-110775800D01*
X165608000Y-110775800D02*
X165862000Y-110775800D01*
X168173400Y-110775800D02*
X171400000Y-110775800D01*
X159651908Y-110979000D02*
X163320482Y-110979000D01*
X165608000Y-110979000D02*
X165862000Y-110979000D01*
X168149519Y-110979000D02*
X171400000Y-110979000D01*
X159580051Y-111182200D02*
X163425676Y-111182200D01*
X165608000Y-111182200D02*
X165862000Y-111182200D01*
X168044325Y-111182200D02*
X171400000Y-111182200D01*
X159388369Y-111385400D02*
X163694237Y-111385400D01*
X165495250Y-111385400D02*
X165608000Y-111385400D01*
X165608000Y-111385400D02*
X165974750Y-111385400D01*
X170613485Y-111385400D02*
X171400000Y-111385400D01*
X159319000Y-111588600D02*
X165608000Y-111588600D01*
X165608000Y-111588600D02*
X167078544Y-111588600D01*
X171056950Y-111588600D02*
X171400000Y-111588600D01*
X159319000Y-111791800D02*
X165608000Y-111791800D01*
X165608000Y-111791800D02*
X166950929Y-111791800D01*
X171179561Y-111791800D02*
X171400000Y-111791800D01*
X159319000Y-111995000D02*
X160614015Y-111995000D01*
X162299477Y-111995000D02*
X162812979Y-111995000D01*
X163424250Y-111995000D02*
X163895750Y-111995000D01*
X164507020Y-111995000D02*
X165608000Y-111995000D01*
X165608000Y-111995000D02*
X166906472Y-111995000D01*
X171225040Y-111995000D02*
X171400000Y-111995000D01*
X163533000Y-112198200D02*
X163787000Y-112198200D01*
X164768597Y-112198200D02*
X165608000Y-112198200D01*
X165608000Y-112198200D02*
X166902928Y-112198200D01*
X171227072Y-112198200D02*
X171400000Y-112198200D01*
X163533000Y-112401400D02*
X163787000Y-112401400D01*
X164871914Y-112401400D02*
X165608000Y-112401400D01*
X165608000Y-112401400D02*
X166902928Y-112401400D01*
X171227072Y-112401400D02*
X171400000Y-112401400D01*
X163533000Y-112604600D02*
X163787000Y-112604600D01*
X164895000Y-112604600D02*
X165608000Y-112604600D01*
X165608000Y-112604600D02*
X166902928Y-112604600D01*
X171227072Y-112604600D02*
X171400000Y-112604600D01*
X163533000Y-112807800D02*
X163787000Y-112807800D01*
X164831450Y-112807800D02*
X164895000Y-112807800D01*
X164895000Y-112807800D02*
X165608000Y-112807800D01*
X165608000Y-112807800D02*
X166902928Y-112807800D01*
X171227072Y-112807800D02*
X171400000Y-112807800D01*
X163513000Y-113011000D02*
X164895000Y-113011000D01*
X164895000Y-113011000D02*
X165608000Y-113011000D01*
X165608000Y-113011000D02*
X166902928Y-113011000D01*
X171227072Y-113011000D02*
X171400000Y-113011000D01*
X163533000Y-113214200D02*
X163787000Y-113214200D01*
X164793450Y-113214200D02*
X164895000Y-113214200D01*
X164895000Y-113214200D02*
X165608000Y-113214200D01*
X165608000Y-113214200D02*
X166902928Y-113214200D01*
X171227072Y-113214200D02*
X171400000Y-113214200D01*
X153072317Y-113417400D02*
X153435164Y-113417400D01*
X163533000Y-113417400D02*
X163787000Y-113417400D01*
X164895000Y-113417400D02*
X165608000Y-113417400D01*
X165608000Y-113417400D02*
X166902928Y-113417400D01*
X171227072Y-113417400D02*
X171400000Y-113417400D01*
X153240314Y-113620600D02*
X153638364Y-113620600D01*
X163533000Y-113620600D02*
X163787000Y-113620600D01*
X164879474Y-113620600D02*
X164895000Y-113620600D01*
X164895000Y-113620600D02*
X165608000Y-113620600D01*
X165608000Y-113620600D02*
X166902928Y-113620600D01*
X171227072Y-113620600D02*
X171400000Y-113620600D01*
X153307310Y-113823800D02*
X153912384Y-113823800D01*
X163533000Y-113823800D02*
X163787000Y-113823800D01*
X164793989Y-113823800D02*
X164895000Y-113823800D01*
X164895000Y-113823800D02*
X165608000Y-113823800D01*
X165608000Y-113823800D02*
X166902928Y-113823800D01*
X171227072Y-113823800D02*
X171400000Y-113823800D01*
X153302250Y-114027000D02*
X155816654Y-114027000D01*
X157257659Y-114027000D02*
X157716654Y-114027000D01*
X159157659Y-114027000D02*
X160536016Y-114027000D01*
X162378190Y-114027000D02*
X162735674Y-114027000D01*
X163462250Y-114027000D02*
X163857750Y-114027000D01*
X164584327Y-114027000D02*
X164895000Y-114027000D01*
X164895000Y-114027000D02*
X165608000Y-114027000D01*
X165608000Y-114027000D02*
X166902928Y-114027000D01*
X171227072Y-114027000D02*
X171400000Y-114027000D01*
X151933000Y-114230200D02*
X164895000Y-114230200D01*
X164895000Y-114230200D02*
X165608000Y-114230200D01*
X165608000Y-114230200D02*
X166902928Y-114230200D01*
X171227072Y-114230200D02*
X171400000Y-114230200D01*
X151953000Y-114433400D02*
X152207000Y-114433400D01*
X153162650Y-114433400D02*
X164895000Y-114433400D01*
X164895000Y-114433400D02*
X165608000Y-114433400D01*
X165608000Y-114433400D02*
X166902928Y-114433400D01*
X171227072Y-114433400D02*
X171400000Y-114433400D01*
X153315000Y-114636600D02*
X164895000Y-114636600D01*
X164895000Y-114636600D02*
X165608000Y-114636600D01*
X165608000Y-114636600D02*
X166909154Y-114636600D01*
X171216211Y-114636600D02*
X171400000Y-114636600D01*
X153294660Y-114839800D02*
X164895000Y-114839800D01*
X164895000Y-114839800D02*
X165608000Y-114839800D01*
X165608000Y-114839800D02*
X166968586Y-114839800D01*
X171155869Y-114839800D02*
X171400000Y-114839800D01*
X162510691Y-90220000D02*
X162465058Y-90273708D01*
X162391581Y-90437111D01*
X162366428Y-90614500D01*
X162366428Y-92898000D01*
X162276261Y-92898000D01*
X162241227Y-92785959D01*
X162192884Y-92712935D01*
X162227730Y-92660785D01*
X162275597Y-92545223D01*
X162300000Y-92422542D01*
X162300000Y-92045750D01*
X162300000Y-91474250D01*
X162300000Y-91097458D01*
X162275597Y-90974777D01*
X162227730Y-90859215D01*
X162158237Y-90755211D01*
X162069789Y-90666763D01*
X161965785Y-90597270D01*
X161850223Y-90549403D01*
X161727542Y-90525000D01*
X161602458Y-90525000D01*
X161575750Y-90525000D01*
X161417000Y-90683750D01*
X161417000Y-91633000D01*
X162141250Y-91633000D01*
X162300000Y-91474250D01*
X162300000Y-92045750D01*
X162141250Y-91887000D01*
X161417000Y-91887000D01*
X161417000Y-91907000D01*
X161163000Y-91907000D01*
X161163000Y-91887000D01*
X161163000Y-91633000D01*
X161163000Y-90683750D01*
X161004250Y-90525000D01*
X160977542Y-90525000D01*
X160852458Y-90525000D01*
X160729777Y-90549403D01*
X160614215Y-90597270D01*
X160510211Y-90666763D01*
X160421763Y-90755211D01*
X160352270Y-90859215D01*
X160304403Y-90974777D01*
X160280000Y-91097458D01*
X160280000Y-91474250D01*
X160438750Y-91633000D01*
X161163000Y-91633000D01*
X161163000Y-91887000D01*
X160438750Y-91887000D01*
X160280000Y-92045750D01*
X160280000Y-92422542D01*
X160304403Y-92545223D01*
X160321319Y-92586063D01*
X160212389Y-92537081D01*
X160035000Y-92511928D01*
X158735000Y-92511928D01*
X158631957Y-92520303D01*
X158581622Y-92536042D01*
X158581622Y-91710510D01*
X158573247Y-91607467D01*
X158519777Y-91436469D01*
X158420876Y-91287076D01*
X158284342Y-91171068D01*
X158120939Y-91097591D01*
X157943550Y-91072438D01*
X152444450Y-91072438D01*
X152341407Y-91080813D01*
X152170409Y-91134283D01*
X152021016Y-91233184D01*
X151905008Y-91369718D01*
X151831531Y-91533121D01*
X151806378Y-91710510D01*
X151806378Y-93709490D01*
X151814753Y-93812533D01*
X151868223Y-93983531D01*
X151967124Y-94132924D01*
X152103658Y-94248932D01*
X152267061Y-94322409D01*
X152444450Y-94347562D01*
X154432000Y-94347562D01*
X154432000Y-95552812D01*
X154380959Y-95568773D01*
X154307935Y-95617115D01*
X154255785Y-95582270D01*
X154140223Y-95534403D01*
X154017542Y-95510000D01*
X153640750Y-95510000D01*
X153482000Y-95668750D01*
X153482000Y-96393000D01*
X153502000Y-96393000D01*
X153502000Y-96647000D01*
X153482000Y-96647000D01*
X153482000Y-97371250D01*
X153640750Y-97530000D01*
X154017542Y-97530000D01*
X154140223Y-97505597D01*
X154255785Y-97457730D01*
X154303832Y-97425626D01*
X154314208Y-97434442D01*
X154477611Y-97507919D01*
X154493000Y-97510101D01*
X154493000Y-97816928D01*
X154405000Y-97816928D01*
X154301957Y-97825303D01*
X154130959Y-97878773D01*
X153981566Y-97977674D01*
X153865558Y-98114208D01*
X153792081Y-98277611D01*
X153766928Y-98455000D01*
X153766928Y-98493000D01*
X153228000Y-98493000D01*
X153228000Y-97371250D01*
X153228000Y-96647000D01*
X153228000Y-96393000D01*
X153228000Y-95668750D01*
X153069250Y-95510000D01*
X152692458Y-95510000D01*
X152569777Y-95534403D01*
X152454215Y-95582270D01*
X152350211Y-95651763D01*
X152261763Y-95740211D01*
X152192270Y-95844215D01*
X152144403Y-95959777D01*
X152120000Y-96082458D01*
X152120000Y-96207542D01*
X152120000Y-96234250D01*
X152278750Y-96393000D01*
X153228000Y-96393000D01*
X153228000Y-96647000D01*
X152278750Y-96647000D01*
X152120000Y-96805750D01*
X152120000Y-96832458D01*
X152120000Y-96957542D01*
X152144403Y-97080223D01*
X152192270Y-97195785D01*
X152261763Y-97299789D01*
X152350211Y-97388237D01*
X152454215Y-97457730D01*
X152569777Y-97505597D01*
X152692458Y-97530000D01*
X153069250Y-97530000D01*
X153228000Y-97371250D01*
X153228000Y-98493000D01*
X152045000Y-98493000D01*
X151960630Y-98493000D01*
X150937002Y-97469372D01*
X150937002Y-97371252D01*
X151095750Y-97530000D01*
X151472542Y-97530000D01*
X151595223Y-97505597D01*
X151710785Y-97457730D01*
X151814789Y-97388237D01*
X151903237Y-97299789D01*
X151972730Y-97195785D01*
X152020597Y-97080223D01*
X152045000Y-96957542D01*
X152045000Y-96832458D01*
X152045000Y-96805750D01*
X152045000Y-96234250D01*
X152045000Y-96207542D01*
X152045000Y-96082458D01*
X152020597Y-95959777D01*
X151972730Y-95844215D01*
X151903237Y-95740211D01*
X151814789Y-95651763D01*
X151710785Y-95582270D01*
X151595223Y-95534403D01*
X151472542Y-95510000D01*
X151095750Y-95510000D01*
X150937000Y-95668750D01*
X150937000Y-96393000D01*
X151886250Y-96393000D01*
X152045000Y-96234250D01*
X152045000Y-96805750D01*
X151886250Y-96647000D01*
X150937000Y-96647000D01*
X150937000Y-96667000D01*
X150683000Y-96667000D01*
X150683000Y-96647000D01*
X150663000Y-96647000D01*
X150663000Y-96393000D01*
X150683000Y-96393000D01*
X150683000Y-95668750D01*
X150524250Y-95510000D01*
X150147458Y-95510000D01*
X150024777Y-95534403D01*
X149909215Y-95582270D01*
X149861167Y-95614373D01*
X149850792Y-95605558D01*
X149687389Y-95532081D01*
X149510000Y-95506928D01*
X148310000Y-95506928D01*
X148206957Y-95515303D01*
X148035959Y-95568773D01*
X147886566Y-95667674D01*
X147809819Y-95758000D01*
X147000630Y-95758000D01*
X146558000Y-95315370D01*
X146558000Y-94347562D01*
X148545550Y-94347562D01*
X148648593Y-94339187D01*
X148819591Y-94285717D01*
X148968984Y-94186816D01*
X149084992Y-94050282D01*
X149158469Y-93886879D01*
X149183622Y-93709490D01*
X149183622Y-91710510D01*
X149175247Y-91607467D01*
X149121777Y-91436469D01*
X149022876Y-91287076D01*
X148886342Y-91171068D01*
X148722939Y-91097591D01*
X148545550Y-91072438D01*
X143046450Y-91072438D01*
X142943407Y-91080813D01*
X142772409Y-91134283D01*
X142623016Y-91233184D01*
X142507008Y-91369718D01*
X142433531Y-91533121D01*
X142408378Y-91710510D01*
X142408378Y-93709490D01*
X142416753Y-93812533D01*
X142470223Y-93983531D01*
X142569124Y-94132924D01*
X142705658Y-94248932D01*
X142869061Y-94322409D01*
X143046450Y-94347562D01*
X145034000Y-94347562D01*
X145034000Y-95631000D01*
X139700000Y-95631000D01*
X139618295Y-95639011D01*
X139536467Y-95646170D01*
X139531974Y-95647475D01*
X139527326Y-95647931D01*
X139448716Y-95671664D01*
X139408072Y-95683472D01*
X139408072Y-94079000D01*
X139408072Y-91031000D01*
X139399697Y-90927957D01*
X139346227Y-90756959D01*
X139247326Y-90607566D01*
X139110792Y-90491558D01*
X138947389Y-90418081D01*
X138770000Y-90392928D01*
X136230000Y-90392928D01*
X136126957Y-90401303D01*
X135955959Y-90454773D01*
X135806566Y-90553674D01*
X135690558Y-90690208D01*
X135617081Y-90853611D01*
X135591928Y-91031000D01*
X135591928Y-93837303D01*
X135582627Y-93807559D01*
X135483726Y-93658166D01*
X135362000Y-93554739D01*
X135362000Y-93325000D01*
X135355130Y-93254936D01*
X135348997Y-93184830D01*
X135347879Y-93180982D01*
X135347488Y-93176993D01*
X135327135Y-93109581D01*
X135307506Y-93042018D01*
X135305662Y-93038462D01*
X135304504Y-93034624D01*
X135271443Y-92972446D01*
X135239067Y-92909986D01*
X135236568Y-92906855D01*
X135234686Y-92903316D01*
X135190199Y-92848769D01*
X135146286Y-92793760D01*
X135140787Y-92788185D01*
X135140693Y-92788069D01*
X135140585Y-92787979D01*
X135138815Y-92786185D01*
X134272115Y-91919485D01*
X134249156Y-91803529D01*
X134179302Y-91634052D01*
X134077861Y-91481371D01*
X133948696Y-91351301D01*
X133796727Y-91248796D01*
X133627742Y-91177761D01*
X133448178Y-91140902D01*
X133264874Y-91139623D01*
X133084813Y-91173971D01*
X132914852Y-91242639D01*
X132761467Y-91343012D01*
X132630498Y-91471266D01*
X132526935Y-91622516D01*
X132454722Y-91791001D01*
X132416610Y-91970304D01*
X132414051Y-92153594D01*
X132447142Y-92333890D01*
X132514622Y-92504326D01*
X132613921Y-92658409D01*
X132741258Y-92790270D01*
X132891781Y-92894886D01*
X133059758Y-92968273D01*
X133195484Y-92998114D01*
X133643970Y-93446600D01*
X133635750Y-93446600D01*
X133477000Y-93605350D01*
X133477000Y-95758000D01*
X133497000Y-95758000D01*
X133497000Y-96012000D01*
X133477000Y-96012000D01*
X133477000Y-98164650D01*
X133635750Y-98323400D01*
X133693858Y-98323400D01*
X133818942Y-98323400D01*
X133941623Y-98298997D01*
X133977759Y-98284028D01*
X134016211Y-98301319D01*
X134193600Y-98326472D01*
X135006400Y-98326472D01*
X135109443Y-98318097D01*
X135280441Y-98264627D01*
X135429834Y-98165726D01*
X135545842Y-98029192D01*
X135619319Y-97865789D01*
X135644472Y-97688400D01*
X135644472Y-94323296D01*
X135653773Y-94353041D01*
X135752674Y-94502434D01*
X135889208Y-94618442D01*
X136052611Y-94691919D01*
X136230000Y-94717072D01*
X138770000Y-94717072D01*
X138873043Y-94708697D01*
X139044041Y-94655227D01*
X139193434Y-94556326D01*
X139309442Y-94419792D01*
X139382919Y-94256389D01*
X139408072Y-94079000D01*
X139408072Y-95683472D01*
X139369854Y-95694577D01*
X139365706Y-95696726D01*
X139361228Y-95698079D01*
X139288672Y-95736657D01*
X139215815Y-95774423D01*
X139212163Y-95777337D01*
X139208035Y-95779533D01*
X139200831Y-95785408D01*
X136732010Y-95785408D01*
X136628967Y-95793783D01*
X136457969Y-95847253D01*
X136308576Y-95946154D01*
X136192568Y-96082688D01*
X136119091Y-96246091D01*
X136093938Y-96423480D01*
X136093938Y-97424240D01*
X136102313Y-97527283D01*
X136148324Y-97674427D01*
X136121413Y-97739397D01*
X136097010Y-97862078D01*
X136097010Y-98139250D01*
X136255760Y-98298000D01*
X137855960Y-98298000D01*
X137855960Y-98278000D01*
X138109960Y-98278000D01*
X138109960Y-98298000D01*
X138572978Y-98298000D01*
X139458700Y-98298000D01*
X139710160Y-98298000D01*
X139712700Y-98298000D01*
X140598422Y-98298000D01*
X141808200Y-98298000D01*
X141808200Y-98278000D01*
X142062200Y-98278000D01*
X142062200Y-98298000D01*
X142082200Y-98298000D01*
X142082200Y-98552000D01*
X142062200Y-98552000D01*
X142062200Y-99900740D01*
X142220950Y-100059490D01*
X143872908Y-100059490D01*
X143997992Y-100059490D01*
X144120673Y-100035087D01*
X144236235Y-99987220D01*
X144340239Y-99917727D01*
X144428687Y-99829279D01*
X144498180Y-99725275D01*
X144533048Y-99641094D01*
X144572270Y-99735785D01*
X144641763Y-99839789D01*
X144730211Y-99928237D01*
X144834215Y-99997730D01*
X144949777Y-100045597D01*
X145072458Y-100070000D01*
X145449250Y-100070000D01*
X145608000Y-99911250D01*
X145608000Y-99187000D01*
X145588000Y-99187000D01*
X145588000Y-98933000D01*
X145608000Y-98933000D01*
X145608000Y-98913000D01*
X145862000Y-98913000D01*
X145862000Y-98933000D01*
X145882000Y-98933000D01*
X145882000Y-99187000D01*
X145862000Y-99187000D01*
X145862000Y-99911250D01*
X146020750Y-100070000D01*
X146397542Y-100070000D01*
X146520223Y-100045597D01*
X146635785Y-99997730D01*
X146683832Y-99965626D01*
X146694208Y-99974442D01*
X146746000Y-99997731D01*
X146746000Y-100010000D01*
X146754011Y-100091704D01*
X146761170Y-100173533D01*
X146762475Y-100178025D01*
X146762931Y-100182674D01*
X146786664Y-100261283D01*
X146809577Y-100340146D01*
X146811726Y-100344293D01*
X146813079Y-100348772D01*
X146851647Y-100421308D01*
X146889422Y-100494184D01*
X146892338Y-100497836D01*
X146894533Y-100501965D01*
X146946441Y-100565611D01*
X146961860Y-100584925D01*
X146961860Y-100796828D01*
X146550380Y-100796828D01*
X146447337Y-100805203D01*
X146276339Y-100858673D01*
X146126946Y-100957574D01*
X146052742Y-101044906D01*
X146042857Y-101030111D01*
X145954409Y-100941663D01*
X145850405Y-100872170D01*
X145734843Y-100824303D01*
X145612162Y-100799900D01*
X145608000Y-100799900D01*
X144534890Y-100799900D01*
X144376140Y-100958650D01*
X144376140Y-102108000D01*
X144396140Y-102108000D01*
X144396140Y-102362000D01*
X144376140Y-102362000D01*
X144376140Y-103511350D01*
X144534890Y-103670100D01*
X145612162Y-103670100D01*
X145734843Y-103645697D01*
X145850405Y-103597830D01*
X145954409Y-103528337D01*
X146042857Y-103439889D01*
X146051825Y-103426467D01*
X146073054Y-103458534D01*
X146209588Y-103574542D01*
X146372991Y-103648019D01*
X146550380Y-103673172D01*
X149151340Y-103673172D01*
X149254383Y-103664797D01*
X149425381Y-103611327D01*
X149574774Y-103512426D01*
X149690782Y-103375892D01*
X149764259Y-103212489D01*
X149776806Y-103124000D01*
X150194977Y-103124000D01*
X150204758Y-103128273D01*
X150383790Y-103167636D01*
X150567058Y-103171475D01*
X150747581Y-103139644D01*
X150918484Y-103073355D01*
X151073256Y-102975134D01*
X151206002Y-102848721D01*
X151311667Y-102698931D01*
X151386225Y-102531471D01*
X151426837Y-102352718D01*
X151429760Y-102143346D01*
X151394156Y-101963529D01*
X151324302Y-101794052D01*
X151222861Y-101641371D01*
X151093696Y-101511301D01*
X150941727Y-101408796D01*
X150772742Y-101337761D01*
X150593178Y-101300902D01*
X150409874Y-101299623D01*
X150229813Y-101333971D01*
X150200039Y-101346000D01*
X149782186Y-101346000D01*
X149781037Y-101331857D01*
X149727567Y-101160859D01*
X149628666Y-101011466D01*
X149492132Y-100895458D01*
X149328729Y-100821981D01*
X149151340Y-100796828D01*
X148739860Y-100796828D01*
X148739860Y-100225860D01*
X148731848Y-100144155D01*
X148724690Y-100062327D01*
X148723384Y-100057834D01*
X148722929Y-100053186D01*
X148699195Y-99974576D01*
X148676283Y-99895714D01*
X148674868Y-99892984D01*
X148774442Y-99775792D01*
X148847919Y-99612389D01*
X148873072Y-99435000D01*
X148873072Y-98685000D01*
X148864697Y-98581957D01*
X148811227Y-98410959D01*
X148712326Y-98261566D01*
X148575792Y-98145558D01*
X148524000Y-98122268D01*
X148524000Y-98105000D01*
X148515988Y-98023295D01*
X148508830Y-97941467D01*
X148507524Y-97936974D01*
X148507069Y-97932326D01*
X148483335Y-97853716D01*
X148460423Y-97774854D01*
X148458273Y-97770706D01*
X148456921Y-97766228D01*
X148418331Y-97693651D01*
X148380577Y-97620816D01*
X148377663Y-97617166D01*
X148375467Y-97613035D01*
X148323536Y-97549361D01*
X148310532Y-97533072D01*
X148845442Y-97533072D01*
X151106185Y-99793815D01*
X151160599Y-99838512D01*
X151214495Y-99883736D01*
X151218002Y-99885664D01*
X151221103Y-99888211D01*
X151283168Y-99921489D01*
X151344816Y-99955381D01*
X151348636Y-99956592D01*
X151352167Y-99958486D01*
X151419464Y-99979060D01*
X151486571Y-100000348D01*
X151490554Y-100000794D01*
X151494385Y-100001966D01*
X151564372Y-100009075D01*
X151634361Y-100016926D01*
X151642197Y-100016980D01*
X151642340Y-100016995D01*
X151642473Y-100016982D01*
X151645000Y-100017000D01*
X151951910Y-100017000D01*
X151890558Y-100089208D01*
X151817081Y-100252611D01*
X151791928Y-100430000D01*
X151791928Y-100980000D01*
X151800303Y-101083043D01*
X151808877Y-101110464D01*
X151791928Y-101230000D01*
X151791928Y-101780000D01*
X151800303Y-101883043D01*
X151808877Y-101910464D01*
X151791928Y-102030000D01*
X151791928Y-102580000D01*
X151800303Y-102683043D01*
X151808877Y-102710464D01*
X151791928Y-102830000D01*
X151791928Y-103380000D01*
X151800303Y-103483043D01*
X151808877Y-103510464D01*
X151791928Y-103630000D01*
X151791928Y-104180000D01*
X151800303Y-104283043D01*
X151808877Y-104310464D01*
X151791928Y-104430000D01*
X151791928Y-104980000D01*
X151800303Y-105083043D01*
X151808877Y-105110464D01*
X151791928Y-105230000D01*
X151791928Y-105629297D01*
X151033815Y-104871185D01*
X150979400Y-104826487D01*
X150925505Y-104781264D01*
X150921997Y-104779335D01*
X150918897Y-104776789D01*
X150856831Y-104743510D01*
X150795184Y-104709619D01*
X150791363Y-104708407D01*
X150787833Y-104706514D01*
X150720535Y-104685939D01*
X150653429Y-104664652D01*
X150649445Y-104664205D01*
X150645615Y-104663034D01*
X150575627Y-104655924D01*
X150505639Y-104648074D01*
X150497802Y-104648019D01*
X150497660Y-104648005D01*
X150497526Y-104648017D01*
X150495000Y-104648000D01*
X146050000Y-104648000D01*
X145979936Y-104654869D01*
X145909830Y-104661003D01*
X145905982Y-104662120D01*
X145901993Y-104662512D01*
X145834627Y-104682850D01*
X145767018Y-104702493D01*
X145763457Y-104704338D01*
X145759624Y-104705496D01*
X145697482Y-104738537D01*
X145634986Y-104770933D01*
X145631855Y-104773431D01*
X145628316Y-104775314D01*
X145573769Y-104819800D01*
X145518760Y-104863714D01*
X145513181Y-104869215D01*
X145513069Y-104869307D01*
X145512983Y-104869410D01*
X145511185Y-104871184D01*
X144876185Y-105506185D01*
X144831487Y-105560599D01*
X144786264Y-105614495D01*
X144784335Y-105618002D01*
X144781789Y-105621103D01*
X144748510Y-105683168D01*
X144714619Y-105744816D01*
X144713407Y-105748636D01*
X144711514Y-105752167D01*
X144690939Y-105819464D01*
X144672444Y-105877766D01*
X144668582Y-105875914D01*
X144377770Y-105801420D01*
X144122140Y-105787495D01*
X144122140Y-103511350D01*
X144122140Y-102362000D01*
X144122140Y-102108000D01*
X144122140Y-100958650D01*
X143963390Y-100799900D01*
X142886118Y-100799900D01*
X142763437Y-100824303D01*
X142647875Y-100872170D01*
X142543871Y-100941663D01*
X142455423Y-101030111D01*
X142385930Y-101134115D01*
X142338063Y-101249677D01*
X142313660Y-101372358D01*
X142313660Y-101497442D01*
X142313660Y-101949250D01*
X142472410Y-102108000D01*
X144122140Y-102108000D01*
X144122140Y-102362000D01*
X142472410Y-102362000D01*
X142313660Y-102520750D01*
X142313660Y-102972558D01*
X142313660Y-103097642D01*
X142338063Y-103220323D01*
X142385930Y-103335885D01*
X142455423Y-103439889D01*
X142543871Y-103528337D01*
X142647875Y-103597830D01*
X142763437Y-103645697D01*
X142886118Y-103670100D01*
X143963390Y-103670100D01*
X144122140Y-103511350D01*
X144122140Y-105787495D01*
X144078012Y-105785092D01*
X143780829Y-105827557D01*
X143497641Y-105927184D01*
X143350727Y-106005711D01*
X143268374Y-106258769D01*
X144145000Y-107135395D01*
X144159142Y-107121252D01*
X144338747Y-107300857D01*
X144324605Y-107315000D01*
X144338747Y-107329142D01*
X144159142Y-107508747D01*
X144145000Y-107494605D01*
X143965395Y-107674210D01*
X143965395Y-107315000D01*
X143088769Y-106438374D01*
X142835711Y-106520727D01*
X142705914Y-106791418D01*
X142631420Y-107082230D01*
X142615092Y-107381988D01*
X142657557Y-107679171D01*
X142757184Y-107962359D01*
X142835711Y-108109273D01*
X143088769Y-108191626D01*
X143965395Y-107315000D01*
X143965395Y-107674210D01*
X143268374Y-108371231D01*
X143331701Y-108565827D01*
X143185435Y-108661542D01*
X142971899Y-108870652D01*
X142803047Y-109117255D01*
X142685309Y-109391959D01*
X142623170Y-109684299D01*
X142618997Y-109983142D01*
X142672949Y-110277104D01*
X142782971Y-110554988D01*
X142944872Y-110806210D01*
X143152486Y-111021200D01*
X143302110Y-111125191D01*
X143185435Y-111201542D01*
X142971899Y-111410652D01*
X142803047Y-111657255D01*
X142685309Y-111931959D01*
X142623170Y-112224299D01*
X142618997Y-112523142D01*
X142672949Y-112817104D01*
X142782971Y-113094988D01*
X142944872Y-113346210D01*
X143152486Y-113561200D01*
X143256000Y-113633144D01*
X143256000Y-113665000D01*
X143264011Y-113746704D01*
X143271170Y-113828533D01*
X143272475Y-113833025D01*
X143272931Y-113837674D01*
X143296664Y-113916283D01*
X143319577Y-113995146D01*
X143321726Y-113999293D01*
X143323079Y-114003772D01*
X143361647Y-114076308D01*
X143399422Y-114149184D01*
X143402338Y-114152836D01*
X143404533Y-114156965D01*
X143456441Y-114220611D01*
X143507667Y-114284780D01*
X143514083Y-114291287D01*
X143514192Y-114291420D01*
X143514314Y-114291521D01*
X143516382Y-114293618D01*
X144107763Y-114885000D01*
X141482631Y-114885000D01*
X141524442Y-114835792D01*
X141597919Y-114672389D01*
X141623072Y-114495000D01*
X141623072Y-112995000D01*
X141614697Y-112891957D01*
X141561227Y-112720959D01*
X141462326Y-112571566D01*
X141325792Y-112455558D01*
X141187794Y-112393505D01*
X141259041Y-112371227D01*
X141408434Y-112272326D01*
X141524442Y-112135792D01*
X141597919Y-111972389D01*
X141623072Y-111795000D01*
X141623072Y-110295000D01*
X141614697Y-110191957D01*
X141580985Y-110084147D01*
X141647484Y-110058355D01*
X141802256Y-109960134D01*
X141935002Y-109833721D01*
X142040667Y-109683931D01*
X142115225Y-109516471D01*
X142155837Y-109337718D01*
X142158760Y-109128346D01*
X142123156Y-108948529D01*
X142053302Y-108779052D01*
X141951861Y-108626371D01*
X141822696Y-108496301D01*
X141670727Y-108393796D01*
X141501742Y-108322761D01*
X141322178Y-108285902D01*
X141138874Y-108284623D01*
X140958813Y-108318971D01*
X140788852Y-108387639D01*
X140635467Y-108488012D01*
X140504498Y-108616266D01*
X140500100Y-108622689D01*
X140500100Y-107895390D01*
X140500100Y-107323890D01*
X140500100Y-106047228D01*
X140475697Y-105924547D01*
X140427830Y-105808985D01*
X140358337Y-105704981D01*
X140269889Y-105616533D01*
X140165885Y-105547040D01*
X140050323Y-105499173D01*
X139927642Y-105474770D01*
X139802558Y-105474770D01*
X139350750Y-105474770D01*
X139192000Y-105633520D01*
X139192000Y-107482640D01*
X140341350Y-107482640D01*
X140500100Y-107323890D01*
X140500100Y-107895390D01*
X140341350Y-107736640D01*
X139192000Y-107736640D01*
X139192000Y-109585760D01*
X139350750Y-109744510D01*
X139372082Y-109744510D01*
X139261566Y-109817674D01*
X139145558Y-109954208D01*
X139072081Y-110117611D01*
X139046928Y-110295000D01*
X139046928Y-111795000D01*
X139055303Y-111898043D01*
X139108773Y-112069041D01*
X139207674Y-112218434D01*
X139344208Y-112334442D01*
X139482205Y-112396494D01*
X139410959Y-112418773D01*
X139261566Y-112517674D01*
X139145558Y-112654208D01*
X139072081Y-112817611D01*
X139048629Y-112983000D01*
X138985000Y-112983000D01*
X138938000Y-112987608D01*
X138938000Y-109585760D01*
X138938000Y-107736640D01*
X138938000Y-107482640D01*
X138938000Y-105633520D01*
X138779250Y-105474770D01*
X138327442Y-105474770D01*
X138202358Y-105474770D01*
X138079677Y-105499173D01*
X137964115Y-105547040D01*
X137860111Y-105616533D01*
X137771663Y-105704981D01*
X137702170Y-105808985D01*
X137654303Y-105924547D01*
X137629900Y-106047228D01*
X137629900Y-107323890D01*
X137788650Y-107482640D01*
X138938000Y-107482640D01*
X138938000Y-107736640D01*
X137788650Y-107736640D01*
X137629900Y-107895390D01*
X137629900Y-109172052D01*
X137654303Y-109294733D01*
X137702170Y-109410295D01*
X137771663Y-109514299D01*
X137860111Y-109602747D01*
X137964115Y-109672240D01*
X138079677Y-109720107D01*
X138202358Y-109744510D01*
X138327442Y-109744510D01*
X138779250Y-109744510D01*
X138938000Y-109585760D01*
X138938000Y-112987608D01*
X138914890Y-112989874D01*
X138844829Y-112996004D01*
X138840985Y-112997120D01*
X138836993Y-112997512D01*
X138769552Y-113017873D01*
X138702018Y-113037494D01*
X138698462Y-113039337D01*
X138694624Y-113040496D01*
X138656318Y-113060863D01*
X138632362Y-113040508D01*
X138610480Y-113030668D01*
X138696359Y-112973287D01*
X138784807Y-112884839D01*
X138854300Y-112780835D01*
X138902167Y-112665273D01*
X138926570Y-112542592D01*
X138926570Y-112365750D01*
X138926570Y-111794250D01*
X138926570Y-111617408D01*
X138902167Y-111494727D01*
X138854300Y-111379165D01*
X138784807Y-111275161D01*
X138696359Y-111186713D01*
X138592355Y-111117220D01*
X138476793Y-111069353D01*
X138354112Y-111044950D01*
X138229028Y-111044950D01*
X137676890Y-111044950D01*
X137518140Y-111203700D01*
X137518140Y-111953000D01*
X138767820Y-111953000D01*
X138926570Y-111794250D01*
X138926570Y-112365750D01*
X138767820Y-112207000D01*
X137518140Y-112207000D01*
X137518140Y-112227000D01*
X137264140Y-112227000D01*
X137264140Y-112207000D01*
X137264140Y-111953000D01*
X137264140Y-111203700D01*
X137105390Y-111044950D01*
X136553252Y-111044950D01*
X136428168Y-111044950D01*
X136305487Y-111069353D01*
X136189925Y-111117220D01*
X136085921Y-111186713D01*
X135997473Y-111275161D01*
X135927980Y-111379165D01*
X135880113Y-111494727D01*
X135855710Y-111617408D01*
X135855710Y-111794250D01*
X136014460Y-111953000D01*
X137264140Y-111953000D01*
X137264140Y-112207000D01*
X136014460Y-112207000D01*
X135865525Y-112355934D01*
X135865517Y-112355909D01*
X135766616Y-112206516D01*
X135630082Y-112090508D01*
X135466679Y-112017031D01*
X135289290Y-111991878D01*
X135129109Y-111991878D01*
X135116009Y-111948487D01*
X135096367Y-111880878D01*
X135094521Y-111877317D01*
X135093364Y-111873484D01*
X135060322Y-111811342D01*
X135027927Y-111748846D01*
X135025428Y-111745715D01*
X135023546Y-111742176D01*
X134979059Y-111687629D01*
X134935146Y-111632620D01*
X134929644Y-111627041D01*
X134929553Y-111626929D01*
X134929449Y-111626843D01*
X134927676Y-111625045D01*
X134834030Y-111531400D01*
X135215942Y-111531400D01*
X135338623Y-111506997D01*
X135454185Y-111459130D01*
X135558189Y-111389637D01*
X135646637Y-111301189D01*
X135716130Y-111197185D01*
X135763997Y-111081623D01*
X135788400Y-110958942D01*
X135788400Y-110833858D01*
X135788400Y-110775750D01*
X135629650Y-110617000D01*
X133477000Y-110617000D01*
X133477000Y-110637000D01*
X133223000Y-110637000D01*
X133223000Y-110617000D01*
X131070350Y-110617000D01*
X130943350Y-110744000D01*
X130302000Y-110744000D01*
X130302000Y-110005287D01*
X130351781Y-110039886D01*
X130519758Y-110113273D01*
X130698790Y-110152636D01*
X130882058Y-110156475D01*
X130911600Y-110151265D01*
X130911600Y-110204250D01*
X131070350Y-110363000D01*
X133223000Y-110363000D01*
X133223000Y-110343000D01*
X133477000Y-110343000D01*
X133477000Y-110363000D01*
X135629650Y-110363000D01*
X135788400Y-110204250D01*
X135788400Y-110146142D01*
X135788400Y-110021058D01*
X135763997Y-109898377D01*
X135749028Y-109862240D01*
X135766319Y-109823789D01*
X135791472Y-109646400D01*
X135791472Y-108833600D01*
X135783097Y-108730557D01*
X135748343Y-108619414D01*
X135763997Y-108581623D01*
X135788400Y-108458942D01*
X135788400Y-108333858D01*
X135788400Y-108275750D01*
X135629650Y-108117000D01*
X133477000Y-108117000D01*
X133477000Y-108137000D01*
X133223000Y-108137000D01*
X133223000Y-108117000D01*
X131070350Y-108117000D01*
X130911600Y-108275750D01*
X130911600Y-108286604D01*
X130908178Y-108285902D01*
X130724874Y-108284623D01*
X130544813Y-108318971D01*
X130374852Y-108387639D01*
X130302000Y-108435312D01*
X130302000Y-107175236D01*
X130495382Y-107368618D01*
X130558826Y-107420731D01*
X130621744Y-107473526D01*
X130625841Y-107475778D01*
X130629453Y-107478745D01*
X130701825Y-107517550D01*
X130773786Y-107557111D01*
X130778240Y-107558524D01*
X130782362Y-107560734D01*
X130860929Y-107584754D01*
X130911600Y-107600828D01*
X130911600Y-107646142D01*
X130911600Y-107704250D01*
X131070350Y-107863000D01*
X133223000Y-107863000D01*
X133223000Y-107843000D01*
X133477000Y-107843000D01*
X133477000Y-107863000D01*
X135629650Y-107863000D01*
X135788400Y-107704250D01*
X135788400Y-107646142D01*
X135788400Y-107521058D01*
X135763997Y-107398377D01*
X135749028Y-107362240D01*
X135766319Y-107323789D01*
X135791472Y-107146400D01*
X135791472Y-106333600D01*
X135783097Y-106230557D01*
X135748343Y-106119414D01*
X135763997Y-106081623D01*
X135788400Y-105958942D01*
X135788400Y-105833858D01*
X135788400Y-105775750D01*
X135629650Y-105617000D01*
X133477000Y-105617000D01*
X133477000Y-105637000D01*
X133223000Y-105637000D01*
X133223000Y-105617000D01*
X133203000Y-105617000D01*
X133203000Y-105363000D01*
X133223000Y-105363000D01*
X133223000Y-105343000D01*
X133477000Y-105343000D01*
X133477000Y-105363000D01*
X135629650Y-105363000D01*
X135788400Y-105204250D01*
X135788400Y-105146142D01*
X135788400Y-105029000D01*
X136144000Y-105029000D01*
X136225704Y-105020988D01*
X136307533Y-105013830D01*
X136312025Y-105012524D01*
X136316674Y-105012069D01*
X136395283Y-104988335D01*
X136474146Y-104965423D01*
X136478293Y-104963273D01*
X136482772Y-104961921D01*
X136555308Y-104923352D01*
X136628184Y-104885578D01*
X136631836Y-104882661D01*
X136635965Y-104880467D01*
X136699611Y-104828558D01*
X136763780Y-104777333D01*
X136770287Y-104770916D01*
X136770420Y-104770808D01*
X136770521Y-104770685D01*
X136772618Y-104768618D01*
X137441876Y-104099360D01*
X137626828Y-104099360D01*
X137626828Y-104710230D01*
X137635203Y-104813273D01*
X137688673Y-104984271D01*
X137787574Y-105133664D01*
X137924108Y-105249672D01*
X138087511Y-105323149D01*
X138264900Y-105348302D01*
X139865100Y-105348302D01*
X139968143Y-105339927D01*
X140139141Y-105286457D01*
X140288534Y-105187556D01*
X140404542Y-105051022D01*
X140478019Y-104887619D01*
X140503172Y-104710230D01*
X140503172Y-101710490D01*
X140494797Y-101607447D01*
X140441327Y-101436449D01*
X140342426Y-101287056D01*
X140205892Y-101171048D01*
X140042489Y-101097571D01*
X139954000Y-101085023D01*
X139954000Y-100965000D01*
X139945988Y-100883295D01*
X139938830Y-100801467D01*
X139937524Y-100796974D01*
X139937069Y-100792326D01*
X139913335Y-100713716D01*
X139890423Y-100634854D01*
X139888273Y-100630706D01*
X139886921Y-100626228D01*
X139852771Y-100562001D01*
X139871982Y-100426520D01*
X139871982Y-100059405D01*
X139872408Y-100059490D01*
X139997492Y-100059490D01*
X141649450Y-100059490D01*
X141808200Y-99900740D01*
X141808200Y-98552000D01*
X140598422Y-98552000D01*
X139712700Y-98552000D01*
X139710160Y-98552000D01*
X139458700Y-98552000D01*
X138572978Y-98552000D01*
X138109960Y-98552000D01*
X138109960Y-98572000D01*
X137855960Y-98572000D01*
X137855960Y-98552000D01*
X136255760Y-98552000D01*
X136097010Y-98710750D01*
X136097010Y-98987922D01*
X136121413Y-99110603D01*
X136150003Y-99179626D01*
X136119091Y-99248371D01*
X136093938Y-99425760D01*
X136093938Y-100426520D01*
X136102313Y-100529563D01*
X136155783Y-100700561D01*
X136254684Y-100849954D01*
X136391218Y-100965962D01*
X136554621Y-101039439D01*
X136732010Y-101064592D01*
X137907356Y-101064592D01*
X137982536Y-101139772D01*
X137841466Y-101233164D01*
X137725458Y-101369698D01*
X137651981Y-101533101D01*
X137626828Y-101710490D01*
X137626828Y-102321360D01*
X137073640Y-102321360D01*
X136991885Y-102329376D01*
X136910107Y-102336531D01*
X136905619Y-102337834D01*
X136900966Y-102338291D01*
X136822314Y-102362037D01*
X136743494Y-102384937D01*
X136739346Y-102387086D01*
X136734868Y-102388439D01*
X136662312Y-102427017D01*
X136589455Y-102464783D01*
X136585803Y-102467697D01*
X136581675Y-102469893D01*
X136518023Y-102521806D01*
X136453860Y-102573027D01*
X136447352Y-102579443D01*
X136447220Y-102579552D01*
X136447118Y-102579674D01*
X136445022Y-102581742D01*
X135775764Y-103251000D01*
X135763650Y-103251000D01*
X135629650Y-103117000D01*
X133477000Y-103117000D01*
X133477000Y-103137000D01*
X133223000Y-103137000D01*
X133223000Y-103117000D01*
X131070350Y-103117000D01*
X130911600Y-103275750D01*
X130911600Y-103333858D01*
X130911600Y-103356137D01*
X130882295Y-103359011D01*
X130800467Y-103366170D01*
X130795974Y-103367475D01*
X130791326Y-103367931D01*
X130712716Y-103391664D01*
X130633854Y-103414577D01*
X130629706Y-103416726D01*
X130625228Y-103418079D01*
X130552691Y-103456647D01*
X130479816Y-103494422D01*
X130476163Y-103497338D01*
X130472035Y-103499533D01*
X130408388Y-103551441D01*
X130344220Y-103602667D01*
X130337712Y-103609083D01*
X130337580Y-103609192D01*
X130337478Y-103609314D01*
X130335382Y-103611382D01*
X130302000Y-103644764D01*
X130302000Y-102550630D01*
X130350630Y-102502000D01*
X130915390Y-102502000D01*
X130911600Y-102521058D01*
X130911600Y-102646142D01*
X130911600Y-102704250D01*
X131070350Y-102863000D01*
X133223000Y-102863000D01*
X133223000Y-102843000D01*
X133477000Y-102843000D01*
X133477000Y-102863000D01*
X135629650Y-102863000D01*
X135788400Y-102704250D01*
X135788400Y-102646142D01*
X135788400Y-102521058D01*
X135763997Y-102398377D01*
X135749028Y-102362240D01*
X135766319Y-102323789D01*
X135791472Y-102146400D01*
X135791472Y-101333600D01*
X135783097Y-101230557D01*
X135729627Y-101059559D01*
X135630726Y-100910166D01*
X135494192Y-100794158D01*
X135330789Y-100720681D01*
X135153400Y-100695528D01*
X133223000Y-100695528D01*
X133223000Y-98164650D01*
X133223000Y-96012000D01*
X133223000Y-95758000D01*
X133223000Y-93605350D01*
X133064250Y-93446600D01*
X133006142Y-93446600D01*
X132881058Y-93446600D01*
X132758377Y-93471003D01*
X132642815Y-93518870D01*
X132538811Y-93588363D01*
X132450363Y-93676811D01*
X132380870Y-93780815D01*
X132358072Y-93835854D01*
X132358072Y-91031000D01*
X132349697Y-90927957D01*
X132296227Y-90756959D01*
X132197326Y-90607566D01*
X132060792Y-90491558D01*
X131897389Y-90418081D01*
X131720000Y-90392928D01*
X129180000Y-90392928D01*
X129076957Y-90401303D01*
X128905959Y-90454773D01*
X128756566Y-90553674D01*
X128640558Y-90690208D01*
X128567081Y-90853611D01*
X128541928Y-91031000D01*
X128541928Y-94079000D01*
X128550303Y-94182043D01*
X128603773Y-94353041D01*
X128702674Y-94502434D01*
X128839208Y-94618442D01*
X129002611Y-94691919D01*
X129180000Y-94717072D01*
X131720000Y-94717072D01*
X131823043Y-94708697D01*
X131994041Y-94655227D01*
X132143434Y-94556326D01*
X132259442Y-94419792D01*
X132308600Y-94310471D01*
X132308600Y-95599250D01*
X132467350Y-95758000D01*
X133223000Y-95758000D01*
X133223000Y-96012000D01*
X132467350Y-96012000D01*
X132308600Y-96170750D01*
X132308600Y-97750942D01*
X132333003Y-97873623D01*
X132380870Y-97989185D01*
X132450363Y-98093189D01*
X132538811Y-98181637D01*
X132642815Y-98251130D01*
X132758377Y-98298997D01*
X132881058Y-98323400D01*
X133006142Y-98323400D01*
X133064250Y-98323400D01*
X133223000Y-98164650D01*
X133223000Y-100695528D01*
X131788296Y-100695528D01*
X131818041Y-100686227D01*
X131967434Y-100587326D01*
X132083442Y-100450792D01*
X132156919Y-100287389D01*
X132182072Y-100110000D01*
X132182072Y-97570000D01*
X132173697Y-97466957D01*
X132120227Y-97295959D01*
X132021326Y-97146566D01*
X131884792Y-97030558D01*
X131721389Y-96957081D01*
X131544000Y-96931928D01*
X128496000Y-96931928D01*
X128392957Y-96940303D01*
X128221959Y-96993773D01*
X128072566Y-97092674D01*
X127956558Y-97229208D01*
X127883081Y-97392611D01*
X127857928Y-97570000D01*
X127857928Y-100110000D01*
X127866303Y-100213043D01*
X127919773Y-100384041D01*
X128018674Y-100533434D01*
X128155208Y-100649442D01*
X128318611Y-100722919D01*
X128496000Y-100748072D01*
X131302303Y-100748072D01*
X131272559Y-100757373D01*
X131123166Y-100856274D01*
X131019739Y-100978000D01*
X130035000Y-100978000D01*
X129964936Y-100984869D01*
X129894830Y-100991003D01*
X129890982Y-100992120D01*
X129886993Y-100992512D01*
X129819581Y-101012864D01*
X129752018Y-101032494D01*
X129748462Y-101034337D01*
X129744624Y-101035496D01*
X129682446Y-101068556D01*
X129619986Y-101100933D01*
X129616855Y-101103431D01*
X129613316Y-101105314D01*
X129558769Y-101149800D01*
X129503760Y-101193714D01*
X129498181Y-101199215D01*
X129498069Y-101199307D01*
X129497983Y-101199410D01*
X129496185Y-101201184D01*
X129001185Y-101696185D01*
X128956487Y-101750599D01*
X128911264Y-101804495D01*
X128909335Y-101808002D01*
X128906789Y-101811103D01*
X128873510Y-101873168D01*
X128839619Y-101934816D01*
X128838407Y-101938636D01*
X128836514Y-101942167D01*
X128815939Y-102009464D01*
X128794652Y-102076571D01*
X128794205Y-102080554D01*
X128793034Y-102084385D01*
X128785924Y-102154372D01*
X128778074Y-102224361D01*
X128778019Y-102232197D01*
X128778005Y-102232340D01*
X128778017Y-102232473D01*
X128778000Y-102235000D01*
X128778000Y-111125000D01*
X128784874Y-111195113D01*
X128791004Y-111265170D01*
X128792120Y-111269012D01*
X128792512Y-111273007D01*
X128812877Y-111340459D01*
X128832494Y-111407982D01*
X128834337Y-111411537D01*
X128835496Y-111415376D01*
X128868556Y-111477553D01*
X128870824Y-111481928D01*
X128496000Y-111481928D01*
X128392957Y-111490303D01*
X128221959Y-111543773D01*
X128072566Y-111642674D01*
X127956558Y-111779208D01*
X127883081Y-111942611D01*
X127857928Y-112120000D01*
X127857928Y-114660000D01*
X127866303Y-114763043D01*
X127904438Y-114885000D01*
X127685000Y-114885000D01*
X127685000Y-90220000D01*
X162510691Y-90220000D01*
X157082369Y-100410000D02*
X157082369Y-100410000D01*
X158682369Y-100410000D02*
X158682369Y-100410000D01*
X156871050Y-100613200D02*
X157288950Y-100613200D01*
X158471050Y-100613200D02*
X158888950Y-100613200D01*
X154668072Y-100816400D02*
X160291928Y-100816400D01*
X154662457Y-101019600D02*
X160295147Y-101019600D01*
X154667486Y-101222800D02*
X160292948Y-101222800D01*
X154668072Y-101426000D02*
X160291928Y-101426000D01*
X154668072Y-101629200D02*
X160291928Y-101629200D01*
X154660642Y-101832400D02*
X160296187Y-101832400D01*
X154668072Y-102035600D02*
X160291928Y-102035600D01*
X154668072Y-102238800D02*
X160291928Y-102238800D01*
X154668072Y-102442000D02*
X160291928Y-102442000D01*
X154658827Y-102645200D02*
X160297228Y-102645200D01*
X154668072Y-102848400D02*
X160291928Y-102848400D01*
X154668072Y-103051600D02*
X160291928Y-103051600D01*
X154668072Y-103254800D02*
X160291928Y-103254800D01*
X154657012Y-103458000D02*
X160298268Y-103458000D01*
X154668072Y-103661200D02*
X160291928Y-103661200D01*
X154668072Y-103864400D02*
X154724986Y-103864400D01*
X155152651Y-103864400D02*
X160291928Y-103864400D01*
X155554881Y-104067600D02*
X160291928Y-104067600D01*
X155727277Y-104270800D02*
X160299308Y-104270800D01*
X155826984Y-104474000D02*
X160291928Y-104474000D01*
X155873543Y-104677200D02*
X160291928Y-104677200D01*
X155872009Y-104880400D02*
X160291928Y-104880400D01*
X155825825Y-105083600D02*
X160300478Y-105083600D01*
X155722900Y-105286800D02*
X160291928Y-105286800D01*
X155693526Y-105490000D02*
X160291928Y-105490000D01*
X155806046Y-105693200D02*
X160291928Y-105693200D01*
X155863484Y-105896400D02*
X160304480Y-105896400D01*
X155872719Y-106099600D02*
X160291928Y-106099600D01*
X155840011Y-106302800D02*
X160291928Y-106302800D01*
X127685000Y-90220000D02*
X162510691Y-90220000D01*
X127685000Y-90423200D02*
X129006930Y-90423200D01*
X131908772Y-90423200D02*
X136056930Y-90423200D01*
X138958772Y-90423200D02*
X162397836Y-90423200D01*
X127685000Y-90626400D02*
X128694773Y-90626400D01*
X132209794Y-90626400D02*
X135744773Y-90626400D01*
X139259794Y-90626400D02*
X160570618Y-90626400D01*
X161105650Y-90626400D02*
X161474350Y-90626400D01*
X162009381Y-90626400D02*
X162366428Y-90626400D01*
X127685000Y-90829600D02*
X128577877Y-90829600D01*
X132318941Y-90829600D02*
X135627877Y-90829600D01*
X139368941Y-90829600D02*
X160372058Y-90829600D01*
X161163000Y-90829600D02*
X161417000Y-90829600D01*
X162207941Y-90829600D02*
X162366428Y-90829600D01*
X127685000Y-91032800D02*
X128541928Y-91032800D01*
X132358072Y-91032800D02*
X135591928Y-91032800D01*
X139408072Y-91032800D02*
X160292861Y-91032800D01*
X161163000Y-91032800D02*
X161417000Y-91032800D01*
X162287138Y-91032800D02*
X162366428Y-91032800D01*
X127685000Y-91236000D02*
X128541928Y-91236000D01*
X132358072Y-91236000D02*
X132931284Y-91236000D01*
X133766286Y-91236000D02*
X135591928Y-91236000D01*
X139408072Y-91236000D02*
X142620623Y-91236000D01*
X148962762Y-91236000D02*
X152018623Y-91236000D01*
X158360762Y-91236000D02*
X160280000Y-91236000D01*
X161163000Y-91236000D02*
X161417000Y-91236000D01*
X162300000Y-91236000D02*
X162366428Y-91236000D01*
X127685000Y-91439200D02*
X128541928Y-91439200D01*
X132358072Y-91439200D02*
X132663242Y-91439200D01*
X134035983Y-91439200D02*
X135591928Y-91439200D01*
X139408072Y-91439200D02*
X142475764Y-91439200D01*
X149122630Y-91439200D02*
X151873764Y-91439200D01*
X158520630Y-91439200D02*
X160280000Y-91439200D01*
X161163000Y-91439200D02*
X161417000Y-91439200D01*
X162300000Y-91439200D02*
X162366428Y-91439200D01*
X127685000Y-91642400D02*
X128541928Y-91642400D01*
X132358072Y-91642400D02*
X132518412Y-91642400D01*
X134182742Y-91642400D02*
X135591928Y-91642400D01*
X139408072Y-91642400D02*
X142418035Y-91642400D01*
X149178086Y-91642400D02*
X151816035Y-91642400D01*
X158576086Y-91642400D02*
X161163000Y-91642400D01*
X161163000Y-91642400D02*
X162300000Y-91642400D01*
X162300000Y-91642400D02*
X162366428Y-91642400D01*
X127685000Y-91845600D02*
X128541928Y-91845600D01*
X132358072Y-91845600D02*
X132443116Y-91845600D01*
X134257485Y-91845600D02*
X135591928Y-91845600D01*
X139408072Y-91845600D02*
X142408378Y-91845600D01*
X149183622Y-91845600D02*
X151806378Y-91845600D01*
X158581622Y-91845600D02*
X161163000Y-91845600D01*
X161163000Y-91845600D02*
X162300000Y-91845600D01*
X162300000Y-91845600D02*
X162366428Y-91845600D01*
X127685000Y-92048800D02*
X128541928Y-92048800D01*
X132358072Y-92048800D02*
X132415514Y-92048800D01*
X134401430Y-92048800D02*
X135591928Y-92048800D01*
X139408072Y-92048800D02*
X142408378Y-92048800D01*
X149183622Y-92048800D02*
X151806378Y-92048800D01*
X158581622Y-92048800D02*
X160280000Y-92048800D01*
X162300000Y-92048800D02*
X162366428Y-92048800D01*
X127685000Y-92252000D02*
X128541928Y-92252000D01*
X132358072Y-92252000D02*
X132432113Y-92252000D01*
X134604630Y-92252000D02*
X135591928Y-92252000D01*
X139408072Y-92252000D02*
X142408378Y-92252000D01*
X149183622Y-92252000D02*
X151806378Y-92252000D01*
X158581622Y-92252000D02*
X160280000Y-92252000D01*
X162300000Y-92252000D02*
X162366428Y-92252000D01*
X127685000Y-92455200D02*
X128541928Y-92455200D01*
X132358072Y-92455200D02*
X132495172Y-92455200D01*
X134807830Y-92455200D02*
X135591928Y-92455200D01*
X139408072Y-92455200D02*
X142408378Y-92455200D01*
X149183622Y-92455200D02*
X151806378Y-92455200D01*
X158581622Y-92455200D02*
X160286497Y-92455200D01*
X162293504Y-92455200D02*
X162366428Y-92455200D01*
X127685000Y-92658400D02*
X128541928Y-92658400D01*
X132358072Y-92658400D02*
X132613916Y-92658400D01*
X135011030Y-92658400D02*
X135591928Y-92658400D01*
X139408072Y-92658400D02*
X142408378Y-92658400D01*
X149183622Y-92658400D02*
X151806378Y-92658400D01*
X162228718Y-92658400D02*
X162366428Y-92658400D01*
X127685000Y-92861600D02*
X128541928Y-92861600D01*
X132358072Y-92861600D02*
X132843889Y-92861600D01*
X135200663Y-92861600D02*
X135591928Y-92861600D01*
X139408072Y-92861600D02*
X142408378Y-92861600D01*
X149183622Y-92861600D02*
X151806378Y-92861600D01*
X162264879Y-92861600D02*
X162366428Y-92861600D01*
X127685000Y-93064800D02*
X128541928Y-93064800D01*
X132358072Y-93064800D02*
X133262170Y-93064800D01*
X135314124Y-93064800D02*
X135591928Y-93064800D01*
X139408072Y-93064800D02*
X142408378Y-93064800D01*
X149183622Y-93064800D02*
X151806378Y-93064800D01*
X127685000Y-93268000D02*
X128541928Y-93268000D01*
X132358072Y-93268000D02*
X133465370Y-93268000D01*
X135356410Y-93268000D02*
X135591928Y-93268000D01*
X139408072Y-93268000D02*
X142408378Y-93268000D01*
X149183622Y-93268000D02*
X151806378Y-93268000D01*
X127685000Y-93471200D02*
X128541928Y-93471200D01*
X132358072Y-93471200D02*
X132757901Y-93471200D01*
X133088850Y-93471200D02*
X133611150Y-93471200D01*
X135362000Y-93471200D02*
X135591928Y-93471200D01*
X139408072Y-93471200D02*
X142408378Y-93471200D01*
X149183622Y-93471200D02*
X151806378Y-93471200D01*
X127685000Y-93674400D02*
X128541928Y-93674400D01*
X132358072Y-93674400D02*
X132452774Y-93674400D01*
X133223000Y-93674400D02*
X133477000Y-93674400D01*
X135494473Y-93674400D02*
X135591928Y-93674400D01*
X139408072Y-93674400D02*
X142408378Y-93674400D01*
X149183622Y-93674400D02*
X151806378Y-93674400D01*
X127685000Y-93877600D02*
X128541928Y-93877600D01*
X133223000Y-93877600D02*
X133477000Y-93877600D01*
X139408072Y-93877600D02*
X142437100Y-93877600D01*
X149159785Y-93877600D02*
X151835100Y-93877600D01*
X127685000Y-94080800D02*
X128542075Y-94080800D01*
X133223000Y-94080800D02*
X133477000Y-94080800D01*
X139407817Y-94080800D02*
X139408072Y-94080800D01*
X139408072Y-94080800D02*
X142534617Y-94080800D01*
X149059062Y-94080800D02*
X151932617Y-94080800D01*
X127685000Y-94284000D02*
X128582185Y-94284000D01*
X133223000Y-94284000D02*
X133477000Y-94284000D01*
X139370504Y-94284000D02*
X139408072Y-94284000D01*
X139408072Y-94284000D02*
X142783645Y-94284000D01*
X148822185Y-94284000D02*
X152181645Y-94284000D01*
X127685000Y-94487200D02*
X128692589Y-94487200D01*
X132202168Y-94487200D02*
X132308600Y-94487200D01*
X133223000Y-94487200D02*
X133477000Y-94487200D01*
X135644472Y-94487200D02*
X135742589Y-94487200D01*
X139252168Y-94487200D02*
X139408072Y-94487200D01*
X139408072Y-94487200D02*
X145034000Y-94487200D01*
X146558000Y-94487200D02*
X154432000Y-94487200D01*
X127685000Y-94690400D02*
X128999233Y-94690400D01*
X131881558Y-94690400D02*
X132308600Y-94690400D01*
X133223000Y-94690400D02*
X133477000Y-94690400D01*
X135644472Y-94690400D02*
X136049233Y-94690400D01*
X138931558Y-94690400D02*
X139408072Y-94690400D01*
X139408072Y-94690400D02*
X145034000Y-94690400D01*
X146558000Y-94690400D02*
X154432000Y-94690400D01*
X127685000Y-94893600D02*
X132308600Y-94893600D01*
X133223000Y-94893600D02*
X133477000Y-94893600D01*
X135644472Y-94893600D02*
X139408072Y-94893600D01*
X139408072Y-94893600D02*
X145034000Y-94893600D01*
X146558000Y-94893600D02*
X154432000Y-94893600D01*
X127685000Y-95096800D02*
X132308600Y-95096800D01*
X133223000Y-95096800D02*
X133477000Y-95096800D01*
X135644472Y-95096800D02*
X139408072Y-95096800D01*
X139408072Y-95096800D02*
X145034000Y-95096800D01*
X146558000Y-95096800D02*
X154432000Y-95096800D01*
X127685000Y-95300000D02*
X132308600Y-95300000D01*
X133223000Y-95300000D02*
X133477000Y-95300000D01*
X135644472Y-95300000D02*
X139408072Y-95300000D01*
X139408072Y-95300000D02*
X145034000Y-95300000D01*
X146558000Y-95300000D02*
X154432000Y-95300000D01*
X127685000Y-95503200D02*
X132308600Y-95503200D01*
X133223000Y-95503200D02*
X133477000Y-95503200D01*
X135644472Y-95503200D02*
X139408072Y-95503200D01*
X139408072Y-95503200D02*
X145034000Y-95503200D01*
X146745830Y-95503200D02*
X154432000Y-95503200D01*
X127685000Y-95706400D02*
X132415750Y-95706400D01*
X133223000Y-95706400D02*
X133477000Y-95706400D01*
X135644472Y-95706400D02*
X139345578Y-95706400D01*
X146949030Y-95706400D02*
X147853661Y-95706400D01*
X150683000Y-95706400D02*
X150937000Y-95706400D01*
X151869426Y-95706400D02*
X152295574Y-95706400D01*
X153228000Y-95706400D02*
X153482000Y-95706400D01*
X127685000Y-95909600D02*
X133223000Y-95909600D01*
X133223000Y-95909600D02*
X133497000Y-95909600D01*
X135644472Y-95909600D02*
X136363791Y-95909600D01*
X150683000Y-95909600D02*
X150937000Y-95909600D01*
X151999813Y-95909600D02*
X152165186Y-95909600D01*
X153228000Y-95909600D02*
X153482000Y-95909600D01*
X127685000Y-96112800D02*
X132366550Y-96112800D01*
X133223000Y-96112800D02*
X133477000Y-96112800D01*
X135644472Y-96112800D02*
X136179027Y-96112800D01*
X150683000Y-96112800D02*
X150937000Y-96112800D01*
X152045000Y-96112800D02*
X152120000Y-96112800D01*
X153228000Y-96112800D02*
X153482000Y-96112800D01*
X127685000Y-96316000D02*
X132308600Y-96316000D01*
X133223000Y-96316000D02*
X133477000Y-96316000D01*
X135644472Y-96316000D02*
X136109178Y-96316000D01*
X150683000Y-96316000D02*
X150937000Y-96316000D01*
X151963250Y-96316000D02*
X152045000Y-96316000D01*
X152045000Y-96316000D02*
X152201750Y-96316000D01*
X153228000Y-96316000D02*
X153482000Y-96316000D01*
X127685000Y-96519200D02*
X132308600Y-96519200D01*
X133223000Y-96519200D02*
X133477000Y-96519200D01*
X135644472Y-96519200D02*
X136093938Y-96519200D01*
X150663000Y-96519200D02*
X152045000Y-96519200D01*
X152045000Y-96519200D02*
X153228000Y-96519200D01*
X153228000Y-96519200D02*
X153502000Y-96519200D01*
X127685000Y-96722400D02*
X132308600Y-96722400D01*
X133223000Y-96722400D02*
X133477000Y-96722400D01*
X135644472Y-96722400D02*
X136093938Y-96722400D01*
X151961650Y-96722400D02*
X152045000Y-96722400D01*
X152045000Y-96722400D02*
X152203350Y-96722400D01*
X153228000Y-96722400D02*
X153482000Y-96722400D01*
X127685000Y-96925600D02*
X132308600Y-96925600D01*
X133223000Y-96925600D02*
X133477000Y-96925600D01*
X135644472Y-96925600D02*
X136093938Y-96925600D01*
X152045000Y-96925600D02*
X152120000Y-96925600D01*
X153228000Y-96925600D02*
X153482000Y-96925600D01*
X127685000Y-97128800D02*
X128041871Y-97128800D01*
X132000416Y-97128800D02*
X132308600Y-97128800D01*
X133223000Y-97128800D02*
X133477000Y-97128800D01*
X135644472Y-97128800D02*
X136093938Y-97128800D01*
X152000476Y-97128800D02*
X152164525Y-97128800D01*
X153228000Y-97128800D02*
X153482000Y-97128800D01*
X127685000Y-97332000D02*
X127910335Y-97332000D01*
X132131496Y-97332000D02*
X132308600Y-97332000D01*
X133223000Y-97332000D02*
X133477000Y-97332000D01*
X135644472Y-97332000D02*
X136093938Y-97332000D01*
X151871026Y-97332000D02*
X152293974Y-97332000D01*
X153228000Y-97332000D02*
X153482000Y-97332000D01*
X127685000Y-97535200D02*
X127862862Y-97535200D01*
X132179243Y-97535200D02*
X132308600Y-97535200D01*
X133223000Y-97535200D02*
X133477000Y-97535200D01*
X135644472Y-97535200D02*
X136104789Y-97535200D01*
X148312230Y-97535200D02*
X148847570Y-97535200D01*
X151002830Y-97535200D02*
X153228000Y-97535200D01*
X153228000Y-97535200D02*
X154493000Y-97535200D01*
X127685000Y-97738400D02*
X127857928Y-97738400D01*
X132182072Y-97738400D02*
X132308600Y-97738400D01*
X133223000Y-97738400D02*
X133477000Y-97738400D01*
X135637383Y-97738400D02*
X136121825Y-97738400D01*
X148442124Y-97738400D02*
X149050770Y-97738400D01*
X151206030Y-97738400D02*
X153228000Y-97738400D01*
X153228000Y-97738400D02*
X154493000Y-97738400D01*
X127685000Y-97941600D02*
X127857928Y-97941600D01*
X132182072Y-97941600D02*
X132361160Y-97941600D01*
X133223000Y-97941600D02*
X133477000Y-97941600D01*
X135585230Y-97941600D02*
X136097010Y-97941600D01*
X148508841Y-97941600D02*
X149253970Y-97941600D01*
X151409230Y-97941600D02*
X153228000Y-97941600D01*
X153228000Y-97941600D02*
X154036056Y-97941600D01*
X127685000Y-98144800D02*
X127857928Y-98144800D01*
X132182072Y-98144800D02*
X132501974Y-98144800D01*
X133223000Y-98144800D02*
X133477000Y-98144800D01*
X135447615Y-98144800D02*
X136102560Y-98144800D01*
X148574106Y-98144800D02*
X149457170Y-98144800D01*
X151612430Y-98144800D02*
X153228000Y-98144800D01*
X153228000Y-98144800D02*
X153851801Y-98144800D01*
X127685000Y-98348000D02*
X127857928Y-98348000D01*
X132182072Y-98348000D02*
X133223000Y-98348000D01*
X133223000Y-98348000D02*
X142082200Y-98348000D01*
X148769546Y-98348000D02*
X149660370Y-98348000D01*
X151815630Y-98348000D02*
X153228000Y-98348000D01*
X153228000Y-98348000D02*
X153782100Y-98348000D01*
X127685000Y-98551200D02*
X127857928Y-98551200D01*
X132182072Y-98551200D02*
X133223000Y-98551200D01*
X133223000Y-98551200D02*
X142082200Y-98551200D01*
X148855079Y-98551200D02*
X149863570Y-98551200D01*
X127685000Y-98754400D02*
X127857928Y-98754400D01*
X132182072Y-98754400D02*
X133223000Y-98754400D01*
X133223000Y-98754400D02*
X136097010Y-98754400D01*
X141808200Y-98754400D02*
X142062200Y-98754400D01*
X148873072Y-98754400D02*
X150066770Y-98754400D01*
X127685000Y-98957600D02*
X127857928Y-98957600D01*
X132182072Y-98957600D02*
X133223000Y-98957600D01*
X133223000Y-98957600D02*
X136097010Y-98957600D01*
X141808200Y-98957600D02*
X142062200Y-98957600D01*
X145588000Y-98957600D02*
X145882000Y-98957600D01*
X148873072Y-98957600D02*
X150269970Y-98957600D01*
X127685000Y-99160800D02*
X127857928Y-99160800D01*
X132182072Y-99160800D02*
X133223000Y-99160800D01*
X133223000Y-99160800D02*
X136142206Y-99160800D01*
X141808200Y-99160800D02*
X142062200Y-99160800D01*
X145588000Y-99160800D02*
X145882000Y-99160800D01*
X148873072Y-99160800D02*
X150473170Y-99160800D01*
X127685000Y-99364000D02*
X127857928Y-99364000D01*
X132182072Y-99364000D02*
X133223000Y-99364000D01*
X133223000Y-99364000D02*
X136102695Y-99364000D01*
X141808200Y-99364000D02*
X142062200Y-99364000D01*
X145608000Y-99364000D02*
X145862000Y-99364000D01*
X148873072Y-99364000D02*
X150676370Y-99364000D01*
X127685000Y-99567200D02*
X127857928Y-99567200D01*
X132182072Y-99567200D02*
X133223000Y-99567200D01*
X133223000Y-99567200D02*
X136093938Y-99567200D01*
X141808200Y-99567200D02*
X142062200Y-99567200D01*
X145608000Y-99567200D02*
X145862000Y-99567200D01*
X148854327Y-99567200D02*
X150879570Y-99567200D01*
X127685000Y-99770400D02*
X127857928Y-99770400D01*
X132182072Y-99770400D02*
X133223000Y-99770400D01*
X133223000Y-99770400D02*
X136093938Y-99770400D01*
X141808200Y-99770400D02*
X142062200Y-99770400D01*
X144468029Y-99770400D02*
X144595399Y-99770400D01*
X145608000Y-99770400D02*
X145862000Y-99770400D01*
X148776867Y-99770400D02*
X151082770Y-99770400D01*
X127685000Y-99973600D02*
X127857928Y-99973600D01*
X132182072Y-99973600D02*
X133223000Y-99973600D01*
X133223000Y-99973600D02*
X136093938Y-99973600D01*
X141735340Y-99973600D02*
X142135060Y-99973600D01*
X144256619Y-99973600D02*
X144798102Y-99973600D01*
X145545650Y-99973600D02*
X145924350Y-99973600D01*
X146671899Y-99973600D02*
X146693218Y-99973600D01*
X148698911Y-99973600D02*
X151401605Y-99973600D01*
X127685000Y-100176800D02*
X127863358Y-100176800D01*
X132172601Y-100176800D02*
X133223000Y-100176800D01*
X133223000Y-100176800D02*
X136093938Y-100176800D01*
X139871982Y-100176800D02*
X146762120Y-100176800D01*
X148735049Y-100176800D02*
X151851170Y-100176800D01*
X127685000Y-100380000D02*
X127918510Y-100380000D01*
X132115275Y-100380000D02*
X133223000Y-100380000D01*
X133223000Y-100380000D02*
X136093938Y-100380000D01*
X139871982Y-100380000D02*
X146829684Y-100380000D01*
X148739860Y-100380000D02*
X151799017Y-100380000D01*
X127685000Y-100583200D02*
X128077246Y-100583200D01*
X131970940Y-100583200D02*
X133223000Y-100583200D01*
X133223000Y-100583200D02*
X136119085Y-100583200D01*
X139864042Y-100583200D02*
X146960483Y-100583200D01*
X148739860Y-100583200D02*
X151791928Y-100583200D01*
X127685000Y-100786400D02*
X131228712Y-100786400D01*
X135476939Y-100786400D02*
X136212611Y-100786400D01*
X139935279Y-100786400D02*
X146961860Y-100786400D01*
X148739860Y-100786400D02*
X151791928Y-100786400D01*
X127685000Y-100989600D02*
X129910865Y-100989600D01*
X135683312Y-100989600D02*
X136443786Y-100989600D01*
X139954000Y-100989600D02*
X142495934Y-100989600D01*
X144122140Y-100989600D02*
X144376140Y-100989600D01*
X146002346Y-100989600D02*
X146099734Y-100989600D01*
X149602931Y-100989600D02*
X151792709Y-100989600D01*
X127685000Y-101192800D02*
X129504904Y-101192800D01*
X135771290Y-101192800D02*
X137902436Y-101192800D01*
X140231492Y-101192800D02*
X142361622Y-101192800D01*
X144122140Y-101192800D02*
X144376140Y-101192800D01*
X149737554Y-101192800D02*
X151797202Y-101192800D01*
X127685000Y-101396000D02*
X129301369Y-101396000D01*
X135791472Y-101396000D02*
X137713630Y-101396000D01*
X140414548Y-101396000D02*
X142313660Y-101396000D01*
X144122140Y-101396000D02*
X144376140Y-101396000D01*
X150911286Y-101396000D02*
X151791928Y-101396000D01*
X127685000Y-101599200D02*
X129098169Y-101599200D01*
X135791472Y-101599200D02*
X137642608Y-101599200D01*
X140492218Y-101599200D02*
X142313660Y-101599200D01*
X144122140Y-101599200D02*
X144376140Y-101599200D01*
X151180983Y-101599200D02*
X151791928Y-101599200D01*
X127685000Y-101802400D02*
X128913021Y-101802400D01*
X135791472Y-101802400D02*
X137626828Y-101802400D01*
X140503172Y-101802400D02*
X142313660Y-101802400D01*
X144122140Y-101802400D02*
X144376140Y-101802400D01*
X151327742Y-101802400D02*
X151793749Y-101802400D01*
X127685000Y-102005600D02*
X128817120Y-102005600D01*
X135791472Y-102005600D02*
X137626828Y-102005600D01*
X140503172Y-102005600D02*
X142370010Y-102005600D01*
X144122140Y-102005600D02*
X144376140Y-102005600D01*
X151402486Y-102005600D02*
X151795387Y-102005600D01*
X127685000Y-102208800D02*
X128779819Y-102208800D01*
X135782624Y-102208800D02*
X137626828Y-102208800D01*
X140503172Y-102208800D02*
X144122140Y-102208800D01*
X144122140Y-102208800D02*
X144396140Y-102208800D01*
X151428847Y-102208800D02*
X151791928Y-102208800D01*
X127685000Y-102412000D02*
X128778000Y-102412000D01*
X135766706Y-102412000D02*
X136690555Y-102412000D01*
X140503172Y-102412000D02*
X142422410Y-102412000D01*
X144122140Y-102412000D02*
X144376140Y-102412000D01*
X151413369Y-102412000D02*
X151791928Y-102412000D01*
X127685000Y-102615200D02*
X128778000Y-102615200D01*
X130302000Y-102615200D02*
X130911600Y-102615200D01*
X135788400Y-102615200D02*
X136411564Y-102615200D01*
X140503172Y-102615200D02*
X142313660Y-102615200D01*
X144122140Y-102615200D02*
X144376140Y-102615200D01*
X151348947Y-102615200D02*
X151794789Y-102615200D01*
X127685000Y-102818400D02*
X128778000Y-102818400D01*
X130302000Y-102818400D02*
X131025750Y-102818400D01*
X135674250Y-102818400D02*
X136208364Y-102818400D01*
X140503172Y-102818400D02*
X142313660Y-102818400D01*
X144122140Y-102818400D02*
X144376140Y-102818400D01*
X151227392Y-102818400D02*
X151793572Y-102818400D01*
X127685000Y-103021600D02*
X128778000Y-103021600D01*
X130302000Y-103021600D02*
X136005164Y-103021600D01*
X140503172Y-103021600D02*
X142313660Y-103021600D01*
X144122140Y-103021600D02*
X144376140Y-103021600D01*
X151000038Y-103021600D02*
X151791928Y-103021600D01*
X127685000Y-103224800D02*
X128778000Y-103224800D01*
X130302000Y-103224800D02*
X130962550Y-103224800D01*
X135737450Y-103224800D02*
X135801964Y-103224800D01*
X140503172Y-103224800D02*
X142339918Y-103224800D01*
X144122140Y-103224800D02*
X144376140Y-103224800D01*
X149758724Y-103224800D02*
X151791928Y-103224800D01*
X127685000Y-103428000D02*
X128778000Y-103428000D01*
X130302000Y-103428000D02*
X130606569Y-103428000D01*
X140503172Y-103428000D02*
X142447480Y-103428000D01*
X144122140Y-103428000D02*
X144376140Y-103428000D01*
X146050801Y-103428000D02*
X146052840Y-103428000D01*
X149646508Y-103428000D02*
X151795830Y-103428000D01*
X127685000Y-103631200D02*
X128778000Y-103631200D01*
X130302000Y-103631200D02*
X130315564Y-103631200D01*
X140503172Y-103631200D02*
X142728438Y-103631200D01*
X144002290Y-103631200D02*
X144122140Y-103631200D01*
X144122140Y-103631200D02*
X144495990Y-103631200D01*
X145769843Y-103631200D02*
X146335588Y-103631200D01*
X149361827Y-103631200D02*
X151791928Y-103631200D01*
X127685000Y-103834400D02*
X128778000Y-103834400D01*
X140503172Y-103834400D02*
X144122140Y-103834400D01*
X144122140Y-103834400D02*
X151791928Y-103834400D01*
X127685000Y-104037600D02*
X128778000Y-104037600D01*
X140503172Y-104037600D02*
X144122140Y-104037600D01*
X144122140Y-104037600D02*
X151791928Y-104037600D01*
X127685000Y-104240800D02*
X128778000Y-104240800D01*
X137300436Y-104240800D02*
X137626828Y-104240800D01*
X140503172Y-104240800D02*
X144122140Y-104240800D01*
X144122140Y-104240800D02*
X151796870Y-104240800D01*
X127685000Y-104444000D02*
X128778000Y-104444000D01*
X137097236Y-104444000D02*
X137626828Y-104444000D01*
X140503172Y-104444000D02*
X144122140Y-104444000D01*
X144122140Y-104444000D02*
X151791928Y-104444000D01*
X127685000Y-104647200D02*
X128778000Y-104647200D01*
X136894036Y-104647200D02*
X137626828Y-104647200D01*
X140503172Y-104647200D02*
X144122140Y-104647200D01*
X144122140Y-104647200D02*
X151791928Y-104647200D01*
X127685000Y-104850400D02*
X128778000Y-104850400D01*
X136672831Y-104850400D02*
X137646813Y-104850400D01*
X140483297Y-104850400D02*
X144122140Y-104850400D01*
X144122140Y-104850400D02*
X145535437Y-104850400D01*
X151008511Y-104850400D02*
X151791928Y-104850400D01*
X127685000Y-105053600D02*
X128778000Y-105053600D01*
X135788400Y-105053600D02*
X137734571Y-105053600D01*
X140402352Y-105053600D02*
X144122140Y-105053600D01*
X144122140Y-105053600D02*
X145328769Y-105053600D01*
X151216230Y-105053600D02*
X151797910Y-105053600D01*
X127685000Y-105256800D02*
X128778000Y-105256800D01*
X135735850Y-105256800D02*
X137939960Y-105256800D01*
X140183939Y-105256800D02*
X144122140Y-105256800D01*
X144122140Y-105256800D02*
X145125569Y-105256800D01*
X151419430Y-105256800D02*
X151791928Y-105256800D01*
X127685000Y-105460000D02*
X128778000Y-105460000D01*
X133203000Y-105460000D02*
X144122140Y-105460000D01*
X144122140Y-105460000D02*
X144922369Y-105460000D01*
X151622630Y-105460000D02*
X151791928Y-105460000D01*
X127685000Y-105663200D02*
X128778000Y-105663200D01*
X135675850Y-105663200D02*
X137813444Y-105663200D01*
X138938000Y-105663200D02*
X139192000Y-105663200D01*
X140316556Y-105663200D02*
X144122140Y-105663200D01*
X144122140Y-105663200D02*
X144759216Y-105663200D01*
X127685000Y-105866400D02*
X128778000Y-105866400D01*
X135788400Y-105866400D02*
X137678388Y-105866400D01*
X138938000Y-105866400D02*
X139192000Y-105866400D01*
X140451611Y-105866400D02*
X143670418Y-105866400D01*
X144631440Y-105866400D02*
X144676049Y-105866400D01*
X127685000Y-106069600D02*
X128778000Y-106069600D01*
X135766389Y-106069600D02*
X137629900Y-106069600D01*
X138938000Y-106069600D02*
X139192000Y-106069600D01*
X140500100Y-106069600D02*
X143329935Y-106069600D01*
X127685000Y-106272800D02*
X128778000Y-106272800D01*
X135786530Y-106272800D02*
X137629900Y-106272800D01*
X138938000Y-106272800D02*
X139192000Y-106272800D01*
X140500100Y-106272800D02*
X143282405Y-106272800D01*
X127685000Y-106476000D02*
X128778000Y-106476000D01*
X135791472Y-106476000D02*
X137629900Y-106476000D01*
X138938000Y-106476000D02*
X139192000Y-106476000D01*
X140500100Y-106476000D02*
X142973150Y-106476000D01*
X143126395Y-106476000D02*
X143485605Y-106476000D01*
X127685000Y-106679200D02*
X128778000Y-106679200D01*
X135791472Y-106679200D02*
X137629900Y-106679200D01*
X138938000Y-106679200D02*
X139192000Y-106679200D01*
X140500100Y-106679200D02*
X142759722Y-106679200D01*
X143329595Y-106679200D02*
X143688805Y-106679200D01*
X127685000Y-106882400D02*
X128778000Y-106882400D01*
X135791472Y-106882400D02*
X137629900Y-106882400D01*
X138938000Y-106882400D02*
X139192000Y-106882400D01*
X140500100Y-106882400D02*
X142682608Y-106882400D01*
X143532795Y-106882400D02*
X143892005Y-106882400D01*
X127685000Y-107085600D02*
X128778000Y-107085600D01*
X135791472Y-107085600D02*
X137629900Y-107085600D01*
X138938000Y-107085600D02*
X139192000Y-107085600D01*
X140500100Y-107085600D02*
X142631236Y-107085600D01*
X143735995Y-107085600D02*
X144095205Y-107085600D01*
X127685000Y-107288800D02*
X128778000Y-107288800D01*
X130302000Y-107288800D02*
X130415564Y-107288800D01*
X135771281Y-107288800D02*
X137629900Y-107288800D01*
X138938000Y-107288800D02*
X139192000Y-107288800D01*
X140500100Y-107288800D02*
X142620168Y-107288800D01*
X143939195Y-107288800D02*
X144326690Y-107288800D01*
X127685000Y-107492000D02*
X128778000Y-107492000D01*
X130302000Y-107492000D02*
X130654174Y-107492000D01*
X135782619Y-107492000D02*
X138938000Y-107492000D01*
X138938000Y-107492000D02*
X140500100Y-107492000D01*
X140500100Y-107492000D02*
X142630812Y-107492000D01*
X143788395Y-107492000D02*
X143965395Y-107492000D01*
X143965395Y-107492000D02*
X144175889Y-107492000D01*
X127685000Y-107695200D02*
X128778000Y-107695200D01*
X130302000Y-107695200D02*
X130911600Y-107695200D01*
X135788400Y-107695200D02*
X138938000Y-107695200D01*
X138938000Y-107695200D02*
X140500100Y-107695200D01*
X140500100Y-107695200D02*
X142663197Y-107695200D01*
X143585195Y-107695200D02*
X143944405Y-107695200D01*
X127685000Y-107898400D02*
X128778000Y-107898400D01*
X130302000Y-107898400D02*
X137629900Y-107898400D01*
X138938000Y-107898400D02*
X139192000Y-107898400D01*
X140500100Y-107898400D02*
X142734683Y-107898400D01*
X143381995Y-107898400D02*
X143741205Y-107898400D01*
X127685000Y-108101600D02*
X128778000Y-108101600D01*
X130302000Y-108101600D02*
X137629900Y-108101600D01*
X138938000Y-108101600D02*
X139192000Y-108101600D01*
X140500100Y-108101600D02*
X142831610Y-108101600D01*
X143178795Y-108101600D02*
X143538005Y-108101600D01*
X127685000Y-108304800D02*
X128778000Y-108304800D01*
X130302000Y-108304800D02*
X130619101Y-108304800D01*
X135788400Y-108304800D02*
X137629900Y-108304800D01*
X138938000Y-108304800D02*
X139192000Y-108304800D01*
X140500100Y-108304800D02*
X141033101Y-108304800D01*
X141414242Y-108304800D02*
X143334805Y-108304800D01*
X127685000Y-108508000D02*
X128778000Y-108508000D01*
X135778642Y-108508000D02*
X137629900Y-108508000D01*
X138938000Y-108508000D02*
X139192000Y-108508000D01*
X140500100Y-108508000D02*
X140615055Y-108508000D01*
X141834313Y-108508000D02*
X143312883Y-108508000D01*
X127685000Y-108711200D02*
X128778000Y-108711200D01*
X135777044Y-108711200D02*
X137629900Y-108711200D01*
X138938000Y-108711200D02*
X139192000Y-108711200D01*
X142008221Y-108711200D02*
X143134725Y-108711200D01*
X127685000Y-108914400D02*
X128778000Y-108914400D01*
X135791472Y-108914400D02*
X137629900Y-108914400D01*
X138938000Y-108914400D02*
X139192000Y-108914400D01*
X142109088Y-108914400D02*
X142941944Y-108914400D01*
X127685000Y-109117600D02*
X128778000Y-109117600D01*
X135791472Y-109117600D02*
X137629900Y-109117600D01*
X138938000Y-109117600D02*
X139192000Y-109117600D01*
X142156632Y-109117600D02*
X142802899Y-109117600D01*
X127685000Y-109320800D02*
X128778000Y-109320800D01*
X135791472Y-109320800D02*
X137665101Y-109320800D01*
X138938000Y-109320800D02*
X139192000Y-109320800D01*
X142156074Y-109320800D02*
X142715807Y-109320800D01*
X127685000Y-109524000D02*
X128778000Y-109524000D01*
X135791472Y-109524000D02*
X137781364Y-109524000D01*
X138938000Y-109524000D02*
X139192000Y-109524000D01*
X142111873Y-109524000D02*
X142657242Y-109524000D01*
X127685000Y-109727200D02*
X128778000Y-109727200D01*
X135780015Y-109727200D02*
X138115336Y-109727200D01*
X138796560Y-109727200D02*
X138938000Y-109727200D01*
X138938000Y-109727200D02*
X139333440Y-109727200D01*
X142010145Y-109727200D02*
X142622570Y-109727200D01*
X127685000Y-109930400D02*
X128778000Y-109930400D01*
X135770366Y-109930400D02*
X138938000Y-109930400D01*
X138938000Y-109930400D02*
X139165786Y-109930400D01*
X141833480Y-109930400D02*
X142619733Y-109930400D01*
X127685000Y-110133600D02*
X128778000Y-110133600D01*
X130302000Y-110133600D02*
X130612210Y-110133600D01*
X135788400Y-110133600D02*
X138938000Y-110133600D01*
X138938000Y-110133600D02*
X139069813Y-110133600D01*
X141596448Y-110133600D02*
X142646612Y-110133600D01*
X127685000Y-110336800D02*
X128778000Y-110336800D01*
X130302000Y-110336800D02*
X131044150Y-110336800D01*
X135655850Y-110336800D02*
X138938000Y-110336800D01*
X138938000Y-110336800D02*
X139046928Y-110336800D01*
X141623072Y-110336800D02*
X142696585Y-110336800D01*
X127685000Y-110540000D02*
X128778000Y-110540000D01*
X130302000Y-110540000D02*
X138938000Y-110540000D01*
X138938000Y-110540000D02*
X139046928Y-110540000D01*
X141623072Y-110540000D02*
X142777037Y-110540000D01*
X127685000Y-110743200D02*
X128778000Y-110743200D01*
X130302000Y-110743200D02*
X130944150Y-110743200D01*
X135755850Y-110743200D02*
X138938000Y-110743200D01*
X138938000Y-110743200D02*
X139046928Y-110743200D01*
X141623072Y-110743200D02*
X142904265Y-110743200D01*
X127685000Y-110946400D02*
X128778000Y-110946400D01*
X135788400Y-110946400D02*
X138938000Y-110946400D01*
X138938000Y-110946400D02*
X139046928Y-110946400D01*
X141623072Y-110946400D02*
X143080253Y-110946400D01*
X127685000Y-111149600D02*
X128780412Y-111149600D01*
X135735841Y-111149600D02*
X136141464Y-111149600D01*
X137210040Y-111149600D02*
X137572240Y-111149600D01*
X138640815Y-111149600D02*
X138938000Y-111149600D01*
X138938000Y-111149600D02*
X139046928Y-111149600D01*
X141623072Y-111149600D02*
X143264809Y-111149600D01*
X127685000Y-111352800D02*
X128816463Y-111352800D01*
X135595026Y-111352800D02*
X135945596Y-111352800D01*
X137264140Y-111352800D02*
X137518140Y-111352800D01*
X138836683Y-111352800D02*
X138938000Y-111352800D01*
X138938000Y-111352800D02*
X139046928Y-111352800D01*
X141623072Y-111352800D02*
X143030975Y-111352800D01*
X127685000Y-111556000D02*
X128203489Y-111556000D01*
X134858630Y-111556000D02*
X135867924Y-111556000D01*
X137264140Y-111556000D02*
X137518140Y-111556000D01*
X138914355Y-111556000D02*
X138938000Y-111556000D01*
X138938000Y-111556000D02*
X139046928Y-111556000D01*
X141623072Y-111556000D02*
X142872377Y-111556000D01*
X127685000Y-111759200D02*
X127973558Y-111759200D01*
X135033294Y-111759200D02*
X135855710Y-111759200D01*
X137264140Y-111759200D02*
X137518140Y-111759200D01*
X138926570Y-111759200D02*
X138938000Y-111759200D01*
X138938000Y-111759200D02*
X139046928Y-111759200D01*
X141623072Y-111759200D02*
X142759353Y-111759200D01*
X127685000Y-111962400D02*
X127880275Y-111962400D01*
X135120209Y-111962400D02*
X137264140Y-111962400D01*
X137264140Y-111962400D02*
X138926570Y-111962400D01*
X138926570Y-111962400D02*
X138938000Y-111962400D01*
X138938000Y-111962400D02*
X139075428Y-111962400D01*
X141599336Y-111962400D02*
X142678838Y-111962400D01*
X127685000Y-112165600D02*
X127857928Y-112165600D01*
X135718460Y-112165600D02*
X137264140Y-112165600D01*
X137264140Y-112165600D02*
X138926570Y-112165600D01*
X138926570Y-112165600D02*
X138938000Y-112165600D01*
X138938000Y-112165600D02*
X139172697Y-112165600D01*
X141499116Y-112165600D02*
X142635646Y-112165600D01*
X127685000Y-112368800D02*
X127857928Y-112368800D01*
X138926570Y-112368800D02*
X138938000Y-112368800D01*
X138938000Y-112368800D02*
X139420617Y-112368800D01*
X141262708Y-112368800D02*
X142621152Y-112368800D01*
X127685000Y-112572000D02*
X127857928Y-112572000D01*
X138920721Y-112572000D02*
X138938000Y-112572000D01*
X138938000Y-112572000D02*
X139215407Y-112572000D01*
X141462613Y-112572000D02*
X142627965Y-112572000D01*
X127685000Y-112775200D02*
X127857928Y-112775200D01*
X138856635Y-112775200D02*
X138938000Y-112775200D01*
X138938000Y-112775200D02*
X139091151Y-112775200D01*
X141578187Y-112775200D02*
X142665259Y-112775200D01*
X127685000Y-112978400D02*
X127857928Y-112978400D01*
X138688707Y-112978400D02*
X138938000Y-112978400D01*
X138938000Y-112978400D02*
X139049281Y-112978400D01*
X141621722Y-112978400D02*
X142736811Y-112978400D01*
X127685000Y-113181600D02*
X127857928Y-113181600D01*
X141623072Y-113181600D02*
X142838789Y-113181600D01*
X127685000Y-113384800D02*
X127857928Y-113384800D01*
X141623072Y-113384800D02*
X142982139Y-113384800D01*
X127685000Y-113588000D02*
X127857928Y-113588000D01*
X141623072Y-113588000D02*
X143191047Y-113588000D01*
X127685000Y-113791200D02*
X127857928Y-113791200D01*
X141623072Y-113791200D02*
X143267904Y-113791200D01*
X127685000Y-113994400D02*
X127857928Y-113994400D01*
X141623072Y-113994400D02*
X143319361Y-113994400D01*
X127685000Y-114197600D02*
X127857928Y-114197600D01*
X141623072Y-114197600D02*
X143437674Y-114197600D01*
X127685000Y-114400800D02*
X127857928Y-114400800D01*
X141623072Y-114400800D02*
X143623564Y-114400800D01*
X127685000Y-114604000D02*
X127857928Y-114604000D01*
X141607617Y-114604000D02*
X143826764Y-114604000D01*
X127685000Y-114807200D02*
X127880111Y-114807200D01*
X141537299Y-114807200D02*
X144029964Y-114807200D01*
X163168072Y-103867000D02*
X163293528Y-103867000D01*
X163168072Y-104070200D02*
X163293528Y-104070200D01*
X163154828Y-104273400D02*
X163293528Y-104273400D01*
X163168072Y-104476600D02*
X163293528Y-104476600D01*
X163168072Y-104679800D02*
X163311396Y-104679800D01*
X163168072Y-104883000D02*
X163307792Y-104883000D01*
X163153013Y-105086200D02*
X163293528Y-105086200D01*
X163168072Y-105289400D02*
X163293528Y-105289400D01*
X163168072Y-105492600D02*
X163293528Y-105492600D01*
X163168072Y-105695800D02*
X163293528Y-105695800D01*
X163151198Y-105899000D02*
X163301867Y-105899000D01*
X163168072Y-106102200D02*
X163312159Y-106102200D01*
X163168072Y-106305400D02*
X163293528Y-106305400D01*
X171091414Y-106305400D02*
X171400000Y-106305400D01*
X163168072Y-106508600D02*
X163293528Y-106508600D01*
X171098970Y-106508600D02*
X171400000Y-106508600D01*
X163149384Y-106711800D02*
X163293528Y-106711800D01*
X171113037Y-106711800D02*
X171400000Y-106711800D01*
X163072047Y-106915000D02*
X163293528Y-106915000D01*
X171085191Y-106915000D02*
X171400000Y-106915000D01*
X162861482Y-107118200D02*
X163299364Y-107118200D01*
X171008124Y-107118200D02*
X171400000Y-107118200D01*
X161197472Y-107321400D02*
X163316527Y-107321400D01*
X170861937Y-107321400D02*
X171400000Y-107321400D01*
X161197472Y-107524600D02*
X163293528Y-107524600D01*
X170587384Y-107524600D02*
X171400000Y-107524600D01*
X161197472Y-107727800D02*
X163293528Y-107727800D01*
X170453911Y-107727800D02*
X171400000Y-107727800D01*
X161197472Y-107931000D02*
X163293528Y-107931000D01*
X170478746Y-107931000D02*
X171400000Y-107931000D01*
X161197472Y-108134200D02*
X163293528Y-108134200D01*
X170461733Y-108134200D02*
X171400000Y-108134200D01*
X161197472Y-108337400D02*
X163296861Y-108337400D01*
X170395741Y-108337400D02*
X171400000Y-108337400D01*
X161197472Y-108540600D02*
X163325700Y-108540600D01*
X170272313Y-108540600D02*
X171400000Y-108540600D01*
X161167233Y-108743800D02*
X163293528Y-108743800D01*
X170038692Y-108743800D02*
X171400000Y-108743800D01*
X161055418Y-108947000D02*
X163293528Y-108947000D01*
X169808525Y-108947000D02*
X171400000Y-108947000D01*
X160773085Y-109150200D02*
X163293528Y-109150200D01*
X169844455Y-109150200D02*
X171400000Y-109150200D01*
X159261682Y-109353400D02*
X163293528Y-109353400D01*
X169838275Y-109353400D02*
X171400000Y-109353400D01*
X159328632Y-109556600D02*
X163294358Y-109556600D01*
X169783359Y-109556600D02*
X171400000Y-109556600D01*
X159552498Y-109759800D02*
X163336411Y-109759800D01*
X169673148Y-109759800D02*
X171400000Y-109759800D01*
X159644388Y-109963000D02*
X163296600Y-109963000D01*
X168173400Y-109963000D02*
X168341157Y-109963000D01*
X169483740Y-109963000D02*
X171400000Y-109963000D01*
X159668072Y-110166200D02*
X163358550Y-110166200D01*
X168111450Y-110166200D02*
X171400000Y-110166200D01*
X159668072Y-110369400D02*
X171400000Y-110369400D01*
X159668072Y-110572600D02*
X163399750Y-110572600D01*
X165608000Y-110572600D02*
X165862000Y-110572600D01*
X168070250Y-110572600D02*
X171400000Y-110572600D01*
X159668072Y-110775800D02*
X163296600Y-110775800D01*
X165608000Y-110775800D02*
X165862000Y-110775800D01*
X168173400Y-110775800D02*
X171400000Y-110775800D01*
X159651908Y-110979000D02*
X163320482Y-110979000D01*
X165608000Y-110979000D02*
X165862000Y-110979000D01*
X168149519Y-110979000D02*
X171400000Y-110979000D01*
X159580051Y-111182200D02*
X163425676Y-111182200D01*
X165608000Y-111182200D02*
X165862000Y-111182200D01*
X168044325Y-111182200D02*
X171400000Y-111182200D01*
X159388369Y-111385400D02*
X163694237Y-111385400D01*
X165495250Y-111385400D02*
X165608000Y-111385400D01*
X165608000Y-111385400D02*
X165974750Y-111385400D01*
X170613485Y-111385400D02*
X171400000Y-111385400D01*
X159319000Y-111588600D02*
X165608000Y-111588600D01*
X165608000Y-111588600D02*
X167078544Y-111588600D01*
X171056950Y-111588600D02*
X171400000Y-111588600D01*
X159319000Y-111791800D02*
X165608000Y-111791800D01*
X165608000Y-111791800D02*
X166950929Y-111791800D01*
X171179561Y-111791800D02*
X171400000Y-111791800D01*
X159319000Y-111995000D02*
X160614015Y-111995000D01*
X162299477Y-111995000D02*
X162812979Y-111995000D01*
X163424250Y-111995000D02*
X163895750Y-111995000D01*
X164507020Y-111995000D02*
X165608000Y-111995000D01*
X165608000Y-111995000D02*
X166906472Y-111995000D01*
X171225040Y-111995000D02*
X171400000Y-111995000D01*
X163533000Y-112198200D02*
X163787000Y-112198200D01*
X164768597Y-112198200D02*
X165608000Y-112198200D01*
X165608000Y-112198200D02*
X166902928Y-112198200D01*
X171227072Y-112198200D02*
X171400000Y-112198200D01*
X163533000Y-112401400D02*
X163787000Y-112401400D01*
X164871914Y-112401400D02*
X165608000Y-112401400D01*
X165608000Y-112401400D02*
X166902928Y-112401400D01*
X171227072Y-112401400D02*
X171400000Y-112401400D01*
X163533000Y-112604600D02*
X163787000Y-112604600D01*
X164895000Y-112604600D02*
X165608000Y-112604600D01*
X165608000Y-112604600D02*
X166902928Y-112604600D01*
X171227072Y-112604600D02*
X171400000Y-112604600D01*
X163533000Y-112807800D02*
X163787000Y-112807800D01*
X164831450Y-112807800D02*
X164895000Y-112807800D01*
X164895000Y-112807800D02*
X165608000Y-112807800D01*
X165608000Y-112807800D02*
X166902928Y-112807800D01*
X171227072Y-112807800D02*
X171400000Y-112807800D01*
X163513000Y-113011000D02*
X164895000Y-113011000D01*
X164895000Y-113011000D02*
X165608000Y-113011000D01*
X165608000Y-113011000D02*
X166902928Y-113011000D01*
X171227072Y-113011000D02*
X171400000Y-113011000D01*
X163533000Y-113214200D02*
X163787000Y-113214200D01*
X164793450Y-113214200D02*
X164895000Y-113214200D01*
X164895000Y-113214200D02*
X165608000Y-113214200D01*
X165608000Y-113214200D02*
X166902928Y-113214200D01*
X171227072Y-113214200D02*
X171400000Y-113214200D01*
X153072317Y-113417400D02*
X153435164Y-113417400D01*
X163533000Y-113417400D02*
X163787000Y-113417400D01*
X164895000Y-113417400D02*
X165608000Y-113417400D01*
X165608000Y-113417400D02*
X166902928Y-113417400D01*
X171227072Y-113417400D02*
X171400000Y-113417400D01*
X153240314Y-113620600D02*
X153638364Y-113620600D01*
X163533000Y-113620600D02*
X163787000Y-113620600D01*
X164879474Y-113620600D02*
X164895000Y-113620600D01*
X164895000Y-113620600D02*
X165608000Y-113620600D01*
X165608000Y-113620600D02*
X166902928Y-113620600D01*
X171227072Y-113620600D02*
X171400000Y-113620600D01*
X153307310Y-113823800D02*
X153912384Y-113823800D01*
X163533000Y-113823800D02*
X163787000Y-113823800D01*
X164793989Y-113823800D02*
X164895000Y-113823800D01*
X164895000Y-113823800D02*
X165608000Y-113823800D01*
X165608000Y-113823800D02*
X166902928Y-113823800D01*
X171227072Y-113823800D02*
X171400000Y-113823800D01*
X153302250Y-114027000D02*
X155816654Y-114027000D01*
X157257659Y-114027000D02*
X157716654Y-114027000D01*
X159157659Y-114027000D02*
X160536016Y-114027000D01*
X162378190Y-114027000D02*
X162735674Y-114027000D01*
X163462250Y-114027000D02*
X163857750Y-114027000D01*
X164584327Y-114027000D02*
X164895000Y-114027000D01*
X164895000Y-114027000D02*
X165608000Y-114027000D01*
X165608000Y-114027000D02*
X166902928Y-114027000D01*
X171227072Y-114027000D02*
X171400000Y-114027000D01*
X151933000Y-114230200D02*
X164895000Y-114230200D01*
X164895000Y-114230200D02*
X165608000Y-114230200D01*
X165608000Y-114230200D02*
X166902928Y-114230200D01*
X171227072Y-114230200D02*
X171400000Y-114230200D01*
X151953000Y-114433400D02*
X152207000Y-114433400D01*
X153162650Y-114433400D02*
X164895000Y-114433400D01*
X164895000Y-114433400D02*
X165608000Y-114433400D01*
X165608000Y-114433400D02*
X166902928Y-114433400D01*
X171227072Y-114433400D02*
X171400000Y-114433400D01*
X153315000Y-114636600D02*
X164895000Y-114636600D01*
X164895000Y-114636600D02*
X165608000Y-114636600D01*
X165608000Y-114636600D02*
X166909154Y-114636600D01*
X171216211Y-114636600D02*
X171400000Y-114636600D01*
X153294660Y-114839800D02*
X164895000Y-114839800D01*
X164895000Y-114839800D02*
X165608000Y-114839800D01*
X165608000Y-114839800D02*
X166968586Y-114839800D01*
X171155869Y-114839800D02*
X171400000Y-114839800D01*
X171400000Y-114885000D02*
X171135543Y-114885000D01*
X171201919Y-114737389D01*
X171227072Y-114560000D01*
X171227072Y-112020000D01*
X171218697Y-111916957D01*
X171165227Y-111745959D01*
X171066326Y-111596566D01*
X170929792Y-111480558D01*
X170766389Y-111407081D01*
X170589000Y-111381928D01*
X167784145Y-111381928D01*
X167839185Y-111359130D01*
X167943189Y-111289637D01*
X168031637Y-111201189D01*
X168101130Y-111097185D01*
X168148997Y-110981623D01*
X168173400Y-110858942D01*
X168173400Y-110733858D01*
X168173400Y-110675750D01*
X168014650Y-110517000D01*
X165862000Y-110517000D01*
X165862000Y-111272650D01*
X166020750Y-111431400D01*
X167306528Y-111431400D01*
X167266959Y-111443773D01*
X167117566Y-111542674D01*
X167001558Y-111679208D01*
X166928081Y-111842611D01*
X166902928Y-112020000D01*
X166902928Y-114560000D01*
X166911303Y-114663043D01*
X166964773Y-114834041D01*
X166998508Y-114885000D01*
X165608000Y-114885000D01*
X165608000Y-111272650D01*
X165608000Y-110517000D01*
X163455350Y-110517000D01*
X163296600Y-110675750D01*
X163296600Y-110733858D01*
X163296600Y-110858942D01*
X163321003Y-110981623D01*
X163368870Y-111097185D01*
X163438363Y-111201189D01*
X163526811Y-111289637D01*
X163630815Y-111359130D01*
X163746377Y-111406997D01*
X163869058Y-111431400D01*
X165449250Y-111431400D01*
X165608000Y-111272650D01*
X165608000Y-114885000D01*
X164895000Y-114885000D01*
X164895000Y-113542542D01*
X164895000Y-113417458D01*
X164895000Y-113315750D01*
X164895000Y-112744250D01*
X164895000Y-112642542D01*
X164895000Y-112517458D01*
X164870597Y-112394777D01*
X164822730Y-112279215D01*
X164753237Y-112175211D01*
X164664789Y-112086763D01*
X164560785Y-112017270D01*
X164445223Y-111969403D01*
X164322542Y-111945000D01*
X163945750Y-111945000D01*
X163787000Y-112103750D01*
X163787000Y-112903000D01*
X164736250Y-112903000D01*
X164895000Y-112744250D01*
X164895000Y-113315750D01*
X164736250Y-113157000D01*
X163787000Y-113157000D01*
X163787000Y-113956250D01*
X163945750Y-114115000D01*
X164322542Y-114115000D01*
X164445223Y-114090597D01*
X164560785Y-114042730D01*
X164664789Y-113973237D01*
X164753237Y-113884789D01*
X164822730Y-113780785D01*
X164870597Y-113665223D01*
X164895000Y-113542542D01*
X164895000Y-114885000D01*
X153280334Y-114885000D01*
X153290597Y-114860223D01*
X153315000Y-114737542D01*
X153315000Y-114612458D01*
X153315000Y-114585750D01*
X153156250Y-114427000D01*
X152207000Y-114427000D01*
X152207000Y-114447000D01*
X151953000Y-114447000D01*
X151953000Y-114427000D01*
X151933000Y-114427000D01*
X151933000Y-114173000D01*
X151953000Y-114173000D01*
X151953000Y-114153000D01*
X152207000Y-114153000D01*
X152207000Y-114173000D01*
X153156250Y-114173000D01*
X153315000Y-114014250D01*
X153315000Y-113987542D01*
X153315000Y-113862458D01*
X153290597Y-113739777D01*
X153242730Y-113624215D01*
X153173237Y-113520211D01*
X153084789Y-113431763D01*
X153066170Y-113419322D01*
X153124041Y-113401227D01*
X153273434Y-113302326D01*
X153294865Y-113277101D01*
X153676382Y-113658618D01*
X153739826Y-113710731D01*
X153802744Y-113763526D01*
X153806841Y-113765778D01*
X153810453Y-113768745D01*
X153882825Y-113807550D01*
X153954786Y-113847111D01*
X153959240Y-113848524D01*
X153963362Y-113850734D01*
X154041916Y-113874750D01*
X154120167Y-113899573D01*
X154124811Y-113900093D01*
X154129283Y-113901461D01*
X154211024Y-113909764D01*
X154292588Y-113918913D01*
X154301719Y-113918977D01*
X154301897Y-113918995D01*
X154302061Y-113918979D01*
X154305000Y-113919000D01*
X154940000Y-113919000D01*
X155559264Y-113919000D01*
X155589208Y-113944442D01*
X155752611Y-114017919D01*
X155930000Y-114043072D01*
X157130000Y-114043072D01*
X157233043Y-114034697D01*
X157404041Y-113981227D01*
X157476244Y-113933427D01*
X157489208Y-113944442D01*
X157652611Y-114017919D01*
X157830000Y-114043072D01*
X159030000Y-114043072D01*
X159133043Y-114034697D01*
X159304041Y-113981227D01*
X159398036Y-113919000D01*
X160400994Y-113919000D01*
X160519208Y-114019442D01*
X160682611Y-114092919D01*
X160860000Y-114118072D01*
X162060000Y-114118072D01*
X162163043Y-114109697D01*
X162334041Y-114056227D01*
X162483434Y-113957326D01*
X162557211Y-113870494D01*
X162566763Y-113884789D01*
X162655211Y-113973237D01*
X162759215Y-114042730D01*
X162874777Y-114090597D01*
X162997458Y-114115000D01*
X163374250Y-114115000D01*
X163533000Y-113956250D01*
X163533000Y-113157000D01*
X163513000Y-113157000D01*
X163513000Y-112903000D01*
X163533000Y-112903000D01*
X163533000Y-112103750D01*
X163374250Y-111945000D01*
X162997458Y-111945000D01*
X162874777Y-111969403D01*
X162759215Y-112017270D01*
X162655211Y-112086763D01*
X162566763Y-112175211D01*
X162558176Y-112188061D01*
X162537326Y-112156566D01*
X162400792Y-112040558D01*
X162237389Y-111967081D01*
X162060000Y-111941928D01*
X160860000Y-111941928D01*
X160756957Y-111950303D01*
X160585959Y-112003773D01*
X160436566Y-112102674D01*
X160404001Y-112141000D01*
X159400735Y-112141000D01*
X159370792Y-112115558D01*
X159319000Y-112092268D01*
X159319000Y-111431323D01*
X159453434Y-111342326D01*
X159569442Y-111205792D01*
X159642919Y-111042389D01*
X159668072Y-110865000D01*
X159668072Y-110115000D01*
X159659697Y-110011957D01*
X159606227Y-109840959D01*
X159507326Y-109691566D01*
X159370792Y-109575558D01*
X159308108Y-109547371D01*
X159303830Y-109498467D01*
X159302524Y-109493974D01*
X159302069Y-109489326D01*
X159278335Y-109410716D01*
X159255423Y-109331854D01*
X159253273Y-109327706D01*
X159251921Y-109323228D01*
X159213342Y-109250672D01*
X159181778Y-109189779D01*
X159205000Y-109193072D01*
X159755000Y-109193072D01*
X159858043Y-109184697D01*
X159883871Y-109176620D01*
X160000600Y-109193172D01*
X160559400Y-109193172D01*
X160662443Y-109184797D01*
X160833441Y-109131327D01*
X160982834Y-109032426D01*
X161098842Y-108895892D01*
X161172319Y-108732489D01*
X161197472Y-108555100D01*
X161197472Y-107218072D01*
X162530000Y-107218072D01*
X162633043Y-107209697D01*
X162804041Y-107156227D01*
X162953434Y-107057326D01*
X163069442Y-106920792D01*
X163142919Y-106757389D01*
X163168072Y-106580000D01*
X163168072Y-106030000D01*
X163159697Y-105926957D01*
X163151122Y-105899535D01*
X163168072Y-105780000D01*
X163168072Y-105230000D01*
X163159697Y-105126957D01*
X163151122Y-105099535D01*
X163168072Y-104980000D01*
X163168072Y-104430000D01*
X163159697Y-104326957D01*
X163151122Y-104299535D01*
X163168072Y-104180000D01*
X163168072Y-103867000D01*
X163293528Y-103867000D01*
X163293528Y-104546400D01*
X163301903Y-104649443D01*
X163337698Y-104763918D01*
X163318681Y-104806211D01*
X163293528Y-104983600D01*
X163293528Y-105796400D01*
X163301903Y-105899443D01*
X163337698Y-106013918D01*
X163318681Y-106056211D01*
X163293528Y-106233600D01*
X163293528Y-107046400D01*
X163301903Y-107149443D01*
X163337698Y-107263918D01*
X163318681Y-107306211D01*
X163293528Y-107483600D01*
X163293528Y-108296400D01*
X163301903Y-108399443D01*
X163337698Y-108513918D01*
X163318681Y-108556211D01*
X163293528Y-108733600D01*
X163293528Y-109546400D01*
X163301903Y-109649443D01*
X163336656Y-109760585D01*
X163321003Y-109798377D01*
X163296600Y-109921058D01*
X163296600Y-110046142D01*
X163296600Y-110104250D01*
X163455350Y-110263000D01*
X165608000Y-110263000D01*
X165608000Y-110243000D01*
X165862000Y-110243000D01*
X165862000Y-110263000D01*
X168014650Y-110263000D01*
X168173400Y-110104250D01*
X168173400Y-110046142D01*
X168173400Y-109921058D01*
X168169609Y-109902000D01*
X168269129Y-109902000D01*
X168301258Y-109935270D01*
X168451781Y-110039886D01*
X168619758Y-110113273D01*
X168798790Y-110152636D01*
X168982058Y-110156475D01*
X169162581Y-110124644D01*
X169333484Y-110058355D01*
X169488256Y-109960134D01*
X169621002Y-109833721D01*
X169726667Y-109683931D01*
X169801225Y-109516471D01*
X169841837Y-109337718D01*
X169844760Y-109128346D01*
X169809156Y-108948529D01*
X169772296Y-108859102D01*
X169797581Y-108854644D01*
X169968484Y-108788355D01*
X170123256Y-108690134D01*
X170256002Y-108563721D01*
X170361667Y-108413931D01*
X170436225Y-108246471D01*
X170476837Y-108067718D01*
X170479760Y-107858346D01*
X170444156Y-107678529D01*
X170407296Y-107589102D01*
X170432581Y-107584644D01*
X170603484Y-107518355D01*
X170758256Y-107420134D01*
X170891002Y-107293721D01*
X170996667Y-107143931D01*
X171071225Y-106976471D01*
X171111837Y-106797718D01*
X171114760Y-106588346D01*
X171079156Y-106408529D01*
X171042296Y-106319102D01*
X171067581Y-106314644D01*
X171238484Y-106248355D01*
X171393256Y-106150134D01*
X171400000Y-106143711D01*
X171400000Y-114885000D01*
M02*
