G04 #@! TF.FileFunction,Legend,Top*
%FSLAX46Y46*%
G04 Gerber Fmt 4.6, Leading zero omitted, Abs format (unit mm)*
G04 Created by KiCad (PCBNEW 0.201505222246+5678~23~ubuntu14.04.1-product) date dom 24 may 2015 19:31:24 CEST*
%MOMM*%
G01*
G04 APERTURE LIST*
%ADD10C,0.101600*%
%ADD11C,0.150000*%
%ADD12C,0.152400*%
G04 APERTURE END LIST*
D10*
D11*
X138430000Y-107696000D02*
X139827000Y-107696000D01*
X138176000Y-107569000D02*
X139954000Y-107569000D01*
X137795000Y-107442000D02*
X140335000Y-107442000D01*
X140462000Y-107315000D02*
X137668000Y-107315000D01*
X137541000Y-107188000D02*
X140589000Y-107188000D01*
X140716000Y-107061000D02*
X137414000Y-107061000D01*
X137287000Y-106934000D02*
X140843000Y-106934000D01*
X141478000Y-105410000D02*
G75*
G03X141478000Y-105410000I-2413000J0D01*
G01*
X136398000Y-108077000D02*
X136398000Y-103505000D01*
X136398000Y-103505000D02*
X137160000Y-102743000D01*
X137160000Y-102743000D02*
X140970000Y-102743000D01*
X140970000Y-102743000D02*
X141732000Y-103505000D01*
X141732000Y-103505000D02*
X141732000Y-108077000D01*
X141732000Y-108077000D02*
X136398000Y-108077000D01*
X139065000Y-103251000D02*
X139065000Y-104013000D01*
X138684000Y-103632000D02*
X139446000Y-103632000D01*
X147701000Y-102235000D02*
X146939000Y-102235000D01*
X147320000Y-101854000D02*
X147320000Y-102616000D01*
X147574000Y-104521000D02*
X143764000Y-104521000D01*
X148336000Y-100711000D02*
X148336000Y-103759000D01*
X147574000Y-104521000D02*
X148336000Y-103759000D01*
X147574000Y-99949000D02*
X143764000Y-99949000D01*
X147574000Y-99949000D02*
X148336000Y-100711000D01*
X144018000Y-102362000D02*
X144018000Y-102108000D01*
X144145000Y-101600000D02*
X144145000Y-102870000D01*
X144272000Y-103124000D02*
X144272000Y-101346000D01*
X144399000Y-103378000D02*
X144399000Y-101092000D01*
X144526000Y-100965000D02*
X144526000Y-103505000D01*
X144653000Y-103632000D02*
X144653000Y-100838000D01*
X144780000Y-100711000D02*
X144780000Y-103759000D01*
X144907000Y-100584000D02*
X144907000Y-103886000D01*
X148082000Y-102235000D02*
G75*
G03X148082000Y-102235000I-2032000J0D01*
G01*
X143764000Y-99949000D02*
X143764000Y-104521000D01*
X147035000Y-99660000D02*
X146335000Y-99660000D01*
X146335000Y-98460000D02*
X147035000Y-98460000D01*
X157130000Y-112430000D02*
X157830000Y-112430000D01*
X157830000Y-113630000D02*
X157130000Y-113630000D01*
X150780000Y-113700000D02*
X151480000Y-113700000D01*
X151480000Y-114900000D02*
X150780000Y-114900000D01*
X154655000Y-97120000D02*
X153955000Y-97120000D01*
X153955000Y-95920000D02*
X154655000Y-95920000D01*
X157130000Y-109890000D02*
X157830000Y-109890000D01*
X157830000Y-111090000D02*
X157130000Y-111090000D01*
X149510000Y-95920000D02*
X150210000Y-95920000D01*
X150210000Y-97120000D02*
X149510000Y-97120000D01*
X160690000Y-93060000D02*
X160690000Y-92360000D01*
X161890000Y-92360000D02*
X161890000Y-93060000D01*
X147955000Y-111125000D02*
X147955000Y-106045000D01*
X148235000Y-113945000D02*
X146685000Y-113945000D01*
X145415000Y-113665000D02*
X145415000Y-111125000D01*
X145415000Y-111125000D02*
X147955000Y-111125000D01*
X147955000Y-106045000D02*
X142875000Y-106045000D01*
X142875000Y-106045000D02*
X142875000Y-111125000D01*
X148235000Y-113945000D02*
X148235000Y-112395000D01*
X142875000Y-113665000D02*
X145415000Y-113665000D01*
X142875000Y-111125000D02*
X142875000Y-113665000D01*
D12*
X132840000Y-112690000D02*
X127190000Y-112690000D01*
X132840000Y-99540000D02*
X132840000Y-112690000D01*
X127190000Y-112690000D02*
X127190000Y-99540000D01*
X132840000Y-99540000D02*
X127190000Y-99540000D01*
X131150000Y-95375000D02*
X131150000Y-89725000D01*
X136800000Y-95375000D02*
X131150000Y-95375000D01*
X131150000Y-89725000D02*
X136800000Y-89725000D01*
X136800000Y-95375000D02*
X136800000Y-89725000D01*
X166245000Y-101940000D02*
X171895000Y-101940000D01*
X166245000Y-101940000D02*
X166245000Y-112590000D01*
X171895000Y-101940000D02*
X171895000Y-112590000D01*
X171895000Y-112590000D02*
X166245000Y-112590000D01*
D11*
X135940800Y-114529820D02*
X135239760Y-114529820D01*
X135239760Y-114529820D02*
X135239760Y-114280900D01*
X135239760Y-111730840D02*
X135239760Y-111530180D01*
X135239760Y-111530180D02*
X135940800Y-111530180D01*
X151725000Y-111625000D02*
X151725000Y-110625000D01*
X153075000Y-110625000D02*
X153075000Y-111625000D01*
X162060000Y-112355000D02*
X163060000Y-112355000D01*
X163060000Y-113705000D02*
X162060000Y-113705000D01*
X150735000Y-108620000D02*
X150735000Y-109820000D01*
X148985000Y-109820000D02*
X148985000Y-108620000D01*
X158510000Y-95850000D02*
X158510000Y-94650000D01*
X160260000Y-94650000D02*
X160260000Y-95850000D01*
X139460000Y-112995000D02*
X139460000Y-111795000D01*
X141210000Y-111795000D02*
X141210000Y-112995000D01*
X140134340Y-96525080D02*
X140434060Y-96774000D01*
X140434060Y-96774000D02*
X140583920Y-96875600D01*
X140583920Y-96875600D02*
X139735560Y-96875600D01*
X141635480Y-96174560D02*
X139834620Y-96174560D01*
X141635480Y-96174560D02*
X141635480Y-96824800D01*
X141635480Y-100675440D02*
X139834620Y-100675440D01*
X141635480Y-100675440D02*
X141635480Y-100025200D01*
X161105000Y-99880000D02*
X160780000Y-99880000D01*
X161105000Y-107130000D02*
X160780000Y-107130000D01*
X153855000Y-107130000D02*
X154180000Y-107130000D01*
X153855000Y-99880000D02*
X154180000Y-99880000D01*
X161105000Y-99880000D02*
X161105000Y-100205000D01*
X153855000Y-99880000D02*
X153855000Y-100205000D01*
X153855000Y-107130000D02*
X153855000Y-106805000D01*
X161105000Y-107130000D02*
X161105000Y-106805000D01*
X160780000Y-99880000D02*
X160780000Y-98455000D01*
X145542000Y-91059000D02*
X145542000Y-91440000D01*
X145542000Y-94361000D02*
X145542000Y-93980000D01*
X155448000Y-94361000D02*
X155448000Y-93980000D01*
X155448000Y-91059000D02*
X155448000Y-91440000D01*
X156210000Y-90170000D02*
X156210000Y-91440000D01*
X156210000Y-95250000D02*
X156210000Y-93980000D01*
X144780000Y-95250000D02*
X144780000Y-93980000D01*
X144780000Y-90170000D02*
X144780000Y-91440000D01*
X145542000Y-94361000D02*
X146177000Y-94996000D01*
X146177000Y-94996000D02*
X154813000Y-94996000D01*
X154813000Y-94996000D02*
X155448000Y-94361000D01*
X155448000Y-91059000D02*
X154813000Y-90424000D01*
X154813000Y-90424000D02*
X146177000Y-90424000D01*
X146177000Y-90424000D02*
X145542000Y-91059000D01*
X156210000Y-95250000D02*
X144780000Y-95250000D01*
X144780000Y-90170000D02*
X156210000Y-90170000D01*
X136358334Y-101957143D02*
X136310715Y-102004762D01*
X136167858Y-102052381D01*
X136072620Y-102052381D01*
X135929762Y-102004762D01*
X135834524Y-101909524D01*
X135786905Y-101814286D01*
X135739286Y-101623810D01*
X135739286Y-101480952D01*
X135786905Y-101290476D01*
X135834524Y-101195238D01*
X135929762Y-101100000D01*
X136072620Y-101052381D01*
X136167858Y-101052381D01*
X136310715Y-101100000D01*
X136358334Y-101147619D01*
X137310715Y-102052381D02*
X136739286Y-102052381D01*
X137025000Y-102052381D02*
X137025000Y-101052381D01*
X136929762Y-101195238D01*
X136834524Y-101290476D01*
X136739286Y-101338095D01*
X149058334Y-105132143D02*
X149010715Y-105179762D01*
X148867858Y-105227381D01*
X148772620Y-105227381D01*
X148629762Y-105179762D01*
X148534524Y-105084524D01*
X148486905Y-104989286D01*
X148439286Y-104798810D01*
X148439286Y-104655952D01*
X148486905Y-104465476D01*
X148534524Y-104370238D01*
X148629762Y-104275000D01*
X148772620Y-104227381D01*
X148867858Y-104227381D01*
X149010715Y-104275000D01*
X149058334Y-104322619D01*
X149439286Y-104322619D02*
X149486905Y-104275000D01*
X149582143Y-104227381D01*
X149820239Y-104227381D01*
X149915477Y-104275000D01*
X149963096Y-104322619D01*
X150010715Y-104417857D01*
X150010715Y-104513095D01*
X149963096Y-104655952D01*
X149391667Y-105227381D01*
X150010715Y-105227381D01*
X145883334Y-97512143D02*
X145835715Y-97559762D01*
X145692858Y-97607381D01*
X145597620Y-97607381D01*
X145454762Y-97559762D01*
X145359524Y-97464524D01*
X145311905Y-97369286D01*
X145264286Y-97178810D01*
X145264286Y-97035952D01*
X145311905Y-96845476D01*
X145359524Y-96750238D01*
X145454762Y-96655000D01*
X145597620Y-96607381D01*
X145692858Y-96607381D01*
X145835715Y-96655000D01*
X145883334Y-96702619D01*
X146216667Y-96607381D02*
X146835715Y-96607381D01*
X146502381Y-96988333D01*
X146645239Y-96988333D01*
X146740477Y-97035952D01*
X146788096Y-97083571D01*
X146835715Y-97178810D01*
X146835715Y-97416905D01*
X146788096Y-97512143D01*
X146740477Y-97559762D01*
X146645239Y-97607381D01*
X146359524Y-97607381D01*
X146264286Y-97559762D01*
X146216667Y-97512143D01*
X154138334Y-112117143D02*
X154090715Y-112164762D01*
X153947858Y-112212381D01*
X153852620Y-112212381D01*
X153709762Y-112164762D01*
X153614524Y-112069524D01*
X153566905Y-111974286D01*
X153519286Y-111783810D01*
X153519286Y-111640952D01*
X153566905Y-111450476D01*
X153614524Y-111355238D01*
X153709762Y-111260000D01*
X153852620Y-111212381D01*
X153947858Y-111212381D01*
X154090715Y-111260000D01*
X154138334Y-111307619D01*
X154995477Y-111545714D02*
X154995477Y-112212381D01*
X154757381Y-111164762D02*
X154519286Y-111879048D01*
X155138334Y-111879048D01*
X149693334Y-113387143D02*
X149645715Y-113434762D01*
X149502858Y-113482381D01*
X149407620Y-113482381D01*
X149264762Y-113434762D01*
X149169524Y-113339524D01*
X149121905Y-113244286D01*
X149074286Y-113053810D01*
X149074286Y-112910952D01*
X149121905Y-112720476D01*
X149169524Y-112625238D01*
X149264762Y-112530000D01*
X149407620Y-112482381D01*
X149502858Y-112482381D01*
X149645715Y-112530000D01*
X149693334Y-112577619D01*
X150598096Y-112482381D02*
X150121905Y-112482381D01*
X150074286Y-112958571D01*
X150121905Y-112910952D01*
X150217143Y-112863333D01*
X150455239Y-112863333D01*
X150550477Y-112910952D01*
X150598096Y-112958571D01*
X150645715Y-113053810D01*
X150645715Y-113291905D01*
X150598096Y-113387143D01*
X150550477Y-113434762D01*
X150455239Y-113482381D01*
X150217143Y-113482381D01*
X150121905Y-113434762D01*
X150074286Y-113387143D01*
X152868334Y-98782143D02*
X152820715Y-98829762D01*
X152677858Y-98877381D01*
X152582620Y-98877381D01*
X152439762Y-98829762D01*
X152344524Y-98734524D01*
X152296905Y-98639286D01*
X152249286Y-98448810D01*
X152249286Y-98305952D01*
X152296905Y-98115476D01*
X152344524Y-98020238D01*
X152439762Y-97925000D01*
X152582620Y-97877381D01*
X152677858Y-97877381D01*
X152820715Y-97925000D01*
X152868334Y-97972619D01*
X153725477Y-97877381D02*
X153535000Y-97877381D01*
X153439762Y-97925000D01*
X153392143Y-97972619D01*
X153296905Y-98115476D01*
X153249286Y-98305952D01*
X153249286Y-98686905D01*
X153296905Y-98782143D01*
X153344524Y-98829762D01*
X153439762Y-98877381D01*
X153630239Y-98877381D01*
X153725477Y-98829762D01*
X153773096Y-98782143D01*
X153820715Y-98686905D01*
X153820715Y-98448810D01*
X153773096Y-98353571D01*
X153725477Y-98305952D01*
X153630239Y-98258333D01*
X153439762Y-98258333D01*
X153344524Y-98305952D01*
X153296905Y-98353571D01*
X153249286Y-98448810D01*
X154138334Y-110212143D02*
X154090715Y-110259762D01*
X153947858Y-110307381D01*
X153852620Y-110307381D01*
X153709762Y-110259762D01*
X153614524Y-110164524D01*
X153566905Y-110069286D01*
X153519286Y-109878810D01*
X153519286Y-109735952D01*
X153566905Y-109545476D01*
X153614524Y-109450238D01*
X153709762Y-109355000D01*
X153852620Y-109307381D01*
X153947858Y-109307381D01*
X154090715Y-109355000D01*
X154138334Y-109402619D01*
X154471667Y-109307381D02*
X155138334Y-109307381D01*
X154709762Y-110307381D01*
X149693334Y-98782143D02*
X149645715Y-98829762D01*
X149502858Y-98877381D01*
X149407620Y-98877381D01*
X149264762Y-98829762D01*
X149169524Y-98734524D01*
X149121905Y-98639286D01*
X149074286Y-98448810D01*
X149074286Y-98305952D01*
X149121905Y-98115476D01*
X149169524Y-98020238D01*
X149264762Y-97925000D01*
X149407620Y-97877381D01*
X149502858Y-97877381D01*
X149645715Y-97925000D01*
X149693334Y-97972619D01*
X150264762Y-98305952D02*
X150169524Y-98258333D01*
X150121905Y-98210714D01*
X150074286Y-98115476D01*
X150074286Y-98067857D01*
X150121905Y-97972619D01*
X150169524Y-97925000D01*
X150264762Y-97877381D01*
X150455239Y-97877381D01*
X150550477Y-97925000D01*
X150598096Y-97972619D01*
X150645715Y-98067857D01*
X150645715Y-98115476D01*
X150598096Y-98210714D01*
X150550477Y-98258333D01*
X150455239Y-98305952D01*
X150264762Y-98305952D01*
X150169524Y-98353571D01*
X150121905Y-98401190D01*
X150074286Y-98496429D01*
X150074286Y-98686905D01*
X150121905Y-98782143D01*
X150169524Y-98829762D01*
X150264762Y-98877381D01*
X150455239Y-98877381D01*
X150550477Y-98829762D01*
X150598096Y-98782143D01*
X150645715Y-98686905D01*
X150645715Y-98496429D01*
X150598096Y-98401190D01*
X150550477Y-98353571D01*
X150455239Y-98305952D01*
X159218334Y-91797143D02*
X159170715Y-91844762D01*
X159027858Y-91892381D01*
X158932620Y-91892381D01*
X158789762Y-91844762D01*
X158694524Y-91749524D01*
X158646905Y-91654286D01*
X158599286Y-91463810D01*
X158599286Y-91320952D01*
X158646905Y-91130476D01*
X158694524Y-91035238D01*
X158789762Y-90940000D01*
X158932620Y-90892381D01*
X159027858Y-90892381D01*
X159170715Y-90940000D01*
X159218334Y-90987619D01*
X159694524Y-91892381D02*
X159885000Y-91892381D01*
X159980239Y-91844762D01*
X160027858Y-91797143D01*
X160123096Y-91654286D01*
X160170715Y-91463810D01*
X160170715Y-91082857D01*
X160123096Y-90987619D01*
X160075477Y-90940000D01*
X159980239Y-90892381D01*
X159789762Y-90892381D01*
X159694524Y-90940000D01*
X159646905Y-90987619D01*
X159599286Y-91082857D01*
X159599286Y-91320952D01*
X159646905Y-91416190D01*
X159694524Y-91463810D01*
X159789762Y-91511429D01*
X159980239Y-91511429D01*
X160075477Y-91463810D01*
X160123096Y-91416190D01*
X160170715Y-91320952D01*
X144676905Y-105862381D02*
X144676905Y-104862381D01*
X145057858Y-104862381D01*
X145153096Y-104910000D01*
X145200715Y-104957619D01*
X145248334Y-105052857D01*
X145248334Y-105195714D01*
X145200715Y-105290952D01*
X145153096Y-105338571D01*
X145057858Y-105386190D01*
X144676905Y-105386190D01*
X146200715Y-105862381D02*
X145629286Y-105862381D01*
X145915000Y-105862381D02*
X145915000Y-104862381D01*
X145819762Y-105005238D01*
X145724524Y-105100476D01*
X145629286Y-105148095D01*
X133246905Y-100147381D02*
X133246905Y-99147381D01*
X133627858Y-99147381D01*
X133723096Y-99195000D01*
X133770715Y-99242619D01*
X133818334Y-99337857D01*
X133818334Y-99480714D01*
X133770715Y-99575952D01*
X133723096Y-99623571D01*
X133627858Y-99671190D01*
X133246905Y-99671190D01*
X134199286Y-99242619D02*
X134246905Y-99195000D01*
X134342143Y-99147381D01*
X134580239Y-99147381D01*
X134675477Y-99195000D01*
X134723096Y-99242619D01*
X134770715Y-99337857D01*
X134770715Y-99433095D01*
X134723096Y-99575952D01*
X134151667Y-100147381D01*
X134770715Y-100147381D01*
X129436905Y-96337381D02*
X129436905Y-95337381D01*
X129817858Y-95337381D01*
X129913096Y-95385000D01*
X129960715Y-95432619D01*
X130008334Y-95527857D01*
X130008334Y-95670714D01*
X129960715Y-95765952D01*
X129913096Y-95813571D01*
X129817858Y-95861190D01*
X129436905Y-95861190D01*
X130341667Y-95337381D02*
X130960715Y-95337381D01*
X130627381Y-95718333D01*
X130770239Y-95718333D01*
X130865477Y-95765952D01*
X130913096Y-95813571D01*
X130960715Y-95908810D01*
X130960715Y-96146905D01*
X130913096Y-96242143D01*
X130865477Y-96289762D01*
X130770239Y-96337381D01*
X130484524Y-96337381D01*
X130389286Y-96289762D01*
X130341667Y-96242143D01*
X164361905Y-103322381D02*
X164361905Y-102322381D01*
X164742858Y-102322381D01*
X164838096Y-102370000D01*
X164885715Y-102417619D01*
X164933334Y-102512857D01*
X164933334Y-102655714D01*
X164885715Y-102750952D01*
X164838096Y-102798571D01*
X164742858Y-102846190D01*
X164361905Y-102846190D01*
X165790477Y-102655714D02*
X165790477Y-103322381D01*
X165552381Y-102274762D02*
X165314286Y-102989048D01*
X165933334Y-102989048D01*
X164361905Y-100147381D02*
X164361905Y-99147381D01*
X164742858Y-99147381D01*
X164838096Y-99195000D01*
X164885715Y-99242619D01*
X164933334Y-99337857D01*
X164933334Y-99480714D01*
X164885715Y-99575952D01*
X164838096Y-99623571D01*
X164742858Y-99671190D01*
X164361905Y-99671190D01*
X165838096Y-99147381D02*
X165361905Y-99147381D01*
X165314286Y-99623571D01*
X165361905Y-99575952D01*
X165457143Y-99528333D01*
X165695239Y-99528333D01*
X165790477Y-99575952D01*
X165838096Y-99623571D01*
X165885715Y-99718810D01*
X165885715Y-99956905D01*
X165838096Y-100052143D01*
X165790477Y-100099762D01*
X165695239Y-100147381D01*
X165457143Y-100147381D01*
X165361905Y-100099762D01*
X165314286Y-100052143D01*
X137064762Y-111037619D02*
X136969524Y-110990000D01*
X136874286Y-110894762D01*
X136731429Y-110751905D01*
X136636190Y-110704286D01*
X136540952Y-110704286D01*
X136588571Y-110942381D02*
X136493333Y-110894762D01*
X136398095Y-110799524D01*
X136350476Y-110609048D01*
X136350476Y-110275714D01*
X136398095Y-110085238D01*
X136493333Y-109990000D01*
X136588571Y-109942381D01*
X136779048Y-109942381D01*
X136874286Y-109990000D01*
X136969524Y-110085238D01*
X137017143Y-110275714D01*
X137017143Y-110609048D01*
X136969524Y-110799524D01*
X136874286Y-110894762D01*
X136779048Y-110942381D01*
X136588571Y-110942381D01*
X137969524Y-110942381D02*
X137398095Y-110942381D01*
X137683809Y-110942381D02*
X137683809Y-109942381D01*
X137588571Y-110085238D01*
X137493333Y-110180476D01*
X137398095Y-110228095D01*
X152868334Y-108402381D02*
X152535000Y-107926190D01*
X152296905Y-108402381D02*
X152296905Y-107402381D01*
X152677858Y-107402381D01*
X152773096Y-107450000D01*
X152820715Y-107497619D01*
X152868334Y-107592857D01*
X152868334Y-107735714D01*
X152820715Y-107830952D01*
X152773096Y-107878571D01*
X152677858Y-107926190D01*
X152296905Y-107926190D01*
X153820715Y-108402381D02*
X153249286Y-108402381D01*
X153535000Y-108402381D02*
X153535000Y-107402381D01*
X153439762Y-107545238D01*
X153344524Y-107640476D01*
X153249286Y-107688095D01*
X161758334Y-111577381D02*
X161425000Y-111101190D01*
X161186905Y-111577381D02*
X161186905Y-110577381D01*
X161567858Y-110577381D01*
X161663096Y-110625000D01*
X161710715Y-110672619D01*
X161758334Y-110767857D01*
X161758334Y-110910714D01*
X161710715Y-111005952D01*
X161663096Y-111053571D01*
X161567858Y-111101190D01*
X161186905Y-111101190D01*
X162139286Y-110672619D02*
X162186905Y-110625000D01*
X162282143Y-110577381D01*
X162520239Y-110577381D01*
X162615477Y-110625000D01*
X162663096Y-110672619D01*
X162710715Y-110767857D01*
X162710715Y-110863095D01*
X162663096Y-111005952D01*
X162091667Y-111577381D01*
X162710715Y-111577381D01*
X149693334Y-106497381D02*
X149360000Y-106021190D01*
X149121905Y-106497381D02*
X149121905Y-105497381D01*
X149502858Y-105497381D01*
X149598096Y-105545000D01*
X149645715Y-105592619D01*
X149693334Y-105687857D01*
X149693334Y-105830714D01*
X149645715Y-105925952D01*
X149598096Y-105973571D01*
X149502858Y-106021190D01*
X149121905Y-106021190D01*
X150026667Y-105497381D02*
X150645715Y-105497381D01*
X150312381Y-105878333D01*
X150455239Y-105878333D01*
X150550477Y-105925952D01*
X150598096Y-105973571D01*
X150645715Y-106068810D01*
X150645715Y-106306905D01*
X150598096Y-106402143D01*
X150550477Y-106449762D01*
X150455239Y-106497381D01*
X150169524Y-106497381D01*
X150074286Y-106449762D01*
X150026667Y-106402143D01*
X161123334Y-96972381D02*
X160790000Y-96496190D01*
X160551905Y-96972381D02*
X160551905Y-95972381D01*
X160932858Y-95972381D01*
X161028096Y-96020000D01*
X161075715Y-96067619D01*
X161123334Y-96162857D01*
X161123334Y-96305714D01*
X161075715Y-96400952D01*
X161028096Y-96448571D01*
X160932858Y-96496190D01*
X160551905Y-96496190D01*
X161980477Y-96305714D02*
X161980477Y-96972381D01*
X161742381Y-95924762D02*
X161504286Y-96639048D01*
X162123334Y-96639048D01*
X141438334Y-109672381D02*
X141105000Y-109196190D01*
X140866905Y-109672381D02*
X140866905Y-108672381D01*
X141247858Y-108672381D01*
X141343096Y-108720000D01*
X141390715Y-108767619D01*
X141438334Y-108862857D01*
X141438334Y-109005714D01*
X141390715Y-109100952D01*
X141343096Y-109148571D01*
X141247858Y-109196190D01*
X140866905Y-109196190D01*
X142343096Y-108672381D02*
X141866905Y-108672381D01*
X141819286Y-109148571D01*
X141866905Y-109100952D01*
X141962143Y-109053333D01*
X142200239Y-109053333D01*
X142295477Y-109100952D01*
X142343096Y-109148571D01*
X142390715Y-109243810D01*
X142390715Y-109481905D01*
X142343096Y-109577143D01*
X142295477Y-109624762D01*
X142200239Y-109672381D01*
X141962143Y-109672381D01*
X141866905Y-109624762D01*
X141819286Y-109577143D01*
X139573095Y-94702381D02*
X139573095Y-95511905D01*
X139620714Y-95607143D01*
X139668333Y-95654762D01*
X139763571Y-95702381D01*
X139954048Y-95702381D01*
X140049286Y-95654762D01*
X140096905Y-95607143D01*
X140144524Y-95511905D01*
X140144524Y-94702381D01*
X141144524Y-95702381D02*
X140573095Y-95702381D01*
X140858809Y-95702381D02*
X140858809Y-94702381D01*
X140763571Y-94845238D01*
X140668333Y-94940476D01*
X140573095Y-94988095D01*
X161163095Y-98512381D02*
X161163095Y-99321905D01*
X161210714Y-99417143D01*
X161258333Y-99464762D01*
X161353571Y-99512381D01*
X161544048Y-99512381D01*
X161639286Y-99464762D01*
X161686905Y-99417143D01*
X161734524Y-99321905D01*
X161734524Y-98512381D01*
X162163095Y-98607619D02*
X162210714Y-98560000D01*
X162305952Y-98512381D01*
X162544048Y-98512381D01*
X162639286Y-98560000D01*
X162686905Y-98607619D01*
X162734524Y-98702857D01*
X162734524Y-98798095D01*
X162686905Y-98940952D01*
X162115476Y-99512381D01*
X162734524Y-99512381D01*
X142700476Y-90257381D02*
X143367143Y-91257381D01*
X143367143Y-90257381D02*
X142700476Y-91257381D01*
X144271905Y-91257381D02*
X143700476Y-91257381D01*
X143986190Y-91257381D02*
X143986190Y-90257381D01*
X143890952Y-90400238D01*
X143795714Y-90495476D01*
X143700476Y-90543095D01*
M02*
