M48
;DRILL file {KiCad 0.201505222246+5678~23~ubuntu14.04.1-product} date dom 24 may 2015 19:31:44 CEST
;FORMAT={-:-/ absolute / inch / decimal}
FMAT,2
INCH,TZ
T1C0.016
T2C0.032
T3C0.042
T4C0.125
%
G90
G05
M72
T1
X5.15Y-4.3
X5.25Y-3.625
X5.38Y-4.02
X5.56Y-4.3
X5.775Y-3.85
X5.925Y-4.025
X6.05Y-4.5
X6.1Y-4.125
X6.1Y-4.175
X6.175Y-3.8
X6.175Y-3.975
X6.225Y-3.975
X6.375Y-3.925
X6.38Y-3.88
X6.4Y-4.375
X6.45Y-3.95
X6.475Y-3.975
X6.5Y-4.
X6.65Y-4.3
X6.675Y-4.25
X6.7Y-4.2
X6.725Y-4.15
T2
X5.588Y-3.875
T3
X5.675Y-4.225
X5.675Y-4.325
X5.675Y-4.425
X5.775Y-4.225
X5.775Y-4.325
X5.775Y-4.425
T4
X6.575Y-3.725
T0
M30
