G04 #@! TF.FileFunction,Legend,Bot*
%FSLAX46Y46*%
G04 Gerber Fmt 4.6, Leading zero omitted, Abs format (unit mm)*
G04 Created by KiCad (PCBNEW 0.201505222246+5678~23~ubuntu14.04.1-product) date dom 24 may 2015 19:59:28 CEST*
%MOMM*%
G01*
G04 APERTURE LIST*
%ADD10C,0.101600*%
%ADD11C,0.152400*%
%ADD12C,0.150000*%
G04 APERTURE END LIST*
D10*
D11*
X160219571Y-90756619D02*
X160026048Y-90756619D01*
X159929286Y-90805000D01*
X159832524Y-90901762D01*
X159784143Y-91095286D01*
X159784143Y-91433952D01*
X159832524Y-91627476D01*
X159929286Y-91724238D01*
X160026048Y-91772619D01*
X160219571Y-91772619D01*
X160316333Y-91724238D01*
X160413095Y-91627476D01*
X160461476Y-91433952D01*
X160461476Y-91095286D01*
X160413095Y-90901762D01*
X160316333Y-90805000D01*
X160219571Y-90756619D01*
X159348714Y-91095286D02*
X159348714Y-92111286D01*
X159348714Y-91143667D02*
X159251952Y-91095286D01*
X159058429Y-91095286D01*
X158961667Y-91143667D01*
X158913286Y-91192048D01*
X158864905Y-91288810D01*
X158864905Y-91579095D01*
X158913286Y-91675857D01*
X158961667Y-91724238D01*
X159058429Y-91772619D01*
X159251952Y-91772619D01*
X159348714Y-91724238D01*
X158042429Y-91724238D02*
X158139191Y-91772619D01*
X158332714Y-91772619D01*
X158429476Y-91724238D01*
X158477857Y-91627476D01*
X158477857Y-91240429D01*
X158429476Y-91143667D01*
X158332714Y-91095286D01*
X158139191Y-91095286D01*
X158042429Y-91143667D01*
X157994048Y-91240429D01*
X157994048Y-91337190D01*
X158477857Y-91433952D01*
X157558619Y-91095286D02*
X157558619Y-91772619D01*
X157558619Y-91192048D02*
X157510238Y-91143667D01*
X157413476Y-91095286D01*
X157268334Y-91095286D01*
X157171572Y-91143667D01*
X157123191Y-91240429D01*
X157123191Y-91772619D01*
X155962048Y-90756619D02*
X155720143Y-91772619D01*
X155526620Y-91046905D01*
X155333096Y-91772619D01*
X155091191Y-90756619D01*
X154559000Y-91772619D02*
X154655762Y-91724238D01*
X154704143Y-91675857D01*
X154752524Y-91579095D01*
X154752524Y-91288810D01*
X154704143Y-91192048D01*
X154655762Y-91143667D01*
X154559000Y-91095286D01*
X154413858Y-91095286D01*
X154317096Y-91143667D01*
X154268715Y-91192048D01*
X154220334Y-91288810D01*
X154220334Y-91579095D01*
X154268715Y-91675857D01*
X154317096Y-91724238D01*
X154413858Y-91772619D01*
X154559000Y-91772619D01*
X153349477Y-91095286D02*
X153349477Y-91772619D01*
X153784905Y-91095286D02*
X153784905Y-91627476D01*
X153736524Y-91724238D01*
X153639762Y-91772619D01*
X153494620Y-91772619D01*
X153397858Y-91724238D01*
X153349477Y-91675857D01*
X152865667Y-91095286D02*
X152865667Y-91772619D01*
X152865667Y-91192048D02*
X152817286Y-91143667D01*
X152720524Y-91095286D01*
X152575382Y-91095286D01*
X152478620Y-91143667D01*
X152430239Y-91240429D01*
X152430239Y-91772619D01*
X151511001Y-91772619D02*
X151511001Y-90756619D01*
X151511001Y-91724238D02*
X151607763Y-91772619D01*
X151801286Y-91772619D01*
X151898048Y-91724238D01*
X151946429Y-91675857D01*
X151994810Y-91579095D01*
X151994810Y-91288810D01*
X151946429Y-91192048D01*
X151898048Y-91143667D01*
X151801286Y-91095286D01*
X151607763Y-91095286D01*
X151511001Y-91143667D01*
X150253096Y-91385571D02*
X149479001Y-91385571D01*
X148269477Y-91724238D02*
X148124334Y-91772619D01*
X147882430Y-91772619D01*
X147785668Y-91724238D01*
X147737287Y-91675857D01*
X147688906Y-91579095D01*
X147688906Y-91482333D01*
X147737287Y-91385571D01*
X147785668Y-91337190D01*
X147882430Y-91288810D01*
X148075953Y-91240429D01*
X148172715Y-91192048D01*
X148221096Y-91143667D01*
X148269477Y-91046905D01*
X148269477Y-90950143D01*
X148221096Y-90853381D01*
X148172715Y-90805000D01*
X148075953Y-90756619D01*
X147834049Y-90756619D01*
X147688906Y-90805000D01*
X147108334Y-91772619D02*
X147205096Y-91724238D01*
X147253477Y-91627476D01*
X147253477Y-90756619D01*
X146285859Y-91772619D02*
X146285859Y-91240429D01*
X146334240Y-91143667D01*
X146431002Y-91095286D01*
X146624525Y-91095286D01*
X146721287Y-91143667D01*
X146285859Y-91724238D02*
X146382621Y-91772619D01*
X146624525Y-91772619D01*
X146721287Y-91724238D01*
X146769668Y-91627476D01*
X146769668Y-91530714D01*
X146721287Y-91433952D01*
X146624525Y-91385571D01*
X146382621Y-91385571D01*
X146285859Y-91337190D01*
X145898811Y-91095286D02*
X145656906Y-91772619D01*
X145415002Y-91095286D01*
X144640907Y-91724238D02*
X144737669Y-91772619D01*
X144931192Y-91772619D01*
X145027954Y-91724238D01*
X145076335Y-91627476D01*
X145076335Y-91240429D01*
X145027954Y-91143667D01*
X144931192Y-91095286D01*
X144737669Y-91095286D01*
X144640907Y-91143667D01*
X144592526Y-91240429D01*
X144592526Y-91337190D01*
X145076335Y-91433952D01*
X143383002Y-91772619D02*
X143383002Y-90756619D01*
X143383002Y-91143667D02*
X143286240Y-91095286D01*
X143092717Y-91095286D01*
X142995955Y-91143667D01*
X142947574Y-91192048D01*
X142899193Y-91288810D01*
X142899193Y-91579095D01*
X142947574Y-91675857D01*
X142995955Y-91724238D01*
X143092717Y-91772619D01*
X143286240Y-91772619D01*
X143383002Y-91724238D01*
X142318621Y-91772619D02*
X142415383Y-91724238D01*
X142463764Y-91675857D01*
X142512145Y-91579095D01*
X142512145Y-91288810D01*
X142463764Y-91192048D01*
X142415383Y-91143667D01*
X142318621Y-91095286D01*
X142173479Y-91095286D01*
X142076717Y-91143667D01*
X142028336Y-91192048D01*
X141979955Y-91288810D01*
X141979955Y-91579095D01*
X142028336Y-91675857D01*
X142076717Y-91724238D01*
X142173479Y-91772619D01*
X142318621Y-91772619D01*
X141109098Y-91772619D02*
X141109098Y-91240429D01*
X141157479Y-91143667D01*
X141254241Y-91095286D01*
X141447764Y-91095286D01*
X141544526Y-91143667D01*
X141109098Y-91724238D02*
X141205860Y-91772619D01*
X141447764Y-91772619D01*
X141544526Y-91724238D01*
X141592907Y-91627476D01*
X141592907Y-91530714D01*
X141544526Y-91433952D01*
X141447764Y-91385571D01*
X141205860Y-91385571D01*
X141109098Y-91337190D01*
X140625288Y-91772619D02*
X140625288Y-91095286D01*
X140625288Y-91288810D02*
X140576907Y-91192048D01*
X140528526Y-91143667D01*
X140431764Y-91095286D01*
X140335003Y-91095286D01*
X139560908Y-91772619D02*
X139560908Y-90756619D01*
X139560908Y-91724238D02*
X139657670Y-91772619D01*
X139851193Y-91772619D01*
X139947955Y-91724238D01*
X139996336Y-91675857D01*
X140044717Y-91579095D01*
X140044717Y-91288810D01*
X139996336Y-91192048D01*
X139947955Y-91143667D01*
X139851193Y-91095286D01*
X139657670Y-91095286D01*
X139560908Y-91143667D01*
X138303003Y-91772619D02*
X138303003Y-91095286D01*
X138303003Y-91288810D02*
X138254622Y-91192048D01*
X138206241Y-91143667D01*
X138109479Y-91095286D01*
X138012718Y-91095286D01*
X137238623Y-91724238D02*
X137335385Y-91772619D01*
X137528908Y-91772619D01*
X137625670Y-91724238D01*
X137674051Y-91675857D01*
X137722432Y-91579095D01*
X137722432Y-91288810D01*
X137674051Y-91192048D01*
X137625670Y-91143667D01*
X137528908Y-91095286D01*
X137335385Y-91095286D01*
X137238623Y-91143667D01*
X136899956Y-90756619D02*
X136271004Y-90756619D01*
X136609670Y-91143667D01*
X136464528Y-91143667D01*
X136367766Y-91192048D01*
X136319385Y-91240429D01*
X136271004Y-91337190D01*
X136271004Y-91579095D01*
X136319385Y-91675857D01*
X136367766Y-91724238D01*
X136464528Y-91772619D01*
X136754813Y-91772619D01*
X136851575Y-91724238D01*
X136899956Y-91675857D01*
X160461476Y-93299038D02*
X160316333Y-93347419D01*
X160074429Y-93347419D01*
X159977667Y-93299038D01*
X159929286Y-93250657D01*
X159880905Y-93153895D01*
X159880905Y-93057133D01*
X159929286Y-92960371D01*
X159977667Y-92911990D01*
X160074429Y-92863610D01*
X160267952Y-92815229D01*
X160364714Y-92766848D01*
X160413095Y-92718467D01*
X160461476Y-92621705D01*
X160461476Y-92524943D01*
X160413095Y-92428181D01*
X160364714Y-92379800D01*
X160267952Y-92331419D01*
X160026048Y-92331419D01*
X159880905Y-92379800D01*
X159542238Y-92670086D02*
X159300333Y-93347419D01*
X159058429Y-92670086D02*
X159300333Y-93347419D01*
X159397095Y-93589324D01*
X159445476Y-93637705D01*
X159542238Y-93686086D01*
X158671381Y-92670086D02*
X158671381Y-93347419D01*
X158671381Y-92766848D02*
X158623000Y-92718467D01*
X158526238Y-92670086D01*
X158381096Y-92670086D01*
X158284334Y-92718467D01*
X158235953Y-92815229D01*
X158235953Y-93347419D01*
X157316715Y-92670086D02*
X157316715Y-93347419D01*
X157752143Y-92670086D02*
X157752143Y-93202276D01*
X157703762Y-93299038D01*
X157607000Y-93347419D01*
X157461858Y-93347419D01*
X157365096Y-93299038D01*
X157316715Y-93250657D01*
X156881286Y-93299038D02*
X156784524Y-93347419D01*
X156591000Y-93347419D01*
X156494239Y-93299038D01*
X156445858Y-93202276D01*
X156445858Y-93153895D01*
X156494239Y-93057133D01*
X156591000Y-93008752D01*
X156736143Y-93008752D01*
X156832905Y-92960371D01*
X156881286Y-92863610D01*
X156881286Y-92815229D01*
X156832905Y-92718467D01*
X156736143Y-92670086D01*
X156591000Y-92670086D01*
X156494239Y-92718467D01*
X156010429Y-93347419D02*
X156010429Y-92670086D01*
X156010429Y-92331419D02*
X156058810Y-92379800D01*
X156010429Y-92428181D01*
X155962048Y-92379800D01*
X156010429Y-92331419D01*
X156010429Y-92428181D01*
X155091191Y-93347419D02*
X155091191Y-92815229D01*
X155139572Y-92718467D01*
X155236334Y-92670086D01*
X155429857Y-92670086D01*
X155526619Y-92718467D01*
X155091191Y-93299038D02*
X155187953Y-93347419D01*
X155429857Y-93347419D01*
X155526619Y-93299038D01*
X155575000Y-93202276D01*
X155575000Y-93105514D01*
X155526619Y-93008752D01*
X155429857Y-92960371D01*
X155187953Y-92960371D01*
X155091191Y-92911990D01*
X153591381Y-93686086D02*
X153591381Y-92234657D01*
X152091572Y-93347419D02*
X152091572Y-92331419D01*
X151849667Y-92331419D01*
X151704525Y-92379800D01*
X151607763Y-92476562D01*
X151559382Y-92573324D01*
X151511001Y-92766848D01*
X151511001Y-92911990D01*
X151559382Y-93105514D01*
X151607763Y-93202276D01*
X151704525Y-93299038D01*
X151849667Y-93347419D01*
X152091572Y-93347419D01*
X150688525Y-93299038D02*
X150785287Y-93347419D01*
X150978810Y-93347419D01*
X151075572Y-93299038D01*
X151123953Y-93202276D01*
X151123953Y-92815229D01*
X151075572Y-92718467D01*
X150978810Y-92670086D01*
X150785287Y-92670086D01*
X150688525Y-92718467D01*
X150640144Y-92815229D01*
X150640144Y-92911990D01*
X151123953Y-93008752D01*
X150253096Y-93299038D02*
X150156334Y-93347419D01*
X149962810Y-93347419D01*
X149866049Y-93299038D01*
X149817668Y-93202276D01*
X149817668Y-93153895D01*
X149866049Y-93057133D01*
X149962810Y-93008752D01*
X150107953Y-93008752D01*
X150204715Y-92960371D01*
X150253096Y-92863610D01*
X150253096Y-92815229D01*
X150204715Y-92718467D01*
X150107953Y-92670086D01*
X149962810Y-92670086D01*
X149866049Y-92718467D01*
X149382239Y-93347419D02*
X149382239Y-92670086D01*
X149382239Y-92331419D02*
X149430620Y-92379800D01*
X149382239Y-92428181D01*
X149333858Y-92379800D01*
X149382239Y-92331419D01*
X149382239Y-92428181D01*
X148463001Y-92670086D02*
X148463001Y-93492562D01*
X148511382Y-93589324D01*
X148559763Y-93637705D01*
X148656524Y-93686086D01*
X148801667Y-93686086D01*
X148898429Y-93637705D01*
X148463001Y-93299038D02*
X148559763Y-93347419D01*
X148753286Y-93347419D01*
X148850048Y-93299038D01*
X148898429Y-93250657D01*
X148946810Y-93153895D01*
X148946810Y-92863610D01*
X148898429Y-92766848D01*
X148850048Y-92718467D01*
X148753286Y-92670086D01*
X148559763Y-92670086D01*
X148463001Y-92718467D01*
X147979191Y-92670086D02*
X147979191Y-93347419D01*
X147979191Y-92766848D02*
X147930810Y-92718467D01*
X147834048Y-92670086D01*
X147688906Y-92670086D01*
X147592144Y-92718467D01*
X147543763Y-92815229D01*
X147543763Y-93347419D01*
X146672906Y-93299038D02*
X146769668Y-93347419D01*
X146963191Y-93347419D01*
X147059953Y-93299038D01*
X147108334Y-93202276D01*
X147108334Y-92815229D01*
X147059953Y-92718467D01*
X146963191Y-92670086D01*
X146769668Y-92670086D01*
X146672906Y-92718467D01*
X146624525Y-92815229D01*
X146624525Y-92911990D01*
X147108334Y-93008752D01*
X145753668Y-93347419D02*
X145753668Y-92331419D01*
X145753668Y-93299038D02*
X145850430Y-93347419D01*
X146043953Y-93347419D01*
X146140715Y-93299038D01*
X146189096Y-93250657D01*
X146237477Y-93153895D01*
X146237477Y-92863610D01*
X146189096Y-92766848D01*
X146140715Y-92718467D01*
X146043953Y-92670086D01*
X145850430Y-92670086D01*
X145753668Y-92718467D01*
X144495763Y-93347419D02*
X144495763Y-92331419D01*
X144495763Y-92718467D02*
X144399001Y-92670086D01*
X144205478Y-92670086D01*
X144108716Y-92718467D01*
X144060335Y-92766848D01*
X144011954Y-92863610D01*
X144011954Y-93153895D01*
X144060335Y-93250657D01*
X144108716Y-93299038D01*
X144205478Y-93347419D01*
X144399001Y-93347419D01*
X144495763Y-93299038D01*
X143673287Y-92670086D02*
X143431382Y-93347419D01*
X143189478Y-92670086D02*
X143431382Y-93347419D01*
X143528144Y-93589324D01*
X143576525Y-93637705D01*
X143673287Y-93686086D01*
X142028335Y-93347419D02*
X142028335Y-92331419D01*
X141931573Y-92960371D02*
X141641288Y-93347419D01*
X141641288Y-92670086D02*
X142028335Y-93057133D01*
X141302621Y-92670086D02*
X141109097Y-93347419D01*
X140915574Y-92863610D01*
X140722050Y-93347419D01*
X140528526Y-92670086D01*
X139754431Y-93299038D02*
X139851193Y-93347419D01*
X140044716Y-93347419D01*
X140141478Y-93299038D01*
X140189859Y-93202276D01*
X140189859Y-92815229D01*
X140141478Y-92718467D01*
X140044716Y-92670086D01*
X139851193Y-92670086D01*
X139754431Y-92718467D01*
X139706050Y-92815229D01*
X139706050Y-92911990D01*
X140189859Y-93008752D01*
X139270621Y-92670086D02*
X139270621Y-93347419D01*
X139270621Y-92766848D02*
X139222240Y-92718467D01*
X139125478Y-92670086D01*
X138980336Y-92670086D01*
X138883574Y-92718467D01*
X138835193Y-92815229D01*
X138835193Y-93347419D01*
X137915955Y-93347419D02*
X137915955Y-92331419D01*
X137915955Y-93299038D02*
X138012717Y-93347419D01*
X138206240Y-93347419D01*
X138303002Y-93299038D01*
X138351383Y-93250657D01*
X138399764Y-93153895D01*
X138399764Y-92863610D01*
X138351383Y-92766848D01*
X138303002Y-92718467D01*
X138206240Y-92670086D01*
X138012717Y-92670086D01*
X137915955Y-92718467D01*
X137045098Y-93299038D02*
X137141860Y-93347419D01*
X137335383Y-93347419D01*
X137432145Y-93299038D01*
X137480526Y-93202276D01*
X137480526Y-92815229D01*
X137432145Y-92718467D01*
X137335383Y-92670086D01*
X137141860Y-92670086D01*
X137045098Y-92718467D01*
X136996717Y-92815229D01*
X136996717Y-92911990D01*
X137480526Y-93008752D01*
X136561288Y-92670086D02*
X136561288Y-93347419D01*
X136561288Y-92766848D02*
X136512907Y-92718467D01*
X136416145Y-92670086D01*
X136271003Y-92670086D01*
X136174241Y-92718467D01*
X136125860Y-92815229D01*
X136125860Y-93347419D01*
X135206622Y-93347419D02*
X135206622Y-92815229D01*
X135255003Y-92718467D01*
X135351765Y-92670086D01*
X135545288Y-92670086D01*
X135642050Y-92718467D01*
X135206622Y-93299038D02*
X135303384Y-93347419D01*
X135545288Y-93347419D01*
X135642050Y-93299038D01*
X135690431Y-93202276D01*
X135690431Y-93105514D01*
X135642050Y-93008752D01*
X135545288Y-92960371D01*
X135303384Y-92960371D01*
X135206622Y-92911990D01*
X134722812Y-93347419D02*
X134722812Y-92670086D01*
X134722812Y-92863610D02*
X134674431Y-92766848D01*
X134626050Y-92718467D01*
X134529288Y-92670086D01*
X134432527Y-92670086D01*
X134093860Y-93347419D02*
X134093860Y-92670086D01*
X134093860Y-92766848D02*
X134045479Y-92718467D01*
X133948717Y-92670086D01*
X133803575Y-92670086D01*
X133706813Y-92718467D01*
X133658432Y-92815229D01*
X133658432Y-93347419D01*
X133658432Y-92815229D02*
X133610051Y-92718467D01*
X133513289Y-92670086D01*
X133368146Y-92670086D01*
X133271384Y-92718467D01*
X133223003Y-92815229D01*
X133223003Y-93347419D01*
X132594050Y-93347419D02*
X132690812Y-93299038D01*
X132739193Y-93250657D01*
X132787574Y-93153895D01*
X132787574Y-92863610D01*
X132739193Y-92766848D01*
X132690812Y-92718467D01*
X132594050Y-92670086D01*
X132448908Y-92670086D01*
X132352146Y-92718467D01*
X132303765Y-92766848D01*
X132255384Y-92863610D01*
X132255384Y-93153895D01*
X132303765Y-93250657D01*
X132352146Y-93299038D01*
X132448908Y-93347419D01*
X132594050Y-93347419D01*
X160413095Y-96497019D02*
X160413095Y-95481019D01*
X159977667Y-96497019D02*
X159977667Y-95964829D01*
X160026048Y-95868067D01*
X160122810Y-95819686D01*
X160267952Y-95819686D01*
X160364714Y-95868067D01*
X160413095Y-95916448D01*
X159639000Y-95819686D02*
X159251952Y-95819686D01*
X159493857Y-95481019D02*
X159493857Y-96351876D01*
X159445476Y-96448638D01*
X159348714Y-96497019D01*
X159251952Y-96497019D01*
X159058429Y-95819686D02*
X158671381Y-95819686D01*
X158913286Y-95481019D02*
X158913286Y-96351876D01*
X158864905Y-96448638D01*
X158768143Y-96497019D01*
X158671381Y-96497019D01*
X158332715Y-95819686D02*
X158332715Y-96835686D01*
X158332715Y-95868067D02*
X158235953Y-95819686D01*
X158042430Y-95819686D01*
X157945668Y-95868067D01*
X157897287Y-95916448D01*
X157848906Y-96013210D01*
X157848906Y-96303495D01*
X157897287Y-96400257D01*
X157945668Y-96448638D01*
X158042430Y-96497019D01*
X158235953Y-96497019D01*
X158332715Y-96448638D01*
X157461858Y-96448638D02*
X157365096Y-96497019D01*
X157171572Y-96497019D01*
X157074811Y-96448638D01*
X157026430Y-96351876D01*
X157026430Y-96303495D01*
X157074811Y-96206733D01*
X157171572Y-96158352D01*
X157316715Y-96158352D01*
X157413477Y-96109971D01*
X157461858Y-96013210D01*
X157461858Y-95964829D01*
X157413477Y-95868067D01*
X157316715Y-95819686D01*
X157171572Y-95819686D01*
X157074811Y-95868067D01*
X156591001Y-96400257D02*
X156542620Y-96448638D01*
X156591001Y-96497019D01*
X156639382Y-96448638D01*
X156591001Y-96400257D01*
X156591001Y-96497019D01*
X156591001Y-95868067D02*
X156542620Y-95916448D01*
X156591001Y-95964829D01*
X156639382Y-95916448D01*
X156591001Y-95868067D01*
X156591001Y-95964829D01*
X155381477Y-95432638D02*
X156252334Y-96738924D01*
X154317096Y-95432638D02*
X155187953Y-96738924D01*
X153543001Y-95819686D02*
X153543001Y-96642162D01*
X153591382Y-96738924D01*
X153639763Y-96787305D01*
X153736524Y-96835686D01*
X153881667Y-96835686D01*
X153978429Y-96787305D01*
X153543001Y-96448638D02*
X153639763Y-96497019D01*
X153833286Y-96497019D01*
X153930048Y-96448638D01*
X153978429Y-96400257D01*
X154026810Y-96303495D01*
X154026810Y-96013210D01*
X153978429Y-95916448D01*
X153930048Y-95868067D01*
X153833286Y-95819686D01*
X153639763Y-95819686D01*
X153543001Y-95868067D01*
X153059191Y-96497019D02*
X153059191Y-95819686D01*
X153059191Y-95481019D02*
X153107572Y-95529400D01*
X153059191Y-95577781D01*
X153010810Y-95529400D01*
X153059191Y-95481019D01*
X153059191Y-95577781D01*
X152720524Y-95819686D02*
X152333476Y-95819686D01*
X152575381Y-95481019D02*
X152575381Y-96351876D01*
X152527000Y-96448638D01*
X152430238Y-96497019D01*
X152333476Y-96497019D01*
X151994810Y-96497019D02*
X151994810Y-95481019D01*
X151559382Y-96497019D02*
X151559382Y-95964829D01*
X151607763Y-95868067D01*
X151704525Y-95819686D01*
X151849667Y-95819686D01*
X151946429Y-95868067D01*
X151994810Y-95916448D01*
X150640144Y-95819686D02*
X150640144Y-96497019D01*
X151075572Y-95819686D02*
X151075572Y-96351876D01*
X151027191Y-96448638D01*
X150930429Y-96497019D01*
X150785287Y-96497019D01*
X150688525Y-96448638D01*
X150640144Y-96400257D01*
X150156334Y-96497019D02*
X150156334Y-95481019D01*
X150156334Y-95868067D02*
X150059572Y-95819686D01*
X149866049Y-95819686D01*
X149769287Y-95868067D01*
X149720906Y-95916448D01*
X149672525Y-96013210D01*
X149672525Y-96303495D01*
X149720906Y-96400257D01*
X149769287Y-96448638D01*
X149866049Y-96497019D01*
X150059572Y-96497019D01*
X150156334Y-96448638D01*
X149237096Y-96400257D02*
X149188715Y-96448638D01*
X149237096Y-96497019D01*
X149285477Y-96448638D01*
X149237096Y-96400257D01*
X149237096Y-96497019D01*
X148317858Y-96448638D02*
X148414620Y-96497019D01*
X148608143Y-96497019D01*
X148704905Y-96448638D01*
X148753286Y-96400257D01*
X148801667Y-96303495D01*
X148801667Y-96013210D01*
X148753286Y-95916448D01*
X148704905Y-95868067D01*
X148608143Y-95819686D01*
X148414620Y-95819686D01*
X148317858Y-95868067D01*
X147737286Y-96497019D02*
X147834048Y-96448638D01*
X147882429Y-96400257D01*
X147930810Y-96303495D01*
X147930810Y-96013210D01*
X147882429Y-95916448D01*
X147834048Y-95868067D01*
X147737286Y-95819686D01*
X147592144Y-95819686D01*
X147495382Y-95868067D01*
X147447001Y-95916448D01*
X147398620Y-96013210D01*
X147398620Y-96303495D01*
X147447001Y-96400257D01*
X147495382Y-96448638D01*
X147592144Y-96497019D01*
X147737286Y-96497019D01*
X146963191Y-96497019D02*
X146963191Y-95819686D01*
X146963191Y-95916448D02*
X146914810Y-95868067D01*
X146818048Y-95819686D01*
X146672906Y-95819686D01*
X146576144Y-95868067D01*
X146527763Y-95964829D01*
X146527763Y-96497019D01*
X146527763Y-95964829D02*
X146479382Y-95868067D01*
X146382620Y-95819686D01*
X146237477Y-95819686D01*
X146140715Y-95868067D01*
X146092334Y-95964829D01*
X146092334Y-96497019D01*
X144882810Y-95432638D02*
X145753667Y-96738924D01*
X144592524Y-96448638D02*
X144495762Y-96497019D01*
X144302238Y-96497019D01*
X144205477Y-96448638D01*
X144157096Y-96351876D01*
X144157096Y-96303495D01*
X144205477Y-96206733D01*
X144302238Y-96158352D01*
X144447381Y-96158352D01*
X144544143Y-96109971D01*
X144592524Y-96013210D01*
X144592524Y-95964829D01*
X144544143Y-95868067D01*
X144447381Y-95819686D01*
X144302238Y-95819686D01*
X144205477Y-95868067D01*
X143818429Y-95819686D02*
X143576524Y-96497019D01*
X143334620Y-95819686D02*
X143576524Y-96497019D01*
X143673286Y-96738924D01*
X143721667Y-96787305D01*
X143818429Y-96835686D01*
X142947572Y-95819686D02*
X142947572Y-96497019D01*
X142947572Y-95916448D02*
X142899191Y-95868067D01*
X142802429Y-95819686D01*
X142657287Y-95819686D01*
X142560525Y-95868067D01*
X142512144Y-95964829D01*
X142512144Y-96497019D01*
X141592906Y-95819686D02*
X141592906Y-96497019D01*
X142028334Y-95819686D02*
X142028334Y-96351876D01*
X141979953Y-96448638D01*
X141883191Y-96497019D01*
X141738049Y-96497019D01*
X141641287Y-96448638D01*
X141592906Y-96400257D01*
X141157477Y-96448638D02*
X141060715Y-96497019D01*
X140867191Y-96497019D01*
X140770430Y-96448638D01*
X140722049Y-96351876D01*
X140722049Y-96303495D01*
X140770430Y-96206733D01*
X140867191Y-96158352D01*
X141012334Y-96158352D01*
X141109096Y-96109971D01*
X141157477Y-96013210D01*
X141157477Y-95964829D01*
X141109096Y-95868067D01*
X141012334Y-95819686D01*
X140867191Y-95819686D01*
X140770430Y-95868067D01*
X140286620Y-96497019D02*
X140286620Y-95819686D01*
X140286620Y-95481019D02*
X140335001Y-95529400D01*
X140286620Y-95577781D01*
X140238239Y-95529400D01*
X140286620Y-95481019D01*
X140286620Y-95577781D01*
X139367382Y-96497019D02*
X139367382Y-95964829D01*
X139415763Y-95868067D01*
X139512525Y-95819686D01*
X139706048Y-95819686D01*
X139802810Y-95868067D01*
X139367382Y-96448638D02*
X139464144Y-96497019D01*
X139706048Y-96497019D01*
X139802810Y-96448638D01*
X139851191Y-96351876D01*
X139851191Y-96255114D01*
X139802810Y-96158352D01*
X139706048Y-96109971D01*
X139464144Y-96109971D01*
X139367382Y-96061590D01*
X138157858Y-95432638D02*
X139028715Y-96738924D01*
X137674048Y-96497019D02*
X137770810Y-96448638D01*
X137819191Y-96400257D01*
X137867572Y-96303495D01*
X137867572Y-96013210D01*
X137819191Y-95916448D01*
X137770810Y-95868067D01*
X137674048Y-95819686D01*
X137528906Y-95819686D01*
X137432144Y-95868067D01*
X137383763Y-95916448D01*
X137335382Y-96013210D01*
X137335382Y-96303495D01*
X137383763Y-96400257D01*
X137432144Y-96448638D01*
X137528906Y-96497019D01*
X137674048Y-96497019D01*
X136899953Y-95819686D02*
X136899953Y-96835686D01*
X136899953Y-95868067D02*
X136803191Y-95819686D01*
X136609668Y-95819686D01*
X136512906Y-95868067D01*
X136464525Y-95916448D01*
X136416144Y-96013210D01*
X136416144Y-96303495D01*
X136464525Y-96400257D01*
X136512906Y-96448638D01*
X136609668Y-96497019D01*
X136803191Y-96497019D01*
X136899953Y-96448638D01*
X135593668Y-96448638D02*
X135690430Y-96497019D01*
X135883953Y-96497019D01*
X135980715Y-96448638D01*
X136029096Y-96351876D01*
X136029096Y-95964829D01*
X135980715Y-95868067D01*
X135883953Y-95819686D01*
X135690430Y-95819686D01*
X135593668Y-95868067D01*
X135545287Y-95964829D01*
X135545287Y-96061590D01*
X136029096Y-96158352D01*
X135109858Y-95819686D02*
X135109858Y-96497019D01*
X135109858Y-95916448D02*
X135061477Y-95868067D01*
X134964715Y-95819686D01*
X134819573Y-95819686D01*
X134722811Y-95868067D01*
X134674430Y-95964829D01*
X134674430Y-96497019D01*
X134190620Y-96109971D02*
X133416525Y-96109971D01*
X133029477Y-95819686D02*
X132835953Y-96497019D01*
X132642430Y-96013210D01*
X132448906Y-96497019D01*
X132255382Y-95819686D01*
X131723191Y-96497019D02*
X131819953Y-96448638D01*
X131868334Y-96400257D01*
X131916715Y-96303495D01*
X131916715Y-96013210D01*
X131868334Y-95916448D01*
X131819953Y-95868067D01*
X131723191Y-95819686D01*
X131578049Y-95819686D01*
X131481287Y-95868067D01*
X131432906Y-95916448D01*
X131384525Y-96013210D01*
X131384525Y-96303495D01*
X131432906Y-96400257D01*
X131481287Y-96448638D01*
X131578049Y-96497019D01*
X131723191Y-96497019D01*
X130513668Y-95819686D02*
X130513668Y-96497019D01*
X130949096Y-95819686D02*
X130949096Y-96351876D01*
X130900715Y-96448638D01*
X130803953Y-96497019D01*
X130658811Y-96497019D01*
X130562049Y-96448638D01*
X130513668Y-96400257D01*
X130029858Y-95819686D02*
X130029858Y-96497019D01*
X130029858Y-95916448D02*
X129981477Y-95868067D01*
X129884715Y-95819686D01*
X129739573Y-95819686D01*
X129642811Y-95868067D01*
X129594430Y-95964829D01*
X129594430Y-96497019D01*
X128675192Y-96497019D02*
X128675192Y-95481019D01*
X128675192Y-96448638D02*
X128771954Y-96497019D01*
X128965477Y-96497019D01*
X129062239Y-96448638D01*
X129110620Y-96400257D01*
X129159001Y-96303495D01*
X129159001Y-96013210D01*
X129110620Y-95916448D01*
X129062239Y-95868067D01*
X128965477Y-95819686D01*
X128771954Y-95819686D01*
X128675192Y-95868067D01*
X160413095Y-98630619D02*
X160413095Y-99453095D01*
X160364714Y-99549857D01*
X160316333Y-99598238D01*
X160219571Y-99646619D01*
X160026048Y-99646619D01*
X159929286Y-99598238D01*
X159880905Y-99549857D01*
X159832524Y-99453095D01*
X159832524Y-98630619D01*
X159348714Y-99646619D02*
X159348714Y-98630619D01*
X158768143Y-99646619D01*
X158768143Y-98630619D01*
X158284333Y-99646619D02*
X158284333Y-98630619D01*
X158042428Y-98630619D01*
X157897286Y-98679000D01*
X157800524Y-98775762D01*
X157752143Y-98872524D01*
X157703762Y-99066048D01*
X157703762Y-99211190D01*
X157752143Y-99404714D01*
X157800524Y-99501476D01*
X157897286Y-99598238D01*
X158042428Y-99646619D01*
X158284333Y-99646619D01*
X157268333Y-99114429D02*
X156929667Y-99114429D01*
X156784524Y-99646619D02*
X157268333Y-99646619D01*
X157268333Y-98630619D01*
X156784524Y-98630619D01*
X155768524Y-99646619D02*
X156107190Y-99162810D01*
X156349095Y-99646619D02*
X156349095Y-98630619D01*
X155962048Y-98630619D01*
X155865286Y-98679000D01*
X155816905Y-98727381D01*
X155768524Y-98824143D01*
X155768524Y-98969286D01*
X155816905Y-99066048D01*
X155865286Y-99114429D01*
X155962048Y-99162810D01*
X156349095Y-99162810D01*
X154559000Y-99646619D02*
X154559000Y-98630619D01*
X154220334Y-99356333D01*
X153881667Y-98630619D01*
X153881667Y-99646619D01*
X153397857Y-99646619D02*
X153397857Y-98630619D01*
X153059190Y-98630619D02*
X152478619Y-98630619D01*
X152768904Y-99646619D02*
X152768904Y-98630619D01*
X150882048Y-99646619D02*
X151365857Y-99646619D01*
X151365857Y-98630619D01*
X150543381Y-99646619D02*
X150543381Y-98630619D01*
X149479000Y-99549857D02*
X149527381Y-99598238D01*
X149672524Y-99646619D01*
X149769286Y-99646619D01*
X149914428Y-99598238D01*
X150011190Y-99501476D01*
X150059571Y-99404714D01*
X150107952Y-99211190D01*
X150107952Y-99066048D01*
X150059571Y-98872524D01*
X150011190Y-98775762D01*
X149914428Y-98679000D01*
X149769286Y-98630619D01*
X149672524Y-98630619D01*
X149527381Y-98679000D01*
X149479000Y-98727381D01*
X149043571Y-99114429D02*
X148704905Y-99114429D01*
X148559762Y-99646619D02*
X149043571Y-99646619D01*
X149043571Y-98630619D01*
X148559762Y-98630619D01*
X148124333Y-99646619D02*
X148124333Y-98630619D01*
X147543762Y-99646619D01*
X147543762Y-98630619D01*
X147108333Y-99598238D02*
X146963190Y-99646619D01*
X146721286Y-99646619D01*
X146624524Y-99598238D01*
X146576143Y-99549857D01*
X146527762Y-99453095D01*
X146527762Y-99356333D01*
X146576143Y-99259571D01*
X146624524Y-99211190D01*
X146721286Y-99162810D01*
X146914809Y-99114429D01*
X147011571Y-99066048D01*
X147059952Y-99017667D01*
X147108333Y-98920905D01*
X147108333Y-98824143D01*
X147059952Y-98727381D01*
X147011571Y-98679000D01*
X146914809Y-98630619D01*
X146672905Y-98630619D01*
X146527762Y-98679000D01*
X146092333Y-99114429D02*
X145753667Y-99114429D01*
X145608524Y-99646619D02*
X146092333Y-99646619D01*
X146092333Y-98630619D01*
X145608524Y-98630619D01*
D12*
X155811220Y-106194860D02*
X155450540Y-107665520D01*
X155450540Y-107665520D02*
X155171140Y-106603800D01*
X155171140Y-106603800D02*
X154861260Y-107675680D01*
X154861260Y-107675680D02*
X154520900Y-106225340D01*
X157231080Y-106885740D02*
X156441140Y-106875580D01*
X156441140Y-106875580D02*
X156430980Y-106885740D01*
X156430980Y-106885740D02*
X156430980Y-106875580D01*
X156390340Y-106164380D02*
X156390340Y-107706160D01*
X157279340Y-106154220D02*
X157279340Y-107723940D01*
X157279340Y-107723940D02*
X157269180Y-107713780D01*
X157830520Y-106255820D02*
X158181040Y-106174540D01*
X158181040Y-106174540D02*
X158501080Y-106164380D01*
X158501080Y-106164380D02*
X158739840Y-106365040D01*
X158739840Y-106365040D02*
X158770320Y-106634280D01*
X158770320Y-106634280D02*
X158529020Y-106875580D01*
X158529020Y-106875580D02*
X158140400Y-107005120D01*
X158140400Y-107005120D02*
X157960060Y-107165140D01*
X157960060Y-107165140D02*
X157919420Y-107464860D01*
X157919420Y-107464860D02*
X158150560Y-107685840D01*
X158150560Y-107685840D02*
X158470600Y-107713780D01*
X158470600Y-107713780D02*
X158821120Y-107604560D01*
X159859980Y-106154220D02*
X160108900Y-106174540D01*
X160108900Y-106174540D02*
X160350200Y-106415840D01*
X160350200Y-106415840D02*
X160439100Y-106906060D01*
X160439100Y-106906060D02*
X160411160Y-107254040D01*
X160411160Y-107254040D02*
X160210500Y-107574080D01*
X160210500Y-107574080D02*
X159959040Y-107696000D01*
X159959040Y-107696000D02*
X159649160Y-107624880D01*
X159649160Y-107624880D02*
X159430720Y-107444540D01*
X159430720Y-107444540D02*
X159359600Y-106984800D01*
X159359600Y-106984800D02*
X159410400Y-106575860D01*
X159410400Y-106575860D02*
X159519620Y-106293920D01*
X159519620Y-106293920D02*
X159880300Y-106164380D01*
X159260540Y-104434640D02*
X159519620Y-104995980D01*
X159519620Y-104995980D02*
X158981140Y-105514140D01*
X158981140Y-105514140D02*
X158460440Y-105244900D01*
X158460440Y-105244900D02*
X158181040Y-105404920D01*
X156740860Y-105384600D02*
X156410660Y-105194100D01*
X156410660Y-105194100D02*
X155971240Y-105524300D01*
X155971240Y-105524300D02*
X155498800Y-105034080D01*
X155498800Y-105034080D02*
X155780740Y-104554020D01*
X155780740Y-104554020D02*
X155590240Y-104084120D01*
X155590240Y-104084120D02*
X154980640Y-103896160D01*
X154980640Y-103896160D02*
X154980640Y-103215440D01*
X154980640Y-103215440D02*
X155539440Y-103075740D01*
X155539440Y-103075740D02*
X155740100Y-102504240D01*
X155740100Y-102504240D02*
X155470860Y-102034340D01*
X155470860Y-102034340D02*
X155940760Y-101523800D01*
X155940760Y-101523800D02*
X156458920Y-101785420D01*
X156458920Y-101785420D02*
X156928820Y-101584760D01*
X156928820Y-101584760D02*
X157099000Y-101043740D01*
X157099000Y-101043740D02*
X157789880Y-101025960D01*
X157789880Y-101025960D02*
X158000700Y-101574600D01*
X158000700Y-101574600D02*
X158419800Y-101744780D01*
X158419800Y-101744780D02*
X158970980Y-101475540D01*
X158970980Y-101475540D02*
X159489140Y-102003860D01*
X159489140Y-102003860D02*
X159240220Y-102544880D01*
X159240220Y-102544880D02*
X159410400Y-103024940D01*
X159410400Y-103024940D02*
X159959040Y-103124000D01*
X159959040Y-103124000D02*
X159969200Y-103825040D01*
X159969200Y-103825040D02*
X159410400Y-104025700D01*
X159410400Y-104025700D02*
X159270700Y-104424480D01*
X157129480Y-104404160D02*
X156829760Y-104254300D01*
X156829760Y-104254300D02*
X156629100Y-104056180D01*
X156629100Y-104056180D02*
X156479240Y-103654860D01*
X156479240Y-103654860D02*
X156479240Y-103256080D01*
X156479240Y-103256080D02*
X156629100Y-102905560D01*
X156629100Y-102905560D02*
X157081220Y-102555040D01*
X157081220Y-102555040D02*
X157530800Y-102504240D01*
X157530800Y-102504240D02*
X157929580Y-102605840D01*
X157929580Y-102605840D02*
X158330900Y-102953820D01*
X158330900Y-102953820D02*
X158480760Y-103405940D01*
X158480760Y-103405940D02*
X158429960Y-103903780D01*
X158429960Y-103903780D02*
X158181040Y-104206040D01*
X158181040Y-104206040D02*
X157830520Y-104404160D01*
X157830520Y-104404160D02*
X158181040Y-105404920D01*
X157129480Y-104404160D02*
X156730700Y-105404920D01*
M02*
