G04 #@! TF.FileFunction,Soldermask,Top*
%FSLAX46Y46*%
G04 Gerber Fmt 4.6, Leading zero omitted, Abs format (unit mm)*
G04 Created by KiCad (PCBNEW 0.201505222246+5678~23~ubuntu14.04.1-product) date dom 24 may 2015 19:31:24 CEST*
%MOMM*%
G01*
G04 APERTURE LIST*
%ADD10C,0.101600*%
%ADD11R,1.600200X2.999740*%
%ADD12R,2.600960X1.600200*%
%ADD13R,1.200000X0.750000*%
%ADD14R,0.750000X1.200000*%
%ADD15R,1.778000X1.778000*%
%ADD16C,1.778000*%
%ADD17R,3.048000X2.540000*%
%ADD18R,3.606800X0.812800*%
%ADD19R,2.540000X3.048000*%
%ADD20R,0.812800X3.606800*%
%ADD21R,8.001000X8.001000*%
%ADD22R,1.800860X0.800100*%
%ADD23R,0.900000X1.200000*%
%ADD24R,1.200000X0.900000*%
%ADD25R,1.300000X1.500000*%
%ADD26R,2.501900X1.000760*%
%ADD27R,4.000500X1.998980*%
%ADD28R,0.550000X1.600000*%
%ADD29R,1.600000X0.550000*%
%ADD30R,0.558800X1.600200*%
%ADD31R,5.499100X1.998980*%
G04 APERTURE END LIST*
D10*
D11*
X139065000Y-103210360D03*
X139065000Y-107609640D03*
D12*
X147850860Y-102235000D03*
X144249140Y-102235000D03*
D13*
X147635000Y-99060000D03*
X145735000Y-99060000D03*
X156530000Y-113030000D03*
X158430000Y-113030000D03*
X150180000Y-114300000D03*
X152080000Y-114300000D03*
X155255000Y-96520000D03*
X153355000Y-96520000D03*
X156530000Y-110490000D03*
X158430000Y-110490000D03*
X148910000Y-96520000D03*
X150810000Y-96520000D03*
D14*
X161290000Y-93660000D03*
X161290000Y-91760000D03*
D15*
X146685000Y-112395000D03*
D16*
X144145000Y-112395000D03*
X146685000Y-109855000D03*
X144145000Y-109855000D03*
X146685000Y-107315000D03*
X144145000Y-107315000D03*
D17*
X130020000Y-98840000D03*
D18*
X133350000Y-101740000D03*
X133350000Y-102990000D03*
X133350000Y-104240000D03*
X133350000Y-105490000D03*
X133350000Y-106740000D03*
X133350000Y-107990000D03*
X133350000Y-109240000D03*
X133350000Y-110490000D03*
D17*
X130020000Y-113390000D03*
D19*
X137500000Y-92555000D03*
D20*
X134600000Y-95885000D03*
X133350000Y-95885000D03*
D19*
X130450000Y-92555000D03*
D17*
X169065000Y-101240000D03*
D18*
X165735000Y-110390000D03*
X165735000Y-109140000D03*
X165735000Y-107890000D03*
X165735000Y-106640000D03*
X165735000Y-105390000D03*
X165735000Y-104140000D03*
D17*
X169065000Y-113290000D03*
D21*
X167005000Y-94615000D03*
D22*
X137391140Y-113980000D03*
X137391140Y-112080000D03*
X134388860Y-113030000D03*
D23*
X152400000Y-110025000D03*
X152400000Y-112225000D03*
D24*
X163660000Y-113030000D03*
X161460000Y-113030000D03*
D25*
X149860000Y-110570000D03*
X149860000Y-107870000D03*
X159385000Y-93900000D03*
X159385000Y-96600000D03*
X140335000Y-111045000D03*
X140335000Y-113745000D03*
D26*
X137982960Y-96923860D03*
X137982960Y-98425000D03*
X137982960Y-99926140D03*
D27*
X141935200Y-98425000D03*
D10*
G36*
X139960350Y-99425760D02*
X139211050Y-98925380D01*
X139211050Y-97924620D01*
X139960350Y-97424240D01*
X139960350Y-99425760D01*
X139960350Y-99425760D01*
G37*
D28*
X160280000Y-99255000D03*
X159480000Y-99255000D03*
X158680000Y-99255000D03*
X157880000Y-99255000D03*
X157080000Y-99255000D03*
X156280000Y-99255000D03*
X155480000Y-99255000D03*
X154680000Y-99255000D03*
D29*
X153230000Y-100705000D03*
X153230000Y-101505000D03*
X153230000Y-102305000D03*
X153230000Y-103105000D03*
X153230000Y-103905000D03*
X153230000Y-104705000D03*
X153230000Y-105505000D03*
X153230000Y-106305000D03*
D28*
X154680000Y-107755000D03*
X155480000Y-107755000D03*
X156280000Y-107755000D03*
X157080000Y-107755000D03*
X157880000Y-107755000D03*
X158680000Y-107755000D03*
X159480000Y-107755000D03*
D30*
X160280000Y-107755000D03*
D29*
X161730000Y-106305000D03*
X161730000Y-105505000D03*
X161730000Y-104705000D03*
X161730000Y-103905000D03*
X161730000Y-103105000D03*
X161730000Y-102305000D03*
X161730000Y-101505000D03*
X161730000Y-100705000D03*
D31*
X145796000Y-92710000D03*
X155194000Y-92710000D03*
M02*
